<svg xmlns="http://www.w3.org/2000/svg" xmlns:xlink="http://www.w3.org/1999/xlink" width="1920" zoomAndPan="magnify" viewBox="0 0 1440 809.999993" height="1080" preserveAspectRatio="xMidYMid meet" version="1.0"><defs><clipPath id="f887de5ad6"><path d="M 27.699219 230.152344 L 1412.8125 230.152344 L 1412.8125 579.847656 L 27.699219 579.847656 Z M 27.699219 230.152344 " clip-rule="nonzero"/></clipPath><clipPath id="8f677ceedc"><path d="M 53.199219 230.152344 L 1386.800781 230.152344 C 1400.882812 230.152344 1412.300781 241.570312 1412.300781 255.652344 L 1412.300781 554.347656 C 1412.300781 568.429688 1400.882812 579.847656 1386.800781 579.847656 L 53.199219 579.847656 C 39.113281 579.847656 27.699219 568.429688 27.699219 554.347656 L 27.699219 255.652344 C 27.699219 241.570312 39.113281 230.152344 53.199219 230.152344 Z M 53.199219 230.152344 " clip-rule="nonzero"/></clipPath><clipPath id="0847bd3bf3"><path d="M 0.699219 0.152344 L 1385.398438 0.152344 L 1385.398438 349.847656 L 0.699219 349.847656 Z M 0.699219 0.152344 " clip-rule="nonzero"/></clipPath><clipPath id="c1b357a2fc"><path d="M 26.199219 0.152344 L 1359.800781 0.152344 C 1373.882812 0.152344 1385.300781 11.570312 1385.300781 25.652344 L 1385.300781 324.347656 C 1385.300781 338.429688 1373.882812 349.847656 1359.800781 349.847656 L 26.199219 349.847656 C 12.113281 349.847656 0.699219 338.429688 0.699219 324.347656 L 0.699219 25.652344 C 0.699219 11.570312 12.113281 0.152344 26.199219 0.152344 Z M 26.199219 0.152344 " clip-rule="nonzero"/></clipPath><clipPath id="21b4c44678"><rect x="0" width="1386" y="0" height="350"/></clipPath></defs><g clip-path="url(#f887de5ad6)"><g clip-path="url(#8f677ceedc)"><g transform="matrix(1, 0, 0, 1, 27, 230)"><g clip-path="url(#21b4c44678)"><g clip-path="url(#0847bd3bf3)"><g clip-path="url(#c1b357a2fc)"><path fill="#253a5b" d="M 0.699219 0.152344 L 1385.8125 0.152344 L 1385.8125 349.847656 L 0.699219 349.847656 Z M 0.699219 0.152344 " fill-opacity="1" fill-rule="nonzero"/></g></g></g></g></g></g></svg>