<svg xmlns="http://www.w3.org/2000/svg" xmlns:xlink="http://www.w3.org/1999/xlink" width="1920" zoomAndPan="magnify" viewBox="0 0 1440 809.999993" height="1080" preserveAspectRatio="xMidYMid meet" version="1.0"><defs><clipPath id="6e8c283216"><path d="M 266 21 L 1174 21 L 1174 789.5 L 266 789.5 Z M 266 21 " clip-rule="nonzero"/></clipPath><clipPath id="9f7e883d36"><path d="M 530 409 L 910 409 L 910 789.5 L 530 789.5 Z M 530 409 " clip-rule="nonzero"/></clipPath></defs><path fill="#ffffff" d="M 706.136719 466.140625 L 733.925781 466.140625 L 733.925781 424.660156 L 706.136719 424.660156 Z M 706.136719 466.140625 " fill-opacity="1" fill-rule="nonzero"/><path fill="#ffffff" d="M 616.234375 645.953125 L 644.019531 645.953125 L 644.019531 604.464844 L 616.234375 604.464844 Z M 616.234375 645.953125 " fill-opacity="1" fill-rule="nonzero"/><path fill="#ffffff" d="M 796.046875 645.953125 L 823.828125 645.953125 L 823.828125 604.464844 L 796.046875 604.464844 Z M 796.046875 645.953125 " fill-opacity="1" fill-rule="nonzero"/><path fill="#eb8525" d="M 653.808594 650.835938 C 653.808594 653.539062 651.613281 655.730469 648.910156 655.730469 L 611.351562 655.730469 C 608.648438 655.730469 606.457031 653.539062 606.457031 650.835938 L 606.457031 604.464844 L 545.222656 604.464844 L 545.222656 774.492188 L 715.148438 774.492188 L 715.148438 604.464844 L 653.808594 604.464844 Z M 653.808594 650.835938 " fill-opacity="1" fill-rule="nonzero"/><path fill="#eb8525" d="M 805.050781 424.660156 L 743.703125 424.660156 L 743.703125 471.027344 C 743.703125 473.730469 741.515625 475.925781 738.8125 475.925781 L 701.253906 475.925781 C 698.550781 475.925781 696.355469 473.730469 696.355469 471.027344 L 696.355469 424.660156 L 635.015625 424.660156 L 635.015625 594.683594 L 805.050781 594.683594 Z M 805.050781 424.660156 " fill-opacity="1" fill-rule="nonzero"/><path fill="#eb8525" d="M 833.605469 604.464844 L 833.605469 650.835938 C 833.605469 653.539062 831.421875 655.730469 828.722656 655.730469 L 791.15625 655.730469 C 788.453125 655.730469 786.261719 653.539062 786.261719 650.835938 L 786.261719 604.464844 L 724.925781 604.464844 L 724.925781 774.492188 L 894.945312 774.492188 L 894.945312 604.464844 Z M 833.605469 604.464844 " fill-opacity="1" fill-rule="nonzero"/><path fill="#eb8525" d="M 720.03125 36.386719 L 281.472656 265.492188 L 281.472656 335.246094 L 1158.597656 335.246094 L 1158.597656 265.492188 L 722.289062 37.5625 Z M 720.03125 36.386719 " fill-opacity="1" fill-rule="nonzero"/><path fill="#253a5b" d="M 363.546875 774.390625 L 474.878906 774.390625 L 474.878906 345.03125 L 363.546875 345.03125 Z M 363.546875 774.390625 " fill-opacity="1" fill-rule="nonzero"/><path fill="#253a5b" d="M 965.191406 774.390625 L 1076.421875 774.390625 L 1076.421875 345.03125 L 965.191406 345.03125 Z M 965.191406 774.390625 " fill-opacity="1" fill-rule="nonzero"/><g clip-path="url(#6e8c283216)"><path fill="#253a5b" d="M 1167.984375 253.851562 L 724.53125 22.199219 C 721.691406 20.703125 718.285156 20.703125 715.4375 22.199219 L 272.078125 253.851562 C 268.832031 255.535156 266.785156 258.898438 266.796875 262.5625 L 266.796875 340.132812 C 266.796875 345.539062 271.183594 349.917969 276.582031 349.917969 L 348.871094 349.917969 L 348.871094 779.285156 C 348.871094 784.683594 353.257812 789.066406 358.65625 789.066406 L 479.773438 789.066406 C 485.164062 789.066406 489.554688 784.683594 489.554688 779.285156 L 489.554688 349.917969 L 950.515625 349.917969 L 950.515625 779.285156 C 950.515625 784.683594 954.902344 789.066406 960.300781 789.066406 L 1081.308594 789.066406 C 1086.707031 789.066406 1091.097656 784.683594 1091.097656 779.285156 L 1091.097656 349.917969 L 1163.382812 349.917969 C 1168.78125 349.917969 1173.171875 345.539062 1173.171875 340.132812 L 1173.171875 262.5625 C 1173.203125 258.917969 1171.203125 255.5625 1167.984375 253.851562 Z M 469.988281 769.507812 L 368.441406 769.507812 L 368.441406 349.917969 L 469.988281 349.917969 Z M 1071.625 769.507812 L 970.078125 769.507812 L 970.078125 349.917969 L 1071.625 349.917969 Z M 1153.707031 330.355469 L 286.363281 330.355469 L 286.363281 268.132812 L 720.03125 41.863281 L 1153.707031 268.132812 Z M 1153.707031 330.355469 " fill-opacity="1" fill-rule="nonzero"/></g><g clip-path="url(#9f7e883d36)"><path fill="#253a5b" d="M 899.84375 589.796875 L 819.71875 589.796875 L 819.71875 419.769531 C 819.71875 414.371094 815.339844 409.984375 809.941406 409.984375 L 630.128906 409.984375 C 624.730469 409.984375 620.351562 414.371094 620.351562 419.769531 L 620.351562 589.796875 L 540.324219 589.796875 C 534.925781 589.796875 530.546875 594.175781 530.546875 599.574219 L 530.546875 779.378906 C 530.546875 784.777344 534.925781 789.167969 540.324219 789.167969 L 899.84375 789.167969 C 905.242188 789.167969 909.621094 784.777344 909.621094 779.378906 L 909.621094 599.574219 C 909.621094 594.175781 905.242188 589.796875 899.84375 589.796875 Z M 800.9375 609.359375 L 818.9375 609.359375 L 818.9375 641.054688 L 800.9375 641.054688 Z M 711.03125 429.546875 L 729.035156 429.546875 L 729.035156 461.25 L 711.03125 461.25 Z M 639.914062 429.546875 L 691.46875 429.546875 L 691.46875 471.027344 C 691.46875 476.425781 695.847656 480.816406 701.253906 480.816406 L 738.820312 480.816406 C 744.21875 480.816406 748.601562 476.425781 748.601562 471.027344 L 748.601562 429.546875 L 800.152344 429.546875 L 800.152344 589.796875 L 639.914062 589.796875 Z M 621.128906 609.359375 L 639.132812 609.359375 L 639.132812 641.054688 L 621.128906 641.054688 Z M 710.25 769.507812 L 550.105469 769.507812 L 550.105469 609.359375 L 601.660156 609.359375 L 601.660156 650.835938 C 601.660156 656.234375 606.046875 660.621094 611.445312 660.621094 L 649.003906 660.621094 C 654.410156 660.621094 658.796875 656.234375 658.796875 650.835938 L 658.796875 609.359375 L 710.25 609.359375 Z M 890.058594 769.507812 L 729.816406 769.507812 L 729.816406 609.359375 L 781.371094 609.359375 L 781.371094 650.835938 C 781.371094 656.234375 785.75 660.621094 791.15625 660.621094 L 828.722656 660.621094 C 834.121094 660.621094 838.503906 656.234375 838.503906 650.835938 L 838.503906 609.359375 L 890.058594 609.359375 Z M 890.058594 769.507812 " fill-opacity="1" fill-rule="nonzero"/></g></svg>