<svg xmlns="http://www.w3.org/2000/svg" xmlns:xlink="http://www.w3.org/1999/xlink" width="1920" zoomAndPan="magnify" viewBox="0 0 1440 809.999993" height="1080" preserveAspectRatio="xMidYMid meet" version="1.0"><defs><clipPath id="f03854398a"><path d="M 410.835938 31 L 1028.835938 31 L 1028.835938 762 L 410.835938 762 Z M 410.835938 31 " clip-rule="nonzero"/></clipPath><clipPath id="36532c0de5"><path d="M 453 31 L 1028.835938 31 L 1028.835938 753 L 453 753 Z M 453 31 " clip-rule="nonzero"/></clipPath><clipPath id="f1315a7441"><path d="M 410.835938 42 L 1028.835938 42 L 1028.835938 762 L 410.835938 762 Z M 410.835938 42 " clip-rule="nonzero"/></clipPath></defs><g clip-path="url(#f03854398a)"><path fill="#ffffff" d="M 956.679688 448.132812 L 941.117188 449.6875 C 962.90625 494.824219 978.023438 543.070312 985.585938 592.207031 C 985.808594 593.988281 986.03125 595.765625 986.03125 597.542969 C 986.25 618.445312 981.804688 637.121094 974.023438 653.574219 C 983.363281 661.800781 988.253906 670.472656 988.253906 679.808594 C 988.253906 725.835938 864.1875 761.632812 705.878906 761.632812 C 547.574219 761.632812 423.507812 725.613281 423.507812 679.808594 C 423.507812 656.6875 455.304688 636.007812 506.886719 621.113281 C 506.21875 616.664062 505.773438 611.996094 505.550781 607.328125 C 451.078125 593.097656 410.835938 543.292969 410.835938 484.371094 C 410.835938 432.566406 441.742188 388.097656 486.207031 368.089844 C 506.21875 354.96875 530.007812 347.410156 555.578125 347.410156 C 574.03125 347.410156 591.597656 351.414062 607.382812 358.527344 C 614.277344 350.078125 621.167969 341.628906 628.730469 333.847656 C 629.171875 333.402344 629.617188 332.738281 630.0625 332.292969 C 630.507812 331.847656 630.953125 331.179688 631.617188 330.734375 C 637.175781 324.953125 642.734375 319.394531 648.738281 314.28125 C 650.296875 312.949219 651.628906 311.613281 652.742188 310.28125 C 643.402344 301.386719 638.066406 291.160156 638.066406 280.265625 C 638.066406 276.707031 638.734375 273.148438 639.84375 269.59375 C 591.152344 238.242188 569.363281 191.773438 569.363281 191.773438 L 570.253906 191.773438 C 569.808594 190.214844 569.363281 188.4375 569.363281 186.882812 C 569.363281 169.761719 596.488281 154.640625 638.734375 145.082031 C 636.066406 133.742188 636.957031 122.847656 642.070312 113.507812 C 645.183594 107.726562 648.515625 102.835938 652.074219 99.058594 C 652.074219 98.835938 652.296875 98.835938 652.296875 98.613281 C 659.632812 88.164062 672.53125 82.605469 688.761719 83.046875 C 704.769531 83.492188 721.890625 89.71875 737.453125 100.390625 C 751.238281 109.953125 762.132812 121.957031 768.582031 134.855469 C 855.515625 138.1875 922.664062 160.199219 922.664062 186.882812 C 922.664062 190.882812 921.105469 194.886719 918.214844 198.664062 C 908.433594 223.566406 892.644531 254.027344 853.292969 274.484375 C 853.738281 276.484375 853.738281 278.484375 853.738281 280.488281 C 853.738281 291.605469 848.179688 302.054688 838.394531 311.167969 C 840.839844 312.949219 843.507812 314.503906 845.734375 316.503906 C 847.734375 318.507812 849.957031 320.730469 851.957031 322.730469 L 862.410156 316.0625 L 888.867188 313.171875 L 884.417969 292.046875 L 903.984375 275.816406 L 904.429688 276.929688 L 904.207031 275.59375 L 934.890625 272.261719 L 930.222656 248.914062 L 952.679688 234.460938 L 952.902344 234.90625 L 952.679688 234.238281 L 989.363281 230.238281 L 1028.941406 424.339844 L 1029.164062 424.785156 L 1010.042969 442.574219 L 970.464844 446.796875 L 968.910156 438.792969 Z M 769.46875 102.167969 C 771.027344 103.28125 772.359375 104.171875 773.917969 105.058594 C 793.484375 116.398438 814.160156 115.289062 824.164062 103.726562 C 824.386719 103.28125 824.832031 103.058594 825.054688 102.613281 C 828.390625 98.613281 830.835938 94.832031 832.171875 91.71875 C 839.285156 77.933594 829.945312 57.035156 810.160156 43.25 C 789.257812 28.796875 764.800781 28.128906 755.460938 41.691406 C 755.460938 41.691406 755.238281 41.914062 755.238281 41.914062 C 753.015625 44.363281 750.792969 47.472656 748.570312 51.476562 C 740.789062 65.929688 748.792969 87.71875 769.46875 102.167969 Z M 769.46875 102.167969 " fill-opacity="1" fill-rule="nonzero"/></g><g clip-path="url(#36532c0de5)"><path fill="#eb8525" d="M 941.117188 449.910156 L 917.105469 452.355469 L 915.769531 445.464844 L 905.097656 453.691406 L 865.742188 457.914062 L 864.1875 450.355469 L 853.738281 459.25 L 814.382812 463.472656 L 794.816406 367.421875 L 814.605469 350.746094 L 843.285156 347.632812 L 839.730469 329.847656 L 851.734375 322.0625 C 849.734375 320.0625 847.511719 317.839844 845.511719 315.839844 C 843.507812 313.835938 840.839844 312.28125 838.171875 310.503906 C 833.28125 315.171875 827.054688 319.175781 820.164062 322.953125 C 804.601562 345.1875 765.46875 360.972656 719.664062 360.972656 C 681.421875 360.972656 648.070312 350.078125 628.730469 333.402344 C 621.390625 341.40625 614.277344 349.632812 607.382812 358.082031 C 652.074219 377.871094 683.203125 422.785156 683.203125 474.589844 C 683.203125 506.605469 671.195312 535.957031 651.628906 558.410156 C 657.410156 561.523438 663.191406 564.636719 669.195312 567.972656 C 671.417969 569.308594 672.75 570.640625 673.195312 572.417969 C 673.640625 575.085938 671.863281 577.3125 670.75 578.644531 C 665.636719 585.09375 659.410156 592.429688 651.628906 599.101562 C 650.742188 599.988281 649.628906 600.65625 648.738281 601.546875 C 647.628906 602.433594 646.738281 603.101562 645.625 603.992188 C 635.84375 611.328125 624.058594 617.332031 610.496094 619.332031 C 608.050781 619.554688 604.046875 620.222656 600.269531 620.222656 C 595.820312 620.222656 591.597656 619.777344 589.375 617.777344 C 588.261719 616.886719 587.816406 615.554688 587.816406 614.21875 C 587.816406 612.664062 587.816406 611.105469 587.816406 609.550781 C 587.816406 608.882812 587.816406 607.992188 587.816406 607.328125 C 587.816406 606.4375 587.816406 605.769531 587.816406 604.882812 C 587.816406 603.769531 587.816406 602.65625 587.816406 601.546875 C 582.480469 603.769531 576.921875 605.769531 571.140625 607.105469 C 564.027344 608.882812 556.691406 610.21875 549.351562 610.882812 C 545.796875 611.105469 542.238281 611.328125 538.679688 611.328125 C 527.339844 611.328125 516.222656 609.773438 505.773438 607.105469 C 505.996094 611.773438 506.441406 616.21875 507.109375 620.890625 C 507.332031 621.777344 507.332031 622.445312 507.554688 623.335938 C 507.777344 624.003906 507.777344 624.890625 507.996094 625.558594 C 512.445312 649.792969 523.5625 671.582031 544.238281 689.148438 C 636.289062 775.195312 907.320312 781.417969 972.246094 657.574219 C 972.6875 656.910156 972.910156 656.242188 973.355469 655.351562 C 973.800781 654.683594 974.023438 654.019531 974.46875 653.351562 C 982.25 636.898438 986.695312 618.222656 986.472656 597.320312 C 986.472656 595.542969 986.25 593.765625 986.027344 591.984375 C 978.023438 543.292969 962.90625 495.046875 941.117188 449.910156 Z M 910.433594 622.890625 C 910.210938 623.558594 909.988281 624.445312 909.542969 625.113281 C 909.320312 625.78125 908.878906 626.449219 908.65625 627.113281 C 905.542969 633.785156 900.652344 639.34375 893.757812 642.457031 C 890.644531 643.789062 887.308594 644.902344 884.199219 646.234375 L 888.644531 667.582031 L 874.859375 669.136719 L 870.414062 647.570312 C 867.523438 647.125 864.632812 646.902344 861.964844 646.457031 C 847.957031 643.789062 836.394531 635.339844 827.722656 618.667969 C 826.613281 616.441406 825.5 613.996094 824.164062 611.105469 C 825.054688 610.660156 825.945312 610.21875 826.832031 609.996094 C 828.167969 609.328125 829.28125 608.882812 830.613281 608.214844 C 831.949219 607.550781 833.28125 607.105469 834.839844 606.4375 C 838.617188 604.660156 842.398438 603.101562 846.398438 601.324219 C 846.84375 601.992188 847.289062 602.65625 847.511719 603.324219 C 848.402344 605.324219 849.511719 607.105469 850.625 608.882812 C 851.292969 609.996094 851.957031 610.882812 852.847656 611.773438 C 853.738281 612.886719 854.625 613.773438 855.515625 614.441406 C 858.851562 617.332031 862.851562 618.886719 867.078125 619.332031 C 870.414062 619.777344 873.746094 619.554688 876.859375 618.667969 C 878.195312 618.222656 879.304688 617.777344 880.640625 617.109375 C 881.085938 616.886719 881.75 616.664062 882.195312 616.21875 C 882.640625 616 883.085938 615.554688 883.53125 615.109375 C 888.199219 611.105469 889.089844 603.546875 885.753906 597.097656 C 884.640625 594.429688 882.195312 592.207031 879.527344 591.097656 C 874.191406 589.539062 868.632812 588.207031 863.296875 587.09375 C 854.847656 585.316406 846.621094 583.535156 838.394531 579.089844 C 827.945312 573.308594 821.496094 562.859375 818.164062 549.742188 C 811.714844 525.503906 820.164062 507.050781 833.058594 499.9375 C 835.28125 498.824219 837.507812 497.933594 839.953125 496.824219 L 836.394531 479.035156 L 850.402344 477.480469 L 853.960938 495.265625 C 871.078125 495.710938 885.308594 504.382812 895.757812 525.726562 L 875.972656 537.734375 C 872.859375 531.285156 868.855469 525.949219 863.296875 523.726562 C 857.292969 521.058594 850.179688 521.726562 844.621094 525.285156 C 841.507812 527.285156 840.175781 530.84375 841.0625 535.957031 C 841.953125 541.515625 844.398438 545.515625 848.402344 547.296875 C 852.179688 548.851562 856.40625 549.964844 860.40625 550.628906 C 869.746094 552.410156 879.082031 553.296875 888.199219 558.191406 C 900.207031 564.636719 908.210938 575.976562 912.210938 592.207031 C 913.992188 602.433594 913.546875 613.550781 910.433594 622.890625 Z M 570.03125 191.550781 C 569.585938 189.996094 569.140625 188.214844 569.140625 186.660156 C 569.140625 169.539062 596.265625 154.417969 638.511719 144.859375 C 639.84375 149.972656 641.847656 155.085938 644.515625 160.199219 C 644.738281 160.867188 645.183594 161.3125 645.402344 161.757812 C 640.511719 163.089844 636.066406 164.648438 632.285156 166.425781 C 619.613281 171.761719 611.832031 178.210938 611.832031 185.769531 C 611.832031 187.992188 612.496094 190.214844 613.832031 192.441406 C 614.945312 194.21875 616.5 195.773438 618.277344 197.332031 C 634.953125 211.117188 681.421875 219.789062 729.449219 221.34375 C 732.339844 221.34375 735.453125 221.566406 738.34375 221.566406 C 740.789062 221.566406 743.011719 221.566406 745.457031 221.566406 C 750.792969 221.566406 756.128906 221.566406 761.6875 221.34375 C 809.714844 219.789062 855.738281 211.339844 872.636719 197.554688 C 877.082031 193.996094 879.527344 189.996094 879.527344 185.769531 C 879.527344 175.988281 866.410156 167.984375 846.398438 161.980469 C 840.175781 160.199219 833.28125 158.421875 825.945312 157.089844 C 810.378906 153.976562 792.371094 151.972656 773.917969 150.863281 C 773.25 147.082031 772.136719 143.304688 770.582031 139.300781 C 770.136719 138.1875 769.691406 137.300781 769.246094 136.1875 C 769.023438 135.519531 768.582031 134.855469 768.359375 134.410156 C 855.292969 137.746094 922.441406 159.757812 922.441406 186.4375 C 922.441406 190.4375 920.882812 194.441406 917.992188 198.222656 C 908.210938 223.121094 892.425781 253.582031 853.070312 274.039062 C 852.402344 274.484375 851.734375 274.707031 851.070312 275.152344 C 850.402344 275.59375 849.734375 275.816406 849.066406 276.261719 C 843.285156 278.929688 837.285156 281.597656 830.613281 283.820312 C 828.390625 284.488281 826.167969 285.378906 823.945312 286.046875 C 823.277344 286.265625 822.609375 286.488281 821.941406 286.710938 C 821.273438 286.933594 820.609375 287.15625 819.71875 287.378906 C 798.597656 293.382812 772.804688 296.941406 741.234375 297.382812 C 710.328125 292.9375 681.644531 285.378906 661.191406 272.484375 C 659.632812 271.371094 658.078125 270.480469 656.519531 269.371094 C 653.1875 267.144531 650.296875 264.921875 648.074219 262.699219 C 647.40625 262.253906 646.960938 261.585938 646.515625 261.144531 C 646.070312 260.476562 645.402344 260.03125 644.960938 259.585938 C 639.402344 253.140625 639.402344 247.804688 643.402344 243.578125 C 647.40625 239.132812 655.410156 235.796875 665.191406 233.351562 C 653.851562 231.570312 643.179688 229.570312 633.398438 227.125 C 597.824219 218.453125 574.253906 205.78125 570.03125 191.550781 Z M 918.660156 408.777344 L 922.664062 428.566406 L 924.21875 436.125 L 919.996094 436.570312 L 918.4375 436.792969 L 913.992188 437.238281 L 887.53125 440.128906 L 866.855469 338.515625 L 865.078125 330.289062 L 863.519531 322.730469 L 861.964844 315.617188 L 888.421875 312.726562 L 892.867188 312.28125 L 898.648438 311.613281 Z M 1029.164062 424.785156 L 1025.382812 425.230469 L 1021.605469 425.675781 L 992.253906 428.789062 L 957.792969 259.140625 L 955.347656 247.136719 L 952.902344 235.128906 L 952.679688 234.460938 L 989.363281 230.460938 L 1028.941406 424.5625 Z M 642.734375 143.96875 C 640.289062 133.742188 640.957031 123.738281 645.625 115.511719 C 645.847656 115.066406 646.070312 114.621094 646.515625 114.175781 C 645.625 123.070312 647.851562 132.628906 652.519531 142.191406 C 655.1875 147.527344 658.523438 152.863281 662.746094 157.976562 C 663.191406 158.644531 663.859375 159.3125 664.304688 159.757812 C 664.527344 160.199219 664.96875 160.421875 665.414062 160.867188 C 665.636719 161.089844 665.859375 161.3125 666.082031 161.535156 C 671.195312 167.316406 677.199219 172.652344 684.089844 177.320312 C 685.648438 178.433594 687.425781 179.542969 688.984375 180.433594 L 682.757812 192.441406 C 680.535156 191.105469 678.308594 189.773438 676.308594 188.4375 C 666.304688 181.546875 658.078125 173.320312 652.296875 164.648438 C 651.851562 163.980469 651.40625 163.3125 651.183594 162.867188 C 650.742188 162.203125 650.296875 161.535156 650.074219 160.867188 C 649.851562 160.421875 649.628906 159.976562 649.183594 159.535156 C 646.070312 154.199219 644.070312 149.082031 642.734375 143.96875 Z M 667.414062 156.867188 C 667.859375 157.53125 668.527344 158.199219 668.972656 158.644531 C 669.640625 159.3125 670.082031 159.976562 670.75 160.421875 C 671.640625 161.3125 672.308594 161.980469 673.195312 162.867188 C 677.199219 166.648438 681.421875 170.207031 686.316406 173.542969 C 687.871094 174.652344 689.207031 175.542969 690.761719 176.429688 C 715.664062 191.773438 743.011719 194.21875 758.351562 183.324219 C 761.019531 181.324219 763.46875 179.097656 765.246094 176.429688 C 765.914062 175.542969 766.355469 174.652344 766.800781 173.761719 C 769.691406 168.425781 770.804688 161.980469 770.136719 155.085938 C 770.136719 154.417969 769.914062 153.53125 769.914062 152.863281 C 769.914062 152.640625 769.691406 152.195312 769.691406 151.972656 C 769.691406 151.53125 769.46875 151.085938 769.46875 150.863281 C 769.023438 149.082031 768.582031 147.082031 767.914062 145.304688 C 767.46875 143.96875 767.023438 142.636719 766.578125 141.300781 C 765.914062 139.746094 765.246094 137.964844 764.355469 136.410156 C 764.132812 135.742188 763.6875 135.078125 763.246094 134.410156 C 757.019531 123.070312 747.011719 112.398438 734.785156 103.726562 C 720.109375 93.5 703.65625 87.71875 688.539062 87.273438 C 687.871094 87.273438 687.425781 87.273438 686.757812 87.273438 C 684.089844 87.273438 681.421875 87.496094 678.976562 87.941406 C 675.640625 88.386719 672.753906 89.273438 669.863281 90.386719 C 663.859375 92.609375 659.1875 96.167969 655.855469 101.058594 C 655.632812 101.28125 655.632812 101.503906 655.410156 101.726562 C 648.292969 112.398438 649.40625 127.070312 656.964844 141.523438 C 659.632812 146.414062 663.191406 151.75 667.414062 156.867188 Z M 669.640625 108.171875 C 674.53125 101.058594 683.867188 97.722656 694.542969 98.390625 C 696.320312 98.390625 698.097656 98.613281 700.101562 99.058594 C 702.101562 99.28125 704.101562 99.722656 706.324219 100.390625 C 713.886719 102.390625 721.890625 106.171875 729.449219 111.285156 C 736.5625 116.175781 742.34375 121.957031 747.011719 127.960938 C 748.125 129.519531 749.238281 131.296875 750.347656 132.851562 C 750.347656 133.074219 750.570312 133.074219 750.570312 133.296875 C 750.792969 133.742188 751.015625 133.964844 751.238281 134.410156 C 751.683594 135.296875 752.351562 136.410156 752.792969 137.300781 C 752.792969 137.300781 752.792969 137.300781 752.792969 137.523438 C 755.019531 141.96875 756.351562 146.414062 756.796875 150.640625 C 756.796875 151.308594 756.796875 152.195312 757.019531 152.863281 C 757.019531 153.53125 757.019531 154.417969 757.019531 155.085938 C 756.796875 159.3125 755.683594 163.089844 753.460938 166.425781 C 743.902344 180.210938 719 179.542969 696.765625 165.316406 C 695.875 164.648438 694.765625 163.980469 693.875 163.3125 C 693.875 163.3125 693.652344 163.089844 693.652344 163.089844 C 691.429688 161.535156 689.425781 159.976562 687.425781 158.199219 C 686.757812 157.53125 685.871094 156.867188 685.203125 156.421875 C 684.535156 155.753906 683.867188 155.085938 683.203125 154.640625 C 678.308594 149.75 674.308594 144.636719 671.417969 139.300781 C 665.191406 127.738281 664.082031 116.398438 669.640625 108.171875 Z M 776.363281 92.386719 C 777.472656 93.054688 778.363281 93.722656 779.476562 94.386719 C 796.152344 104.617188 814.382812 106.394531 825.277344 99.5 C 827.5 97.945312 829.5 96.167969 831.058594 93.941406 C 831.503906 93.277344 831.949219 92.609375 832.390625 91.71875 C 839.507812 77.933594 830.167969 57.035156 810.378906 43.25 C 789.480469 28.796875 765.023438 28.128906 755.683594 41.691406 C 755.683594 41.691406 755.460938 41.914062 755.460938 41.914062 C 746.347656 55.476562 755.683594 77.933594 776.363281 92.386719 Z M 766.136719 47.472656 C 769.914062 41.914062 777.695312 39.914062 786.367188 41.25 C 792.59375 42.136719 799.484375 45.027344 805.933594 49.476562 C 811.9375 53.699219 816.605469 58.589844 819.941406 63.703125 C 819.941406 63.703125 819.941406 63.925781 820.164062 63.925781 C 825.054688 71.929688 825.945312 80.15625 821.941406 85.9375 C 815.71875 95.054688 799.042969 94.609375 784.144531 85.273438 C 783.476562 84.828125 782.808594 84.382812 782.144531 83.9375 C 766.578125 73.488281 759.464844 57.035156 766.136719 47.472656 Z M 509.109375 563.75 C 481.09375 549.519531 459.972656 522.171875 454.414062 489.707031 C 447.078125 445.242188 470.867188 399.660156 510.886719 381.429688 C 520.449219 376.980469 530.675781 374.09375 541.125 372.3125 C 547.351562 371.203125 549.351562 372.757812 549.351562 379.652344 C 549.132812 404.332031 549.132812 429.230469 549.132812 453.910156 C 549.132812 460.359375 549.132812 466.585938 549.132812 473.035156 C 549.132812 504.160156 548.910156 535.289062 549.351562 566.417969 C 549.351562 572.863281 547.796875 574.421875 541.347656 573.753906 C 529.789062 572.195312 519.113281 568.863281 509.109375 563.75 Z M 561.804688 429.675781 C 561.804688 412.335938 561.804688 395.214844 561.804688 377.871094 C 561.804688 372.535156 564.027344 372.089844 568.695312 372.535156 C 576.699219 372.980469 584.707031 374.980469 592.488281 377.871094 C 621.613281 389.210938 646.960938 416.335938 654.742188 447.6875 C 656.742188 455.914062 658.523438 464.363281 658.078125 470.585938 C 658.078125 485.039062 655.1875 499.492188 649.40625 512.832031 C 647.628906 517.058594 645.625 517.722656 641.625 515.5 C 616.277344 501.269531 590.929688 487.039062 565.363281 473.035156 C 562.027344 471.253906 561.582031 468.363281 561.582031 465.25 C 561.804688 453.246094 561.804688 441.460938 561.804688 429.675781 Z M 561.804688 429.675781 " fill-opacity="1" fill-rule="nonzero"/></g><g clip-path="url(#f1315a7441)"><path fill="#283d5d" d="M 988.253906 680.03125 C 988.253906 726.054688 864.1875 761.851562 705.878906 761.851562 C 547.574219 761.851562 423.507812 725.835938 423.507812 680.03125 C 423.507812 656.910156 455.304688 636.230469 506.886719 621.335938 C 507.109375 622.222656 507.109375 622.890625 507.332031 623.78125 C 507.554688 624.445312 507.554688 625.335938 507.777344 626.003906 C 512.222656 650.238281 523.339844 672.027344 544.015625 689.59375 C 636.066406 775.636719 907.097656 781.863281 972.023438 658.019531 C 972.464844 657.351562 972.6875 656.6875 973.132812 655.796875 C 973.578125 655.128906 973.800781 654.464844 974.246094 653.796875 C 983.359375 662.023438 988.253906 670.695312 988.253906 680.03125 Z M 639.625 269.371094 C 638.511719 272.925781 637.84375 276.484375 637.84375 280.042969 C 637.84375 290.9375 643.179688 301.164062 652.519531 310.058594 C 651.40625 311.390625 650.074219 312.726562 648.515625 314.058594 C 642.515625 319.394531 636.957031 324.734375 631.398438 330.511719 C 630.953125 330.957031 630.507812 331.625 629.839844 332.070312 C 629.394531 332.515625 628.949219 333.179688 628.507812 333.625 C 647.628906 350.078125 681.199219 361.195312 719.445312 361.195312 C 765.246094 361.195312 804.378906 345.410156 819.941406 323.175781 C 826.832031 319.617188 833.058594 315.394531 837.949219 310.726562 C 847.734375 301.832031 853.292969 291.382812 853.292969 280.042969 C 853.292969 278.039062 853.070312 276.039062 852.847656 274.039062 C 852.179688 274.484375 851.511719 274.707031 850.847656 275.152344 C 850.179688 275.59375 849.511719 275.816406 848.84375 276.261719 C 849.066406 277.597656 849.066406 278.707031 849.066406 280.042969 C 849.066406 290.269531 843.730469 299.832031 834.617188 308.058594 C 831.503906 310.726562 828.167969 313.394531 824.164062 315.839844 C 823.054688 316.503906 821.941406 317.171875 820.832031 317.839844 C 819.71875 318.507812 818.386719 319.175781 817.050781 319.839844 C 798.375 329.402344 773.25 335.183594 745.679688 335.183594 C 706.769531 335.183594 672.753906 323.621094 655.1875 306.722656 C 646.960938 298.941406 642.292969 289.824219 642.292969 280.265625 C 642.292969 277.375 642.734375 274.707031 643.402344 272.039062 C 648.738281 275.371094 654.296875 278.261719 660.300781 281.152344 C 681.199219 290.9375 706.101562 297.605469 735.230469 297.605469 C 737.007812 297.605469 738.789062 297.605469 740.34375 297.605469 C 709.4375 293.160156 680.757812 285.601562 660.300781 272.703125 C 658.746094 271.59375 657.1875 270.703125 655.632812 269.59375 C 652.296875 267.367188 649.40625 265.144531 647.183594 262.921875 C 646.515625 262.476562 646.070312 261.808594 645.625 261.367188 C 645.183594 260.699219 644.515625 260.253906 644.070312 259.808594 C 638.511719 253.359375 638.511719 248.023438 642.515625 243.800781 C 646.515625 239.355469 654.519531 236.019531 664.304688 233.574219 C 652.964844 231.792969 642.292969 229.792969 632.507812 227.347656 C 597.601562 218.675781 574.03125 206.003906 569.585938 191.773438 L 568.695312 191.773438 C 569.140625 191.550781 590.929688 238.019531 639.625 269.371094 Z M 613.832031 192.441406 C 612.496094 190.4375 611.832031 188.214844 611.832031 185.769531 C 611.832031 178.210938 619.613281 171.761719 632.285156 166.425781 C 636.289062 164.871094 640.734375 163.3125 645.402344 161.757812 C 645.183594 161.3125 644.738281 160.644531 644.515625 160.199219 C 641.847656 155.085938 639.84375 149.972656 638.511719 144.859375 C 635.84375 133.519531 636.734375 122.625 641.847656 113.285156 C 644.960938 107.507812 648.292969 102.613281 651.851562 98.835938 C 651.851562 98.613281 652.074219 98.613281 652.074219 98.390625 C 659.410156 87.941406 672.308594 82.382812 688.539062 82.828125 C 704.546875 83.269531 721.667969 89.496094 737.230469 100.167969 C 751.015625 109.730469 761.910156 121.734375 768.359375 134.632812 C 768.582031 135.296875 769.023438 135.964844 769.246094 136.410156 C 769.691406 137.523438 770.136719 138.410156 770.582031 139.523438 C 772.136719 143.523438 773.25 147.304688 773.917969 151.085938 C 792.371094 152.195312 810.378906 154.199219 825.945312 157.308594 C 833.28125 158.644531 840.175781 160.421875 846.398438 162.203125 C 866.632812 168.203125 879.527344 176.210938 879.527344 185.992188 C 879.527344 190.214844 877.082031 194.21875 872.636719 197.777344 C 855.738281 211.5625 809.492188 220.011719 761.6875 221.566406 C 756.351562 221.789062 751.015625 221.789062 745.457031 221.789062 C 743.011719 221.789062 740.789062 221.789062 738.34375 221.789062 C 735.230469 221.789062 732.339844 221.566406 729.449219 221.566406 C 681.199219 220.011719 634.953125 211.339844 618.277344 197.554688 C 616.5 195.773438 614.945312 193.996094 613.832031 192.441406 Z M 656.742188 141.300781 C 659.410156 146.636719 662.96875 151.75 667.414062 156.867188 C 667.859375 157.53125 668.527344 158.199219 668.972656 158.644531 C 669.640625 159.3125 670.082031 159.976562 670.75 160.421875 C 671.640625 161.3125 672.308594 161.980469 673.195312 162.867188 C 677.199219 166.648438 681.421875 170.207031 686.316406 173.542969 C 687.871094 174.652344 689.207031 175.542969 690.761719 176.429688 C 715.664062 191.773438 743.011719 194.21875 758.351562 183.324219 C 761.019531 181.324219 763.46875 179.097656 765.246094 176.429688 C 765.914062 175.542969 766.355469 174.652344 766.800781 173.761719 C 769.691406 168.425781 770.804688 161.980469 770.136719 155.085938 C 770.136719 154.417969 769.914062 153.53125 769.914062 152.863281 C 769.914062 152.640625 769.691406 152.195312 769.691406 151.972656 C 769.691406 151.53125 769.46875 151.085938 769.46875 150.863281 C 769.023438 149.082031 768.582031 147.082031 767.914062 145.304688 C 767.46875 143.96875 767.023438 142.636719 766.578125 141.300781 C 765.914062 139.746094 765.246094 137.964844 764.355469 136.410156 C 764.132812 135.742188 763.6875 135.078125 763.246094 134.410156 C 757.019531 123.070312 747.011719 112.398438 734.785156 103.726562 C 720.109375 93.5 703.65625 87.71875 688.539062 87.273438 C 687.871094 87.273438 687.425781 87.273438 686.757812 87.273438 C 684.089844 87.273438 681.421875 87.496094 678.976562 87.941406 C 675.640625 88.386719 672.753906 89.273438 669.863281 90.386719 C 663.859375 92.609375 659.1875 96.167969 655.855469 101.058594 C 655.632812 101.28125 655.632812 101.503906 655.410156 101.726562 C 648.292969 112.175781 649.40625 126.851562 656.742188 141.300781 Z M 648.960938 159.3125 C 649.183594 159.757812 649.40625 160.199219 649.851562 160.644531 C 650.296875 161.3125 650.519531 161.980469 650.960938 162.644531 C 651.40625 163.3125 651.851562 163.980469 652.074219 164.425781 C 657.855469 173.097656 666.082031 181.324219 676.085938 188.214844 C 678.308594 189.773438 680.3125 191.105469 682.535156 192.21875 L 688.761719 180.210938 C 687.203125 179.097656 685.425781 178.210938 683.867188 177.097656 C 676.976562 172.429688 670.972656 166.871094 665.859375 161.3125 C 665.636719 161.089844 665.414062 160.867188 665.191406 160.644531 C 664.746094 160.199219 664.527344 159.976562 664.082031 159.535156 C 663.636719 158.867188 662.96875 158.199219 662.523438 157.753906 C 658.300781 152.640625 654.964844 147.304688 652.296875 141.96875 C 647.628906 132.40625 645.402344 122.625 646.292969 113.953125 C 646.070312 114.398438 645.847656 114.84375 645.402344 115.289062 C 640.734375 123.738281 640.066406 133.742188 642.515625 143.746094 C 644.070312 149.082031 646.070312 154.199219 648.960938 159.3125 Z M 410.835938 484.371094 C 410.835938 432.566406 441.742188 388.097656 486.207031 368.089844 C 506.21875 354.96875 530.007812 347.410156 555.578125 347.410156 C 574.03125 347.410156 591.597656 351.414062 607.382812 358.527344 C 652.074219 378.316406 683.203125 423.230469 683.203125 475.035156 C 683.203125 507.050781 671.195312 536.398438 651.628906 558.855469 C 657.410156 561.96875 663.191406 565.082031 669.195312 568.417969 C 671.417969 569.75 672.753906 571.085938 673.195312 572.863281 C 673.640625 575.53125 671.863281 577.753906 670.75 579.089844 C 665.636719 585.539062 659.410156 592.875 651.628906 599.542969 C 650.742188 600.433594 649.628906 601.101562 648.738281 601.992188 C 647.628906 602.878906 646.738281 603.546875 645.625 604.4375 C 635.84375 611.773438 624.058594 617.777344 610.496094 619.777344 C 608.050781 620 604.050781 620.667969 600.269531 620.667969 C 595.824219 620.667969 591.597656 620.222656 589.375 618.222656 C 588.261719 617.332031 587.816406 615.996094 587.816406 614.664062 C 587.816406 613.109375 587.816406 611.550781 587.816406 609.996094 C 587.816406 609.328125 587.816406 608.4375 587.816406 607.769531 C 587.816406 606.882812 587.816406 606.214844 587.816406 605.324219 C 587.816406 604.214844 587.816406 603.101562 587.816406 601.992188 C 582.480469 604.214844 576.921875 606.214844 571.144531 607.550781 C 564.027344 609.328125 556.691406 610.660156 549.351562 611.328125 C 545.796875 611.550781 542.238281 611.773438 538.679688 611.773438 C 527.339844 611.773438 516.222656 610.21875 505.773438 607.550781 C 451.078125 593.097656 410.835938 543.292969 410.835938 484.371094 Z M 432.402344 475.035156 C 432.402344 525.285156 462.640625 568.417969 505.773438 587.539062 C 520.894531 594.207031 537.792969 597.988281 555.578125 597.988281 C 566.695312 597.988281 577.367188 596.433594 587.597656 593.765625 C 587.597656 591.097656 587.597656 588.429688 587.597656 585.761719 C 587.597656 582.648438 587.597656 579.535156 587.597656 576.421875 L 587.597656 534.621094 C 587.597656 531.507812 587.597656 528.617188 589.820312 527.285156 C 592.042969 525.949219 594.710938 527.285156 597.15625 528.617188 C 611.609375 536.84375 625.839844 544.625 640.511719 552.632812 C 641.179688 553.074219 641.847656 553.296875 642.515625 553.742188 C 643.179688 554.1875 643.847656 554.410156 644.515625 554.855469 C 645.625 555.300781 646.515625 555.964844 647.628906 556.410156 C 666.972656 534.621094 678.753906 506.160156 678.753906 474.8125 C 678.753906 424.339844 648.074219 380.761719 604.492188 361.863281 C 589.597656 355.414062 572.921875 351.636719 555.578125 351.636719 C 540.90625 351.636719 526.675781 354.304688 513.554688 358.972656 C 509.109375 360.527344 504.886719 362.53125 500.660156 364.53125 C 496.4375 366.753906 492.210938 368.976562 488.210938 371.644531 C 454.636719 393.878906 432.402344 431.898438 432.402344 475.035156 Z M 862.1875 315.394531 Z M 1029.164062 424.785156 L 1010.042969 442.574219 L 970.464844 446.796875 L 968.910156 438.792969 L 956.679688 448.355469 L 941.117188 449.910156 L 917.105469 452.355469 L 915.769531 445.464844 L 905.097656 453.691406 L 865.742188 457.914062 L 864.1875 450.355469 L 853.738281 459.25 L 814.382812 463.472656 L 794.816406 367.421875 L 814.605469 350.746094 L 843.285156 347.632812 L 839.730469 329.847656 L 851.734375 322.0625 L 862.1875 315.394531 L 863.742188 322.507812 L 865.296875 330.070312 L 867.078125 338.296875 L 887.753906 439.90625 L 914.214844 437.015625 L 918.660156 436.570312 L 920.214844 436.347656 L 924.441406 435.902344 L 922.882812 428.34375 L 918.882812 408.554688 L 899.09375 311.390625 L 893.3125 312.058594 L 888.867188 312.503906 L 884.417969 292.046875 L 903.984375 275.816406 L 904.429688 276.929688 L 904.207031 275.59375 L 934.890625 272.261719 L 930.222656 248.914062 L 952.679688 234.460938 L 952.902344 234.90625 L 955.347656 246.914062 L 957.792969 258.917969 L 992.476562 428.566406 L 1021.828125 425.453125 L 1025.605469 425.007812 L 1029.164062 424.785156 L 1028.941406 424.339844 Z M 870.191406 439.460938 L 869.078125 433.679688 L 867.964844 428.121094 L 852.179688 350.96875 L 848.625 351.414062 L 846.398438 351.636719 L 844.175781 351.859375 L 819.941406 354.527344 L 821.054688 359.863281 L 822.164062 365.421875 L 823.277344 370.980469 L 837.949219 442.796875 L 862.1875 440.128906 L 866.632812 439.683594 Z M 973.132812 428.566406 L 971.355469 419.449219 L 942.007812 276.039062 L 940.449219 276.261719 L 936.003906 276.707031 L 909.765625 279.597656 L 912.65625 294.273438 L 914.65625 303.609375 L 916.660156 312.949219 L 940.894531 432.34375 L 967.128906 429.453125 L 969.355469 429.230469 L 970.910156 429.011719 L 971.578125 429.011719 Z M 769.46875 102.167969 C 771.027344 103.28125 772.359375 104.171875 773.917969 105.058594 C 793.484375 116.398438 814.160156 115.289062 824.164062 103.726562 C 824.386719 103.28125 824.832031 103.058594 825.054688 102.613281 C 828.390625 98.613281 830.835938 94.832031 832.171875 91.71875 C 831.726562 92.386719 831.28125 93.277344 830.835938 93.941406 C 829.28125 96.167969 827.277344 97.945312 825.054688 99.5 C 814.160156 106.394531 795.929688 104.617188 779.253906 94.386719 C 778.140625 93.722656 777.25 93.054688 776.140625 92.386719 C 755.460938 78.15625 746.125 55.699219 755.238281 42.136719 C 753.015625 44.582031 750.792969 47.695312 748.570312 51.699219 C 740.789062 65.929688 748.792969 87.71875 769.46875 102.167969 Z M 769.46875 102.167969 " fill-opacity="1" fill-rule="nonzero"/></g></svg>