<svg xmlns="http://www.w3.org/2000/svg" xmlns:xlink="http://www.w3.org/1999/xlink" width="1920" zoomAndPan="magnify" viewBox="0 0 1440 809.999993" height="1080" preserveAspectRatio="xMidYMid meet" version="1.0"><defs><clipPath id="58ce5c9530"><path d="M 338.605469 23.605469 L 1101.355469 23.605469 L 1101.355469 786.355469 L 338.605469 786.355469 Z M 338.605469 23.605469 " clip-rule="nonzero"/></clipPath></defs><path fill="#eb8525" d="M 720.019531 232.464844 L 955.839844 368.609375 L 955.839844 640.949219 L 720.019531 777.097656 L 484.203125 640.949219 L 484.203125 368.609375 Z M 720.019531 232.464844 " fill-opacity="1" fill-rule="evenodd"/><path fill="#eb8525" d="M 436.078125 451.976562 L 484.207031 368.613281 L 720.023438 504.761719 L 671.894531 588.121094 Z M 436.078125 451.976562 " fill-opacity="1" fill-rule="nonzero"/><path fill="#eb8525" d="M 720.015625 504.761719 L 955.835938 368.613281 L 1003.964844 451.976562 L 768.144531 588.125 Z M 720.015625 504.761719 " fill-opacity="1" fill-rule="nonzero"/><path fill="#eb8525" d="M 720.019531 98.339844 L 869.921875 184.871094 L 869.921875 357.976562 L 720.019531 444.507812 L 570.117188 357.976562 L 570.117188 184.871094 Z M 720.019531 98.339844 " fill-opacity="1" fill-rule="evenodd"/><path fill="#ffffff" d="M 669.085938 242 L 739.09375 201.570312 L 692.554688 170.71875 L 619.074219 213.125 Z M 669.085938 242 " fill-opacity="1" fill-rule="evenodd"/><path fill="#ffffff" d="M 669.085938 242 L 669.085938 322.863281 L 619.074219 297.988281 L 619.074219 213.125 Z M 669.085938 242 " fill-opacity="1" fill-rule="evenodd"/><path fill="#253a5b" d="M 961.949219 32.902344 L 961.949219 161.929688 L 918.574219 161.929688 L 1005.324219 271.136719 L 1092.074219 161.929688 L 1048.699219 161.929688 L 1048.699219 32.902344 Z M 961.949219 32.902344 " fill-opacity="1" fill-rule="nonzero"/><path fill="#253a5b" d="M 391.296875 32.902344 L 391.296875 161.929688 L 347.921875 161.929688 L 434.675781 271.136719 L 521.46875 161.929688 L 478.09375 161.929688 L 478.09375 32.902344 Z M 391.296875 32.902344 " fill-opacity="1" fill-rule="nonzero"/><g clip-path="url(#58ce5c9530)"><path fill="#253a5b" d="M 479.542969 648.996094 L 715.363281 785.144531 C 715.386719 785.15625 715.417969 785.167969 715.441406 785.183594 C 715.769531 785.367188 716.105469 785.535156 716.457031 785.679688 C 716.484375 785.691406 716.515625 785.703125 716.542969 785.714844 C 716.855469 785.839844 717.179688 785.945312 717.507812 786.039062 C 717.601562 786.0625 717.695312 786.085938 717.789062 786.109375 C 718.0625 786.179688 718.34375 786.234375 718.625 786.273438 C 718.722656 786.289062 718.816406 786.308594 718.914062 786.320312 C 719.277344 786.363281 719.644531 786.390625 720.019531 786.390625 C 720.398438 786.390625 720.765625 786.363281 721.128906 786.320312 C 721.226562 786.308594 721.320312 786.289062 721.417969 786.273438 C 721.699219 786.230469 721.976562 786.179688 722.253906 786.109375 C 722.347656 786.085938 722.441406 786.0625 722.535156 786.039062 C 722.863281 785.945312 723.1875 785.839844 723.5 785.714844 C 723.527344 785.703125 723.558594 785.691406 723.585938 785.679688 C 723.9375 785.535156 724.273438 785.367188 724.601562 785.183594 C 724.625 785.167969 724.652344 785.15625 724.679688 785.144531 L 960.496094 648.996094 C 963.378906 647.332031 965.15625 644.257812 965.15625 640.925781 L 965.15625 485.117188 L 1008.621094 460.023438 C 1010.761719 458.789062 1012.320312 456.753906 1012.960938 454.367188 C 1013.601562 451.980469 1013.265625 449.4375 1012.03125 447.296875 L 963.90625 363.972656 C 963.890625 363.945312 963.871094 363.917969 963.855469 363.890625 C 963.75 363.71875 963.640625 363.550781 963.523438 363.382812 C 963.464844 363.292969 963.40625 363.199219 963.339844 363.113281 C 963.230469 362.960938 963.109375 362.816406 962.988281 362.671875 C 962.910156 362.578125 962.832031 362.476562 962.75 362.386719 C 962.644531 362.269531 962.527344 362.15625 962.414062 362.046875 C 962.308594 361.9375 962.203125 361.828125 962.089844 361.726562 C 961.992188 361.636719 961.890625 361.558594 961.789062 361.472656 C 961.648438 361.359375 961.507812 361.242188 961.363281 361.132812 C 961.273438 361.066406 961.175781 361.003906 961.082031 360.941406 C 960.917969 360.832031 960.753906 360.722656 960.585938 360.621094 C 960.554688 360.601562 960.527344 360.582031 960.5 360.566406 L 879.238281 313.636719 L 879.238281 184.96875 C 879.242188 184.566406 879.214844 184.164062 879.164062 183.761719 C 879.15625 183.679688 879.140625 183.601562 879.128906 183.519531 C 879.085938 183.214844 879.023438 182.914062 878.945312 182.609375 C 878.929688 182.535156 878.914062 182.464844 878.894531 182.390625 C 878.792969 182.03125 878.675781 181.671875 878.527344 181.320312 C 878.523438 181.308594 878.515625 181.296875 878.511719 181.285156 C 878.398438 181.015625 878.273438 180.746094 878.132812 180.484375 C 878.105469 180.433594 878.070312 180.386719 878.042969 180.335938 C 877.988281 180.242188 877.929688 180.148438 877.871094 180.054688 C 877.730469 179.820312 877.582031 179.59375 877.421875 179.378906 C 877.359375 179.292969 877.296875 179.210938 877.234375 179.128906 C 877.027344 178.867188 876.8125 178.621094 876.585938 178.386719 C 876.558594 178.359375 876.535156 178.328125 876.507812 178.300781 C 876.238281 178.03125 875.953125 177.78125 875.65625 177.550781 C 875.601562 177.507812 875.542969 177.472656 875.488281 177.429688 C 875.242188 177.246094 874.980469 177.074219 874.714844 176.914062 C 874.667969 176.886719 874.628906 176.851562 874.582031 176.824219 L 724.679688 90.246094 C 721.796875 88.582031 718.246094 88.582031 715.363281 90.246094 L 565.457031 176.824219 C 565.433594 176.835938 565.414062 176.855469 565.390625 176.871094 C 565.0625 177.0625 564.746094 177.269531 564.445312 177.503906 C 564.421875 177.519531 564.40625 177.535156 564.382812 177.550781 C 564.113281 177.761719 563.855469 177.992188 563.609375 178.234375 C 563.539062 178.300781 563.476562 178.371094 563.410156 178.4375 C 563.210938 178.644531 563.023438 178.859375 562.84375 179.085938 C 562.785156 179.160156 562.722656 179.234375 562.667969 179.308594 C 562.445312 179.601562 562.238281 179.90625 562.050781 180.234375 C 561.859375 180.558594 561.703125 180.894531 561.554688 181.230469 C 561.519531 181.316406 561.488281 181.40625 561.457031 181.492188 C 561.347656 181.761719 561.253906 182.039062 561.175781 182.316406 C 561.148438 182.402344 561.125 182.488281 561.101562 182.578125 C 561.011719 182.921875 560.941406 183.269531 560.890625 183.617188 C 560.890625 183.632812 560.886719 183.648438 560.882812 183.667969 C 560.832031 184.050781 560.808594 184.433594 560.808594 184.816406 C 560.808594 184.839844 560.800781 184.867188 560.800781 184.890625 L 560.800781 313.636719 L 479.542969 360.566406 C 479.515625 360.582031 479.488281 360.601562 479.460938 360.617188 C 479.285156 360.71875 479.117188 360.835938 478.949219 360.949219 C 478.859375 361.011719 478.769531 361.066406 478.683594 361.128906 C 478.53125 361.242188 478.386719 361.363281 478.242188 361.484375 C 478.144531 361.5625 478.046875 361.640625 477.953125 361.722656 C 477.839844 361.828125 477.730469 361.941406 477.617188 362.050781 C 477.507812 362.164062 477.394531 362.269531 477.292969 362.386719 C 477.207031 362.476562 477.128906 362.578125 477.050781 362.675781 C 476.929688 362.820312 476.8125 362.960938 476.699219 363.113281 C 476.636719 363.199219 476.578125 363.292969 476.515625 363.382812 C 476.402344 363.550781 476.289062 363.71875 476.1875 363.890625 C 476.171875 363.917969 476.152344 363.945312 476.132812 363.972656 L 428.011719 447.296875 C 426.777344 449.4375 426.441406 451.980469 427.082031 454.367188 C 427.71875 456.753906 429.28125 458.789062 431.421875 460.023438 L 474.886719 485.117188 L 474.886719 640.925781 C 474.886719 644.257812 476.660156 647.332031 479.542969 648.996094 Z M 493.519531 495.875 L 667.242188 596.171875 C 668.707031 597.019531 670.308594 597.421875 671.890625 597.421875 C 675.109375 597.421875 678.242188 595.75 679.96875 592.761719 L 710.703125 539.539062 L 710.703125 760.9375 L 493.519531 635.546875 Z M 946.523438 635.546875 L 729.335938 760.9375 L 729.335938 539.542969 L 760.074219 592.761719 C 761.800781 595.75 764.929688 597.421875 768.152344 597.421875 C 769.730469 597.421875 771.332031 597.019531 772.800781 596.171875 L 946.523438 495.875 Z M 951.460938 471.507812 C 951.371094 471.554688 951.289062 471.609375 951.199219 471.660156 L 771.550781 575.378906 L 732.75 508.191406 L 952.429688 381.359375 L 991.234375 448.546875 Z M 579.433594 201.027344 L 609.757812 218.53125 L 609.757812 298.011719 C 609.757812 301.546875 611.761719 304.777344 614.925781 306.351562 L 664.9375 331.226562 C 666.25 331.878906 667.667969 332.199219 669.085938 332.199219 C 670.792969 332.199219 672.496094 331.730469 673.992188 330.804688 C 676.734375 329.105469 678.402344 326.109375 678.402344 322.882812 L 678.402344 258.15625 L 705.460938 273.777344 L 710.195312 428.097656 L 579.433594 352.574219 Z M 628.390625 229.289062 L 659.769531 247.402344 L 659.769531 307.84375 L 628.390625 292.238281 Z M 637.703125 213.148438 L 692.214844 181.652344 L 721.417969 201.039062 L 669.085938 231.261719 Z M 728.855469 428.667969 L 724.105469 273.78125 L 860.605469 200.46875 L 860.605469 352.574219 Z M 720.019531 109.074219 L 850.78125 184.59375 L 714.777344 257.640625 L 687.71875 242.019531 L 743.753906 209.660156 C 746.546875 208.046875 748.304688 205.105469 748.40625 201.878906 C 748.507812 198.660156 746.933594 195.613281 744.246094 193.828125 L 697.707031 162.933594 C 694.761719 160.976562 690.957031 160.859375 687.894531 162.628906 L 619.070312 202.390625 L 588.75 184.890625 Z M 565.457031 366.023438 L 715.363281 452.597656 C 715.394531 452.617188 715.433594 452.628906 715.464844 452.648438 C 716.113281 453.011719 716.804688 453.296875 717.53125 453.5 C 717.613281 453.523438 717.699219 453.542969 717.78125 453.5625 C 718.0625 453.632812 718.351562 453.691406 718.644531 453.734375 C 718.734375 453.746094 718.824219 453.761719 718.914062 453.773438 C 719.277344 453.816406 719.644531 453.84375 720.015625 453.84375 L 720.023438 453.84375 C 720.117188 453.84375 720.210938 453.84375 720.304688 453.839844 C 720.605469 453.832031 720.902344 453.804688 721.195312 453.769531 C 721.207031 453.769531 721.21875 453.769531 721.230469 453.765625 C 721.609375 453.71875 721.976562 453.640625 722.339844 453.546875 C 722.414062 453.527344 722.488281 453.503906 722.5625 453.484375 C 722.859375 453.398438 723.148438 453.300781 723.429688 453.191406 C 723.511719 453.160156 723.589844 453.128906 723.667969 453.09375 C 724.035156 452.9375 724.394531 452.765625 724.734375 452.566406 L 874.582031 366.023438 C 877.464844 364.359375 879.238281 361.28125 879.238281 357.953125 L 879.238281 335.15625 L 937.207031 368.632812 L 720.019531 494.023438 L 502.835938 368.632812 L 560.800781 335.15625 L 560.800781 357.953125 C 560.800781 361.28125 562.578125 364.359375 565.460938 366.023438 Z M 487.609375 381.359375 L 707.292969 508.191406 L 668.492188 575.378906 L 488.828125 471.652344 C 488.746094 471.605469 488.667969 471.554688 488.585938 471.511719 L 448.808594 448.546875 Z M 1100.464844 157.855469 C 1098.910156 154.636719 1095.648438 152.589844 1092.074219 152.589844 L 1058.015625 152.589844 L 1058.015625 32.921875 C 1058.015625 27.777344 1053.84375 23.605469 1048.699219 23.605469 L 961.949219 23.605469 C 956.804688 23.605469 952.632812 27.777344 952.632812 32.921875 L 952.632812 152.589844 L 918.574219 152.589844 C 914.996094 152.589844 911.738281 154.636719 910.183594 157.855469 C 908.628906 161.074219 909.054688 164.902344 911.277344 167.699219 L 998.027344 276.953125 C 999.792969 279.179688 1002.480469 280.476562 1005.324219 280.476562 C 1008.164062 280.476562 1010.851562 279.179688 1012.621094 276.953125 L 1099.371094 167.699219 C 1101.59375 164.902344 1102.019531 161.074219 1100.464844 157.855469 Z M 1005.324219 256.175781 L 937.867188 171.222656 L 961.949219 171.222656 C 967.09375 171.222656 971.265625 167.050781 971.265625 161.90625 L 971.265625 42.238281 L 1039.382812 42.238281 L 1039.382812 161.90625 C 1039.382812 167.050781 1043.554688 171.222656 1048.699219 171.222656 L 1072.78125 171.222656 Z M 434.671875 280.476562 L 434.675781 280.476562 C 437.515625 280.476562 440.203125 279.179688 441.96875 276.953125 L 528.765625 167.703125 C 530.988281 164.902344 531.414062 161.078125 529.859375 157.855469 C 528.304688 154.636719 525.042969 152.589844 521.46875 152.589844 L 487.410156 152.589844 L 487.410156 32.921875 C 487.410156 27.777344 483.238281 23.605469 478.09375 23.605469 L 391.296875 23.605469 C 386.152344 23.605469 381.980469 27.777344 381.980469 32.921875 L 381.980469 152.589844 L 347.921875 152.589844 C 344.347656 152.589844 341.089844 154.636719 339.53125 157.855469 C 337.976562 161.074219 338.402344 164.902344 340.628906 167.699219 L 427.378906 276.953125 C 429.144531 279.179688 431.832031 280.476562 434.671875 280.476562 Z M 391.296875 171.222656 C 396.445312 171.222656 400.613281 167.050781 400.613281 161.90625 L 400.613281 42.238281 L 468.777344 42.238281 L 468.777344 161.90625 C 468.777344 167.050781 472.949219 171.222656 478.09375 171.222656 L 502.167969 171.222656 L 434.675781 256.179688 L 367.21875 171.222656 Z M 391.296875 171.222656 " fill-opacity="1" fill-rule="nonzero"/></g></svg>