<svg xmlns="http://www.w3.org/2000/svg" xmlns:xlink="http://www.w3.org/1999/xlink" width="1920" zoomAndPan="magnify" viewBox="0 0 1440 809.999993" height="1080" preserveAspectRatio="xMidYMid meet" version="1.0"><defs><clipPath id="05fce89d47"><path d="M 871 26 L 1070.90625 26 L 1070.90625 199 L 871 199 Z M 871 26 " clip-rule="nonzero"/></clipPath><clipPath id="a01f150fa3"><path d="M 368.90625 33 L 976 33 L 976 783 L 368.90625 783 Z M 368.90625 33 " clip-rule="nonzero"/></clipPath></defs><g clip-path="url(#05fce89d47)"><path fill="#253a5b" d="M 908.355469 27.507812 C 908.355469 28.125 907.117188 28.742188 904.957031 29.359375 C 902.796875 29.976562 900.324219 30.285156 898.164062 29.976562 C 896.003906 29.667969 894.148438 30.285156 892.914062 31.519531 C 891.679688 32.757812 890.136719 33.066406 888.59375 32.449219 C 887.664062 32.140625 887.046875 31.828125 886.121094 31.519531 C 885.8125 32.449219 885.503906 33.066406 885.195312 33.992188 C 884.578125 35.535156 883.652344 36.460938 882.417969 36.460938 C 881.179688 36.460938 879.019531 38.003906 876.242188 41.402344 C 873.460938 44.800781 871.917969 47.269531 871.917969 49.738281 C 871.917969 51.902344 872.84375 54.0625 874.386719 55.605469 C 875.933594 57.152344 879.636719 58.386719 884.886719 59.003906 C 890.136719 59.621094 894.148438 59.621094 896.003906 58.386719 C 897.855469 57.460938 899.398438 57.148438 900.945312 57.769531 C 902.179688 58.386719 903.722656 58.386719 905.265625 57.148438 C 906.808594 56.222656 908.664062 56.222656 911.132812 57.769531 C 913.292969 59.003906 915.457031 59.3125 917.308594 58.386719 C 919.160156 57.460938 922.25 57.148438 925.953125 57.460938 C 929.96875 57.769531 931.820312 58.386719 931.820312 59.003906 C 931.820312 59.3125 931.820312 59.621094 931.820312 59.929688 C 933.058594 59.621094 934.292969 59.3125 935.835938 59.003906 C 938.304688 58.386719 940.160156 58.386719 941.085938 59.003906 C 942.011719 59.621094 944.480469 59.929688 948.804688 59.929688 C 953.128906 59.929688 955.289062 60.238281 955.597656 60.855469 C 955.90625 61.472656 957.449219 61.78125 960.539062 61.472656 C 963.316406 61.164062 965.171875 61.164062 965.480469 62.089844 C 965.789062 62.707031 967.949219 63.324219 971.65625 63.945312 C 973.507812 64.253906 975.667969 64.5625 977.523438 64.871094 C 977.214844 65.179688 977.214844 65.488281 976.90625 65.796875 C 976.59375 66.105469 976.59375 66.414062 976.285156 66.722656 C 976.90625 67.03125 977.214844 67.03125 977.832031 67.339844 C 978.757812 67.648438 981.226562 67.957031 984.933594 68.265625 C 988.945312 68.574219 991.109375 69.5 992.035156 70.738281 C 992.960938 71.972656 994.195312 72.589844 995.429688 72.28125 C 996.050781 71.972656 996.667969 71.972656 997.285156 71.664062 C 997.285156 72.28125 997.285156 72.589844 997.285156 73.207031 C 997.285156 73.824219 997.285156 74.132812 997.285156 74.75 C 998.519531 74.75 999.753906 74.75 1001.296875 74.75 C 1003.769531 74.75 1006.238281 75.367188 1008.402344 76.605469 C 1010.5625 77.839844 1012.414062 79.382812 1013.339844 80.925781 C 1014.265625 82.46875 1016.121094 83.707031 1019.207031 84.941406 C 1021.988281 85.867188 1026 88.957031 1030.941406 93.585938 C 1035.882812 98.527344 1038.660156 102.542969 1039.585938 106.246094 C 1040.515625 109.644531 1040.824219 111.804688 1040.207031 112.113281 C 1039.585938 112.421875 1038.96875 114.277344 1038.660156 117.363281 C 1038.351562 120.453125 1037.117188 122.613281 1034.648438 123.230469 C 1032.484375 123.847656 1031.25 124.773438 1031.25 126.007812 C 1031.25 127.246094 1030.632812 128.480469 1029.398438 130.023438 C 1028.164062 131.257812 1026.617188 131.875 1024.457031 131.875 C 1022.296875 131.875 1021.058594 132.492188 1020.132812 133.421875 C 1019.207031 134.347656 1017.664062 134.65625 1015.8125 134.039062 C 1014.886719 133.730469 1013.957031 133.421875 1013.03125 133.113281 C 1013.339844 133.730469 1013.339844 134.039062 1013.648438 134.65625 C 1013.957031 135.582031 1013.648438 136.507812 1012.722656 137.125 C 1011.796875 137.742188 1009.636719 138.667969 1005.929688 139.597656 C 1002.535156 140.523438 999.753906 140.832031 997.59375 140.214844 C 996.667969 139.90625 995.742188 139.597656 994.8125 139.285156 C 994.8125 139.90625 994.8125 140.214844 994.8125 140.832031 C 994.8125 141.449219 994.8125 141.757812 994.8125 142.375 C 992.34375 142.375 989.875 142.375 987.710938 142.375 C 985.242188 142.375 982.769531 142.375 980.609375 142.375 C 980.609375 142.992188 980.609375 143.300781 980.609375 143.917969 C 980.609375 144.535156 980.609375 144.84375 980.609375 145.460938 C 979.375 145.152344 978.449219 145.152344 977.214844 144.84375 C 975.976562 144.535156 975.050781 144.535156 973.816406 144.226562 C 973.816406 144.84375 973.816406 145.152344 973.816406 145.773438 C 973.816406 146.390625 973.816406 146.699219 973.816406 147.316406 C 972.582031 147.316406 971.347656 147.316406 969.800781 147.316406 C 968.566406 147.316406 967.332031 147.316406 965.789062 147.316406 C 965.789062 147.933594 965.789062 148.242188 965.789062 148.859375 C 965.789062 149.476562 965.789062 149.785156 965.789062 150.402344 C 963.933594 150.09375 962.390625 150.09375 960.539062 149.785156 C 957.140625 149.476562 954.980469 149.785156 954.363281 150.710938 C 953.746094 151.636719 951.894531 152.257812 949.113281 152.257812 C 946.335938 152.257812 944.480469 152.875 943.863281 154.109375 C 943.246094 155.34375 941.703125 155.960938 938.925781 155.960938 C 936.144531 155.960938 934.292969 156.578125 932.75 157.8125 C 931.203125 159.050781 928.734375 159.976562 925.953125 160.59375 C 923.175781 161.210938 921.324219 162.445312 920.707031 163.988281 C 920.089844 165.535156 918.234375 166.460938 915.457031 166.460938 C 913.914062 166.460938 912.675781 166.460938 911.132812 166.460938 C 911.441406 167.078125 911.441406 167.695312 911.75 168.3125 C 912.058594 169.546875 911.132812 171.402344 909.28125 174.179688 C 907.429688 176.648438 905.574219 178.503906 904.03125 179.121094 C 903.105469 179.429688 902.488281 179.738281 901.5625 180.046875 C 901.871094 180.355469 902.179688 180.355469 902.488281 180.664062 C 903.105469 180.972656 903.414062 183.132812 903.414062 186.839844 C 903.414062 190.855469 904.03125 193.324219 905.265625 195.175781 C 906.5 196.722656 909.589844 197.957031 913.914062 198.574219 C 918.542969 199.191406 921.941406 198.265625 924.101562 196.101562 C 926.265625 193.941406 928.117188 192.707031 929.351562 192.707031 C 930.585938 192.707031 931.511719 192.089844 932.128906 190.855469 C 932.75 189.617188 935.527344 188.382812 940.777344 186.839844 C 946.027344 185.605469 949.421875 184.0625 950.964844 182.515625 C 952.511719 180.972656 958.996094 179.121094 970.421875 177.265625 C 981.535156 175.414062 987.710938 173.871094 988.328125 172.945312 C 988.945312 172.019531 990.183594 171.710938 991.726562 172.328125 C 993.269531 172.945312 994.195312 172.945312 994.503906 172.328125 C 994.8125 171.710938 996.050781 171.402344 998.519531 171.402344 C 1000.679688 171.402344 1001.917969 170.78125 1002.535156 169.855469 C 1003.152344 168.929688 1003.769531 168.621094 1005.003906 168.929688 C 1006.238281 169.238281 1007.164062 169.238281 1007.472656 168.3125 C 1007.78125 167.695312 1009.945312 167.078125 1014.265625 166.769531 C 1018.589844 166.460938 1021.0625 165.84375 1021.988281 164.917969 C 1022.914062 163.988281 1024.765625 163.371094 1027.855469 163.0625 C 1030.632812 162.753906 1033.101562 161.828125 1034.648438 160.285156 C 1036.191406 158.742188 1039.589844 156.886719 1044.21875 155.035156 C 1048.851562 153.183594 1051.320312 151.636719 1051.320312 150.09375 C 1051.320312 148.859375 1052.246094 147.625 1054.101562 146.699219 C 1055.027344 146.082031 1055.953125 145.773438 1056.878906 145.152344 C 1056.570312 144.84375 1056.570312 144.535156 1056.261719 144.226562 C 1055.953125 143.917969 1055.953125 143.609375 1055.644531 143.300781 C 1056.878906 142.992188 1057.804688 142.683594 1059.042969 142.375 C 1061.203125 141.757812 1063.363281 138.050781 1064.90625 131.875 C 1066.453125 125.390625 1067.996094 121.996094 1069.230469 121.378906 C 1070.464844 120.761719 1071.082031 117.054688 1070.773438 110.261719 C 1070.464844 103.46875 1069.539062 99.761719 1067.996094 99.144531 C 1066.453125 98.527344 1065.835938 97.292969 1066.144531 95.75 C 1066.453125 94.203125 1065.835938 92.351562 1064.289062 89.882812 C 1062.746094 87.71875 1062.128906 85.558594 1062.4375 84.015625 C 1062.746094 83.089844 1062.746094 82.46875 1063.054688 81.542969 C 1062.128906 81.542969 1061.511719 81.542969 1060.585938 81.542969 C 1059.042969 81.542969 1058.113281 80.925781 1057.804688 80 C 1057.496094 79.074219 1056.878906 78.457031 1055.953125 78.457031 C 1055.335938 78.457031 1055.027344 78.457031 1054.410156 78.457031 C 1054.410156 77.839844 1054.410156 77.53125 1054.410156 76.914062 C 1054.410156 75.984375 1053.484375 74.75 1051.628906 72.898438 C 1049.777344 71.355469 1048.851562 70.121094 1049.160156 69.5 C 1049.46875 69.191406 1049.46875 68.882812 1049.777344 68.574219 C 1049.160156 68.265625 1048.542969 68.265625 1047.925781 67.957031 C 1046.691406 67.648438 1045.453125 66.414062 1043.910156 63.945312 C 1042.675781 61.78125 1040.824219 60.546875 1038.042969 60.546875 C 1035.574219 60.546875 1032.792969 59.3125 1030.324219 56.53125 C 1027.855469 54.0625 1025.382812 52.519531 1023.53125 52.519531 C 1021.679688 52.519531 1020.441406 51.902344 1019.515625 50.664062 C 1018.898438 49.429688 1017.355469 48.503906 1015.195312 48.195312 C 1013.03125 47.886719 1011.488281 47.269531 1010.871094 46.34375 C 1010.253906 45.417969 1006.855469 44.179688 1001.296875 42.945312 C 995.433594 41.710938 992.035156 40.476562 991.109375 38.933594 C 990.183594 37.695312 988.636719 37.078125 986.167969 37.386719 C 984.007812 37.695312 982.773438 37.386719 982.152344 36.460938 C 981.84375 35.535156 980.300781 34.917969 977.832031 34.917969 C 975.359375 34.917969 973.199219 34.300781 971.964844 33.375 C 970.730469 32.449219 967.949219 32.140625 964.246094 32.449219 C 962.390625 32.757812 960.230469 32.757812 958.378906 33.066406 C 958.378906 32.449219 958.378906 32.140625 958.378906 31.519531 C 958.378906 30.902344 958.378906 30.59375 958.378906 29.976562 C 956.832031 30.285156 955.597656 30.59375 954.054688 30.902344 C 951.277344 31.519531 949.421875 31.519531 948.804688 30.902344 C 948.1875 30.285156 946.644531 29.976562 944.480469 29.976562 C 942.320312 29.976562 940.46875 29.359375 939.542969 28.433594 C 938.617188 27.507812 936.761719 26.890625 933.675781 26.890625 C 930.894531 26.890625 929.042969 27.199219 928.425781 27.816406 C 927.808594 28.433594 924.410156 28.433594 918.234375 27.816406 C 915.148438 27.507812 912.058594 27.199219 908.972656 26.890625 C 908.355469 26.582031 908.355469 27.199219 908.355469 27.507812 Z M 908.355469 27.507812 " fill-opacity="1" fill-rule="nonzero"/></g><g clip-path="url(#a01f150fa3)"><path fill="#253a5b" d="M 702.703125 34.609375 C 702.085938 35.535156 700.851562 35.84375 699.308594 35.226562 C 697.761719 34.609375 696.527344 34.609375 695.292969 35.84375 C 694.367188 36.769531 693.132812 37.078125 691.894531 36.460938 C 690.660156 35.84375 689.117188 36.152344 687.574219 37.386719 C 686.03125 38.625 684.792969 38.933594 684.175781 38.316406 C 683.558594 37.695312 682.015625 37.695312 679.855469 38.933594 C 677.691406 39.859375 675.53125 40.167969 673.988281 39.550781 C 672.441406 38.933594 668.738281 39.859375 663.488281 42.019531 C 657.929688 44.179688 653.914062 45.109375 651.445312 44.800781 C 648.976562 44.492188 647.429688 45.109375 647.121094 46.34375 C 646.8125 46.960938 646.8125 47.578125 646.503906 48.195312 C 645.886719 47.886719 645.269531 47.886719 644.652344 47.578125 C 643.417969 47.269531 638.167969 49.738281 628.59375 55.296875 C 619.332031 60.855469 614.390625 63.324219 613.773438 62.398438 C 613.15625 61.78125 611.921875 61.78125 609.757812 62.398438 C 607.90625 63.015625 606.363281 64.253906 605.4375 66.414062 C 604.511719 68.265625 602.65625 69.5 600.1875 69.8125 C 597.71875 70.121094 596.171875 70.738281 596.171875 71.664062 C 596.171875 72.589844 594.628906 74.132812 591.851562 75.984375 C 589.070312 77.839844 586.910156 80 585.984375 81.851562 C 585.058594 83.707031 583.820312 84.632812 581.96875 84.324219 C 580.425781 84.015625 578.882812 84.632812 577.644531 85.867188 C 576.410156 87.101562 575.484375 88.644531 575.175781 90.808594 C 574.867188 92.660156 573.324219 94.203125 570.234375 95.75 C 567.457031 96.984375 565.601562 98.835938 564.984375 100.996094 C 564.367188 103.160156 563.441406 104.394531 562.515625 104.394531 C 561.589844 104.394531 560.664062 105.320312 559.738281 107.171875 C 558.808594 109.027344 557.882812 110.261719 556.957031 110.570312 C 556.03125 110.878906 555.414062 111.804688 555.414062 113.039062 C 555.414062 114.277344 554.488281 115.511719 552.941406 117.054688 C 551.398438 118.289062 550.472656 119.523438 550.472656 121.070312 C 550.472656 122.304688 550.164062 123.230469 549.546875 123.847656 C 548.929688 124.464844 548.003906 124.773438 547.078125 124.464844 C 546.457031 124.15625 546.148438 124.15625 545.53125 123.847656 C 545.53125 125.082031 545.53125 126.316406 545.53125 127.863281 C 545.53125 130.332031 544.605469 132.492188 543.0625 134.039062 C 541.519531 135.582031 540.902344 137.433594 541.210938 139.90625 C 541.519531 142.066406 541.210938 143.300781 540.28125 143.917969 C 539.355469 144.535156 538.738281 145.152344 538.738281 146.390625 C 538.738281 147.625 537.8125 149.167969 536.269531 151.328125 C 534.726562 153.183594 534.105469 155.652344 534.726562 158.121094 C 535.035156 159.359375 535.34375 160.59375 535.652344 162.136719 C 535.035156 162.136719 534.726562 162.136719 534.105469 162.136719 C 533.488281 162.136719 533.179688 162.136719 532.5625 162.136719 C 532.871094 163.371094 532.871094 164.609375 533.179688 166.152344 C 533.488281 168.621094 533.179688 170.472656 532.253906 171.402344 C 531.328125 172.328125 530.710938 174.179688 530.402344 177.269531 C 530.09375 180.046875 530.09375 182.207031 531.019531 183.441406 C 531.328125 184.0625 531.636719 184.679688 531.945312 185.296875 C 531.636719 185.605469 531.328125 185.605469 531.019531 185.914062 C 530.402344 186.222656 530.09375 187.765625 530.402344 190.238281 C 530.710938 192.707031 530.710938 195.175781 529.785156 197.339844 C 529.476562 198.574219 529.167969 199.5 528.859375 200.734375 C 529.167969 200.734375 529.476562 200.734375 529.785156 200.734375 C 530.09375 200.734375 530.402344 200.734375 530.710938 200.734375 C 530.402344 201.96875 530.402344 202.898438 530.09375 204.132812 C 529.785156 206.292969 530.402344 208.453125 531.636719 210 C 532.871094 211.542969 533.179688 214.011719 532.5625 216.792969 C 531.945312 219.570312 532.253906 221.734375 534.105469 222.660156 C 535.652344 223.585938 536.886719 226.671875 537.503906 231.921875 C 538.121094 237.171875 539.972656 241.496094 542.753906 245.507812 C 545.53125 249.523438 547.386719 252.609375 547.695312 255.082031 C 548.003906 257.550781 548.621094 259.09375 549.546875 259.402344 C 550.472656 259.714844 551.398438 260.949219 552.015625 262.800781 C 552.324219 263.726562 552.632812 264.652344 552.941406 265.578125 C 553.253906 265.269531 553.5625 265.269531 553.871094 264.960938 C 554.179688 264.652344 554.488281 264.652344 554.796875 264.34375 C 554.488281 264.960938 554.488281 265.578125 554.179688 266.199219 C 553.871094 267.433594 555.414062 269.285156 559.117188 271.445312 C 562.515625 273.609375 564.675781 275.769531 564.984375 277.621094 C 565.292969 278.550781 565.292969 279.476562 565.601562 280.402344 C 564.367188 280.09375 563.441406 280.09375 562.207031 279.785156 C 560.046875 279.476562 558.808594 279.476562 558.191406 280.402344 C 557.882812 281.019531 555.722656 281.328125 551.398438 281.328125 C 547.078125 281.328125 544.605469 281.636719 543.679688 282.253906 C 542.753906 282.871094 541.519531 282.871094 540.28125 282.253906 C 539.664062 281.945312 539.046875 281.636719 538.429688 281.328125 C 538.121094 281.945312 538.121094 282.253906 537.8125 282.871094 C 537.503906 283.796875 536.578125 284.414062 535.34375 284.722656 C 534.105469 285.035156 531.636719 285.34375 528.242188 285.34375 C 524.84375 285.34375 522.683594 285.652344 522.375 286.269531 C 522.066406 286.886719 520.519531 287.195312 517.433594 287.195312 C 514.652344 287.195312 512.800781 287.503906 512.492188 288.121094 C 512.183594 288.738281 510.332031 289.046875 507.242188 289.046875 C 505.699219 289.046875 504.15625 289.046875 502.300781 289.046875 C 502.300781 289.355469 502.300781 289.664062 502.300781 289.972656 C 502.300781 290.589844 501.066406 291.210938 498.289062 291.519531 C 495.816406 291.828125 491.496094 290.589844 485.628906 288.121094 C 479.761719 285.652344 474.820312 283.796875 470.804688 283.179688 C 466.484375 282.5625 463.394531 281.328125 461.234375 279.785156 C 459.074219 278.238281 455.058594 277.003906 449.191406 275.769531 C 443.324219 274.84375 439.3125 273.609375 436.53125 272.375 C 433.753906 271.136719 431.898438 270.519531 430.355469 270.828125 C 428.8125 271.136719 427.886719 270.828125 427.578125 269.902344 C 427.269531 269.285156 427.269531 268.976562 426.960938 268.359375 C 426.03125 268.667969 425.414062 268.976562 424.488281 269.285156 C 422.945312 269.902344 418.621094 269.59375 411.519531 268.359375 C 404.417969 267.125 400.402344 266.816406 398.859375 267.742188 C 397.625 268.667969 396.082031 268.976562 394.535156 268.359375 C 393.609375 268.050781 392.992188 267.742188 392.066406 267.433594 C 391.757812 268.050781 391.757812 268.359375 391.449219 268.976562 C 391.140625 269.59375 391.140625 269.902344 390.832031 270.519531 C 389.90625 270.210938 389.289062 269.902344 388.359375 269.59375 C 386.816406 268.976562 384.347656 269.902344 381.566406 272.375 C 378.789062 274.84375 376.320312 276.386719 374.773438 276.695312 C 373.230469 277.003906 371.6875 278.550781 370.453125 281.019531 C 369.214844 283.488281 368.597656 287.8125 368.90625 293.679688 C 369.214844 299.546875 370.761719 304.179688 373.230469 308.191406 C 375.699219 312.207031 377.863281 314.058594 379.097656 314.367188 C 380.332031 314.675781 381.257812 315.910156 381.875 317.765625 C 382.183594 318.691406 382.496094 319.617188 382.804688 320.542969 C 383.113281 320.234375 383.421875 320.234375 383.730469 319.925781 C 384.347656 319.617188 386.199219 320.542969 389.597656 322.707031 C 392.683594 324.867188 395.15625 326.101562 396.390625 326.101562 C 397.625 326.101562 398.859375 326.71875 399.785156 327.953125 C 400.710938 329.191406 401.949219 329.808594 403.800781 329.5 C 405.34375 329.191406 407.195312 330.117188 409.667969 332.277344 C 411.828125 334.4375 415.226562 335.675781 419.238281 335.675781 C 423.5625 335.675781 426.960938 336.601562 429.738281 338.453125 C 432.515625 340.304688 435.296875 341.230469 437.457031 341.230469 C 439.621094 341.230469 442.089844 341.851562 444.25 343.085938 C 446.414062 344.320312 448.265625 344.9375 449.5 344.628906 C 450.734375 344.320312 451.972656 344.9375 453.515625 346.171875 C 454.75 347.40625 456.292969 348.027344 457.835938 347.714844 C 459.382812 347.40625 461.234375 348.027344 463.703125 349.261719 C 465.867188 350.496094 468.027344 351.113281 469.878906 350.804688 C 471.734375 350.496094 473.585938 351.113281 475.128906 352.347656 C 476.671875 353.582031 478.835938 354.199219 481.304688 353.890625 C 483.777344 353.582031 488.097656 354.199219 494.273438 355.746094 C 500.449219 357.289062 506.007812 358.214844 510.640625 358.214844 C 515.582031 358.214844 520.519531 356.980469 525.460938 354.199219 C 530.710938 351.730469 534.417969 350.496094 536.578125 350.804688 C 538.738281 351.113281 541.828125 350.496094 545.839844 348.953125 C 549.855469 347.40625 552.941406 346.480469 556.03125 346.171875 C 558.808594 345.863281 560.664062 345.246094 560.972656 344.628906 C 561.28125 344.011719 562.207031 343.703125 563.75 344.011719 C 565.292969 344.320312 566.53125 344.320312 567.148438 343.394531 C 567.765625 342.777344 571.46875 341.851562 578.261719 340.921875 C 581.660156 340.304688 585.058594 339.996094 588.453125 339.378906 C 587.835938 339.996094 587.527344 340.304688 586.910156 340.921875 C 585.984375 341.851562 585.367188 343.394531 585.367188 345.863281 C 585.367188 348.027344 584.75 349.261719 583.511719 349.878906 C 582.277344 350.1875 581.042969 353.273438 579.5 359.449219 C 578.261719 365.625 577.027344 369.023438 575.484375 369.640625 C 574.25 370.257812 573.632812 371.183594 573.941406 372.109375 C 574.25 373.035156 573.941406 373.964844 573.015625 374.582031 C 572.085938 375.199219 571.160156 377.667969 570.542969 381.683594 C 569.925781 386.007812 569 388.167969 567.765625 388.785156 C 567.148438 389.09375 566.53125 389.402344 565.914062 389.710938 C 566.222656 390.019531 566.53125 390.328125 566.839844 390.636719 C 567.457031 391.253906 567.148438 393.417969 565.914062 396.8125 C 564.675781 400.210938 563.441406 402.371094 562.515625 402.679688 C 561.589844 402.988281 560.972656 404.222656 560.972656 406.695312 C 560.972656 408.855469 560.355469 410.089844 559.425781 410.707031 C 558.5 411.019531 558.191406 412.253906 558.5 414.105469 C 558.808594 415.957031 558.191406 418.429688 556.957031 420.898438 C 555.722656 423.367188 554.488281 427.382812 553.5625 432.632812 C 552.632812 437.882812 551.707031 440.351562 550.78125 440.351562 C 549.855469 440.351562 549.238281 440.96875 548.929688 441.894531 C 548.621094 442.824219 548.621094 443.75 549.546875 444.675781 C 550.164062 445.601562 549.855469 447.453125 548.621094 450.542969 C 547.386719 453.320312 546.765625 456.410156 546.765625 459.1875 C 546.765625 461.96875 546.148438 464.128906 544.914062 465.054688 C 543.679688 465.980469 542.753906 467.523438 542.136719 469.378906 C 541.519531 471.230469 541.210938 472.773438 541.519531 473.699219 C 541.828125 474.628906 541.210938 478.023438 539.664062 483.273438 C 538.121094 488.832031 537.503906 492.226562 537.8125 493.773438 C 538.121094 495.316406 537.503906 496.550781 536.269531 497.785156 C 535.652344 498.402344 535.035156 498.710938 534.417969 499.328125 C 534.726562 499.636719 535.035156 499.636719 535.34375 499.949219 C 535.960938 500.257812 536.269531 501.183594 536.269531 502.726562 C 536.269531 504.269531 535.652344 505.8125 534.417969 507.050781 C 533.796875 507.667969 533.179688 508.285156 532.5625 508.902344 C 532.871094 509.210938 533.179688 509.519531 533.488281 509.828125 C 534.105469 510.445312 534.417969 511.371094 534.417969 512.296875 C 534.417969 513.226562 533.796875 513.84375 532.871094 514.152344 C 532.253906 514.460938 531.945312 514.460938 531.328125 514.769531 C 531.636719 515.078125 531.945312 515.386719 532.253906 515.695312 C 532.871094 516.3125 533.179688 517.855469 532.871094 520.019531 C 532.5625 522.179688 531.636719 523.722656 530.402344 524.339844 C 529.785156 524.648438 529.167969 524.957031 528.550781 525.269531 C 528.859375 525.578125 529.167969 525.886719 529.476562 526.195312 C 530.09375 526.8125 530.402344 528.972656 530.09375 532.988281 C 529.785156 537 529.476562 539.472656 529.167969 540.707031 C 528.859375 541.941406 527.933594 543.175781 526.386719 544.105469 C 525.460938 544.722656 524.84375 545.03125 523.917969 545.648438 C 524.226562 545.957031 524.535156 546.265625 524.84375 546.574219 C 525.460938 547.191406 525.769531 548.425781 525.769531 550.589844 C 525.769531 552.75 525.152344 553.984375 524.226562 554.910156 C 523.300781 555.835938 522.992188 557.382812 523.609375 559.851562 C 524.226562 562.011719 523.917969 563.867188 522.066406 564.792969 C 521.136719 565.410156 520.519531 565.71875 519.59375 566.335938 C 520.210938 566.644531 520.519531 566.953125 521.136719 567.261719 C 522.066406 567.878906 522.375 569.113281 521.757812 570.660156 C 521.136719 572.203125 521.136719 573.4375 521.757812 574.671875 C 522.375 575.601562 522.066406 576.835938 520.210938 578.070312 C 518.667969 579.304688 518.359375 580.847656 519.285156 582.394531 C 519.902344 583.320312 520.210938 583.9375 520.828125 584.863281 C 520.210938 585.171875 519.902344 585.171875 519.285156 585.480469 C 518.359375 585.789062 518.050781 587.023438 518.359375 589.496094 C 518.667969 591.65625 518.050781 594.4375 516.816406 597.214844 C 515.582031 599.992188 514.960938 602.773438 515.273438 605.550781 C 515.582031 608.023438 515.582031 610.183594 514.652344 611.417969 C 514.035156 612.652344 514.035156 613.890625 514.652344 614.816406 C 515.273438 615.742188 515.273438 616.667969 514.035156 617.59375 C 512.800781 618.519531 512.492188 620.992188 512.492188 625.3125 C 512.492188 629.636719 512.183594 631.796875 511.566406 632.105469 C 510.949219 632.417969 510.949219 633.34375 511.566406 634.886719 C 512.183594 636.429688 512.492188 639.210938 512.183594 642.605469 C 511.875 646.003906 511.257812 647.855469 510.640625 647.855469 C 510.332031 647.855469 510.023438 647.855469 509.714844 647.855469 C 510.023438 649.398438 510.023438 650.632812 510.332031 652.179688 C 510.640625 654.957031 510.023438 656.808594 508.785156 657.425781 C 508.167969 657.734375 507.550781 658.046875 506.933594 658.355469 C 507.550781 658.664062 507.859375 658.972656 508.476562 659.28125 C 509.40625 659.898438 509.714844 662.367188 509.40625 666.382812 C 509.097656 670.707031 508.476562 672.867188 507.859375 673.484375 C 507.242188 674.101562 506.933594 674.71875 506.933594 675.335938 C 506.933594 675.644531 506.933594 675.953125 506.933594 676.261719 C 507.550781 676.261719 507.859375 676.261719 508.476562 676.261719 C 509.097656 676.261719 509.40625 676.261719 510.023438 676.261719 C 510.023438 680.277344 510.023438 684.292969 510.023438 688.304688 C 510.023438 696.335938 509.714844 701.582031 509.097656 704.363281 C 508.476562 706.832031 508.476562 708.6875 509.097656 709.304688 C 509.714844 709.921875 510.023438 712.390625 510.023438 716.40625 C 510.023438 720.726562 510.332031 722.890625 510.949219 723.199219 C 511.566406 723.507812 511.875 724.433594 511.566406 725.667969 C 511.257812 726.902344 511.875 730.609375 513.109375 736.785156 C 514.34375 742.960938 515.582031 746.667969 516.507812 748.519531 C 517.433594 750.0625 517.742188 751.296875 517.125 752.53125 C 516.507812 753.460938 517.433594 755.621094 519.59375 758.707031 C 521.757812 761.796875 522.992188 764.574219 523.609375 766.429688 C 523.917969 767.355469 523.917969 768.28125 524.226562 769.207031 C 524.535156 768.898438 524.84375 768.589844 525.152344 768.28125 C 525.460938 767.972656 525.769531 767.664062 526.078125 767.355469 C 526.078125 767.972656 526.078125 768.589844 526.078125 769.207031 C 526.078125 770.441406 526.695312 771.675781 527.933594 773.222656 C 529.167969 774.457031 530.710938 775.382812 532.871094 775.691406 C 534.726562 776 536.269531 776.925781 537.195312 778.160156 C 538.121094 779.398438 539.355469 780.324219 540.59375 780.632812 C 541.828125 780.941406 544.914062 781.25 549.855469 781.558594 C 554.796875 781.867188 557.574219 781.558594 558.5 780.632812 C 559.425781 779.707031 560.972656 779.089844 562.824219 779.089844 C 563.75 779.089844 564.675781 779.089844 565.601562 779.089844 C 565.292969 778.78125 565.292969 778.472656 564.984375 778.160156 C 564.675781 777.851562 564.675781 777.542969 564.367188 777.234375 C 565.292969 776.925781 566.222656 776.617188 567.148438 776.308594 C 569 775.691406 570.234375 774.457031 570.542969 772.296875 C 570.851562 770.441406 572.398438 768.28125 574.867188 766.121094 C 577.335938 763.957031 578.574219 762.105469 578.261719 760.871094 C 577.953125 759.636719 578.574219 758.398438 579.808594 757.472656 C 581.042969 756.546875 581.660156 755.003906 581.660156 753.152344 C 581.660156 751.296875 582.277344 748.828125 583.511719 746.355469 C 584.75 743.886719 585.367188 741.726562 585.058594 740.492188 C 584.75 739.253906 585.058594 738.019531 585.984375 737.09375 C 586.910156 736.167969 587.21875 734.316406 586.910156 731.226562 C 586.601562 729.683594 586.601562 728.449219 586.292969 726.902344 C 586.601562 726.902344 586.910156 726.902344 587.21875 726.902344 C 587.835938 726.902344 588.453125 724.433594 588.761719 719.183594 C 589.070312 713.933594 589.6875 710.230469 590.613281 708.066406 C 591.542969 705.90625 591.851562 702.820312 591.234375 698.804688 C 590.613281 694.789062 590.921875 690.46875 592.777344 685.21875 C 594.320312 679.96875 595.246094 674.71875 595.246094 668.851562 C 595.246094 666.074219 595.246094 662.984375 595.246094 660.207031 C 595.554688 660.207031 595.863281 660.207031 596.171875 660.207031 C 596.789062 660.207031 597.410156 656.5 598.027344 649.089844 C 598.644531 641.679688 599.570312 637.664062 600.496094 637.046875 C 601.113281 636.738281 601.421875 636.429688 602.039062 636.121094 C 601.730469 635.8125 601.421875 635.503906 601.113281 635.195312 C 600.496094 634.578125 600.496094 633.652344 601.113281 632.414062 C 601.730469 631.179688 601.730469 629.636719 601.113281 627.476562 C 600.496094 625.621094 600.496094 624.386719 601.730469 623.460938 C 602.65625 622.84375 603.273438 620.992188 603.273438 618.210938 C 603.273438 615.433594 603.582031 613.578125 604.203125 613.269531 C 604.820312 612.960938 605.4375 608.640625 605.746094 600.300781 C 606.054688 591.964844 607.289062 584.863281 609.140625 579.613281 C 610.996094 574.054688 612.539062 567.261719 613.464844 559.234375 C 614.390625 551.207031 615.625 545.648438 617.480469 542.867188 C 619.332031 540.089844 620.257812 534.222656 621.492188 525.886719 C 622.109375 521.5625 622.417969 517.546875 623.039062 513.226562 C 624.890625 514.460938 626.433594 515.386719 628.285156 516.621094 C 631.683594 518.78125 634.460938 520.019531 636.625 520.019531 C 637.550781 520.019531 638.476562 520.019531 639.402344 520.019531 C 639.402344 525.269531 639.402344 530.515625 639.402344 536.074219 C 639.402344 541.324219 639.402344 546.574219 639.402344 552.132812 C 639.710938 551.824219 640.019531 551.824219 640.328125 551.515625 C 640.636719 551.207031 640.945312 551.207031 641.253906 550.898438 C 641.566406 554.910156 641.566406 558.925781 641.875 562.9375 C 642.183594 570.96875 642.800781 575.289062 643.417969 575.597656 C 644.035156 575.910156 644.652344 580.847656 645.269531 590.421875 C 645.886719 599.992188 646.8125 606.167969 647.738281 608.332031 C 648.667969 610.492188 648.976562 612.960938 648.359375 615.125 C 647.738281 617.285156 647.738281 620.683594 648.976562 625.3125 C 649.902344 629.945312 650.828125 632.105469 651.445312 632.414062 C 652.0625 632.726562 652.679688 634.886719 652.988281 639.210938 C 653.296875 643.53125 653.914062 645.695312 654.535156 646.003906 C 655.152344 646.3125 655.460938 650.632812 655.460938 658.664062 C 655.460938 666.691406 655.769531 671.015625 656.386719 671.324219 C 657.003906 671.632812 657.3125 673.484375 657.3125 676.570312 C 657.3125 679.660156 657.929688 682.4375 658.855469 684.292969 C 659.78125 686.144531 660.089844 688.304688 659.78125 690.160156 C 659.472656 692.011719 659.78125 693.246094 660.710938 694.171875 C 661.636719 694.789062 661.945312 696.027344 661.328125 697.570312 C 660.710938 699.113281 660.710938 700.347656 661.945312 701.582031 C 662.871094 702.511719 663.488281 705.90625 663.796875 711.773438 C 664.105469 717.640625 665.03125 721.347656 666.265625 723.507812 C 667.503906 725.359375 667.8125 726.902344 667.195312 727.832031 C 666.886719 728.449219 666.574219 728.757812 666.265625 729.375 C 666.886719 729.375 667.195312 729.375 667.8125 729.375 C 668.429688 729.375 668.738281 729.375 669.355469 729.375 C 669.046875 730.300781 669.046875 731.226562 668.738281 732.152344 C 668.429688 733.078125 668.429688 734.007812 668.121094 734.933594 C 668.429688 734.933594 668.738281 734.933594 669.046875 734.933594 C 669.355469 734.933594 669.664062 734.933594 669.972656 734.933594 C 669.972656 736.167969 669.972656 737.402344 669.972656 738.945312 C 669.972656 741.417969 670.589844 743.578125 671.515625 744.8125 C 672.441406 746.046875 673.371094 748.519531 673.988281 751.914062 C 674.605469 755.3125 676.148438 758.398438 678.308594 760.5625 C 680.472656 762.722656 682.015625 764.882812 682.632812 766.738281 C 683.25 768.589844 684.792969 770.132812 687.574219 771.675781 C 688.808594 772.296875 690.042969 772.914062 691.585938 773.53125 C 691.277344 773.839844 690.96875 774.148438 690.660156 774.457031 C 690.351562 774.765625 690.042969 775.074219 689.734375 775.382812 C 690.351562 775.691406 690.660156 776 691.277344 776.308594 C 692.207031 776.925781 694.367188 777.542969 697.453125 777.851562 C 700.542969 778.160156 702.394531 778.78125 702.394531 779.707031 C 702.394531 780.324219 702.394531 780.632812 702.394531 781.25 C 704.554688 781.25 707.027344 781.25 709.1875 781.25 C 713.820312 781.25 715.980469 781.558594 716.289062 782.175781 C 716.597656 782.792969 717.835938 783.101562 720.304688 782.792969 C 722.464844 782.484375 726.480469 780.015625 732.347656 775.074219 C 738.214844 770.132812 742.535156 767.355469 745.933594 766.429688 C 749.019531 765.5 751.183594 763.957031 751.800781 762.105469 C 752.417969 760.253906 753.035156 759.324219 753.652344 759.324219 C 754.269531 759.324219 754.886719 756.546875 755.507812 750.679688 C 756.125 744.8125 756.125 741.109375 755.507812 739.5625 C 754.886719 738.019531 754.578125 736.167969 754.886719 733.695312 C 755.195312 731.535156 754.886719 729.992188 753.960938 729.375 C 753.035156 728.757812 752.726562 727.210938 753.34375 725.050781 C 753.960938 722.890625 753.960938 721.035156 752.726562 720.109375 C 751.800781 719.183594 751.800781 717.949219 752.726562 716.097656 C 753.34375 715.171875 753.652344 714.550781 754.269531 713.625 C 753.34375 713.316406 752.726562 713.007812 751.800781 712.699219 C 750.257812 712.082031 749.332031 710.230469 749.023438 707.449219 C 748.710938 704.671875 748.710938 702.820312 749.640625 702.203125 C 749.949219 701.890625 750.257812 701.582031 750.566406 701.273438 C 749.949219 700.65625 749.640625 700.347656 749.023438 699.730469 C 748.09375 698.804688 747.785156 696.953125 748.09375 694.480469 C 748.402344 692.011719 748.09375 689.539062 747.167969 687.6875 C 746.242188 685.835938 745.933594 683.675781 746.550781 681.511719 C 747.167969 679.351562 747.167969 677.808594 745.933594 677.191406 C 745.007812 676.570312 744.699219 674.71875 745.007812 671.324219 C 745.316406 669.777344 745.316406 668.234375 745.625 666.382812 C 745.316406 666.382812 745.007812 666.382812 744.699219 666.382812 C 744.082031 666.382812 743.464844 664.222656 743.15625 659.589844 C 742.847656 654.957031 742.226562 652.796875 741.609375 652.488281 C 740.992188 652.179688 740.683594 650.941406 740.992188 649.089844 C 741.300781 647.238281 741.300781 646.003906 740.375 645.695312 C 739.757812 645.386719 739.449219 644.457031 739.449219 642.914062 C 739.449219 641.988281 739.449219 641.371094 739.449219 640.445312 C 739.757812 640.445312 740.066406 640.445312 740.375 640.445312 C 740.683594 640.445312 740.992188 640.445312 741.300781 640.445312 C 740.992188 639.519531 740.683594 638.589844 740.375 637.664062 C 739.757812 635.8125 739.757812 634.269531 740.375 633.34375 C 740.683594 632.726562 740.992188 632.414062 741.300781 631.796875 C 740.992188 631.796875 740.683594 631.796875 740.375 631.796875 C 740.066406 631.796875 739.757812 631.796875 739.449219 631.796875 C 739.449219 629.636719 739.449219 627.476562 739.449219 625.621094 C 739.449219 621.300781 738.832031 618.210938 737.90625 616.050781 C 736.980469 613.890625 736.671875 611.109375 736.980469 608.332031 C 737.289062 605.550781 736.980469 603.082031 736.050781 601.539062 C 735.125 599.992188 734.816406 598.757812 735.433594 597.523438 C 736.050781 596.597656 736.050781 593.816406 735.433594 589.1875 C 734.816406 584.554688 734.816406 582.085938 736.050781 580.847656 C 736.980469 579.921875 736.980469 578.6875 735.433594 576.835938 C 734.199219 575.289062 733.582031 573.4375 733.582031 570.96875 C 733.582031 568.804688 733.890625 567.261719 734.507812 566.644531 C 735.125 566.027344 735.125 563.867188 733.890625 560.46875 C 732.964844 557.074219 732.347656 553.058594 732.347656 548.425781 C 732.347656 546.265625 732.347656 543.792969 732.347656 541.632812 C 732.964844 541.632812 733.273438 541.632812 733.890625 541.632812 C 734.507812 541.632812 734.816406 541.632812 735.433594 541.632812 C 735.433594 541.324219 735.433594 541.015625 735.433594 540.707031 C 735.433594 540.089844 734.816406 539.164062 733.582031 538.238281 C 732.347656 537.308594 732.039062 535.765625 732.65625 533.296875 C 733.273438 531.132812 733.890625 529.898438 734.507812 529.898438 C 734.816406 529.898438 735.125 529.898438 735.433594 529.898438 C 734.816406 528.972656 734.507812 528.046875 733.890625 527.121094 C 732.964844 525.269531 732.65625 521.5625 732.964844 516.621094 C 733.273438 511.371094 733.890625 508.59375 734.816406 508.285156 C 735.433594 507.976562 735.742188 507.976562 736.363281 507.667969 C 736.050781 507.050781 735.742188 506.742188 735.433594 506.125 C 734.816406 505.195312 734.816406 503.652344 735.433594 501.183594 C 736.050781 499.019531 736.050781 497.785156 734.816406 497.167969 C 733.890625 496.859375 733.273438 495.625 733.273438 493.152344 C 733.273438 490.992188 733.582031 489.449219 734.199219 488.832031 C 734.816406 488.214844 734.816406 486.359375 734.199219 482.964844 C 733.890625 481.421875 733.582031 479.875 733.273438 478.023438 C 733.582031 478.023438 733.890625 478.023438 734.199219 478.023438 C 734.507812 478.023438 734.816406 478.023438 735.125 478.023438 C 734.816406 477.40625 734.816406 477.097656 734.507812 476.480469 C 734.199219 475.554688 734.199219 474.628906 735.125 474.007812 C 735.742188 473.390625 735.742188 471.847656 735.125 469.070312 C 734.507812 466.597656 734.816406 463.203125 736.671875 459.496094 C 738.214844 455.484375 738.832031 452.394531 738.523438 449.308594 C 738.214844 446.527344 738.214844 444.675781 739.140625 444.058594 C 739.449219 443.75 739.757812 443.441406 740.066406 443.132812 C 739.757812 443.132812 739.449219 443.132812 739.140625 443.132812 C 738.832031 443.132812 738.523438 443.132812 738.214844 443.132812 C 738.214844 442.511719 738.214844 442.203125 738.214844 441.585938 C 738.214844 440.660156 738.832031 436.957031 740.066406 431.089844 C 741.300781 424.914062 741.917969 419.972656 741.609375 416.265625 C 741.300781 412.253906 741.609375 409.78125 742.535156 408.546875 C 743.464844 407.3125 743.773438 403.914062 743.464844 398.355469 C 743.15625 392.800781 743.773438 386.625 745.007812 380.140625 C 746.242188 373.347656 746.550781 369.640625 745.933594 369.023438 C 745.316406 368.40625 745.007812 366.242188 745.316406 362.230469 C 745.625 358.214844 746.242188 356.054688 746.859375 355.4375 C 747.476562 354.820312 749.640625 354.511719 753.652344 354.820312 C 757.667969 355.128906 760.753906 356.054688 763.226562 357.289062 C 765.695312 358.523438 769.09375 359.449219 772.796875 359.757812 C 776.8125 360.066406 778.972656 360.6875 779.898438 361.613281 C 780.828125 362.539062 782.988281 363.15625 786.691406 363.464844 C 790.089844 363.773438 793.179688 364.390625 795.957031 365.316406 C 798.425781 366.242188 800.28125 367.171875 800.898438 368.097656 C 801.515625 369.023438 803.367188 369.640625 806.148438 369.640625 C 808.925781 369.640625 810.777344 370.257812 811.394531 371.183594 C 812.011719 372.109375 813.25 372.726562 815.410156 372.726562 C 817.261719 372.726562 818.808594 373.347656 819.734375 374.273438 C 820.660156 375.199219 823.4375 376.433594 828.070312 377.667969 C 832.703125 378.902344 835.789062 380.449219 837.644531 382.609375 C 839.496094 384.460938 841.347656 385.386719 842.890625 385.386719 C 844.4375 385.386719 845.671875 386.007812 846.289062 387.242188 C 846.90625 388.476562 849.375 389.402344 853.390625 389.710938 C 857.714844 390.019531 859.875 390.019531 860.183594 389.09375 C 860.492188 388.476562 862.035156 388.167969 865.125 388.167969 C 868.210938 388.167969 870.375 387.242188 871.917969 385.699219 C 873.460938 384.152344 876.550781 383.226562 880.5625 382.917969 C 884.886719 382.609375 887.046875 381.992188 887.355469 381.066406 C 887.664062 380.140625 889.210938 379.832031 891.679688 380.140625 C 894.148438 380.449219 896.621094 379.832031 898.472656 378.285156 C 900.324219 376.742188 905.574219 375.199219 913.914062 373.347656 C 922.25 371.800781 927.191406 370.257812 928.425781 369.023438 C 929.660156 367.789062 931.511719 367.171875 934.292969 367.171875 C 937.070312 367.171875 938.304688 366.550781 938.613281 365.625 C 938.925781 364.699219 941.394531 363.464844 945.71875 362.230469 C 950.347656 360.996094 953.746094 358.832031 955.90625 356.054688 C 958.070312 353.273438 960.539062 351.421875 962.699219 350.804688 C 964.863281 350.1875 966.097656 348.953125 966.714844 346.789062 C 967.023438 344.9375 967.640625 343.703125 968.566406 343.394531 C 969.492188 343.085938 970.730469 340.921875 972.582031 337.21875 C 974.125 333.203125 975.050781 329.5 975.050781 325.484375 C 975.050781 321.46875 974.125 318.074219 972.582031 314.367188 C 971.039062 310.972656 969.492188 308.5 967.640625 307.265625 C 966.097656 306.03125 965.480469 304.796875 965.789062 303.871094 C 966.097656 303.25 966.097656 302.941406 966.40625 302.324219 C 965.480469 302.632812 964.554688 302.632812 963.625 302.941406 C 961.773438 303.25 959.921875 302.324219 958.378906 300.472656 C 956.832031 298.621094 955.597656 297.695312 954.363281 298.003906 C 953.4375 298.3125 952.511719 297.695312 951.585938 296.148438 C 950.964844 295.222656 950.65625 294.605469 950.039062 293.679688 C 949.421875 294.296875 948.804688 294.605469 948.1875 295.222656 C 946.953125 296.148438 945.410156 296.457031 943.863281 295.839844 C 942.320312 295.222656 940.777344 295.222656 938.925781 295.839844 C 937.378906 296.457031 934.292969 296.765625 929.660156 296.457031 C 925.027344 296.148438 921.015625 296.765625 917.617188 298.003906 C 914.222656 299.238281 911.75 299.546875 910.824219 298.929688 C 909.898438 298.3125 908.972656 298.621094 908.046875 299.855469 C 907.121094 301.089844 905.265625 302.324219 902.179688 303.25 C 899.398438 304.179688 896.3125 304.488281 892.914062 304.179688 C 889.828125 303.871094 887.976562 304.179688 887.664062 305.105469 C 887.355469 306.03125 883.652344 307.882812 876.550781 310.355469 C 869.449219 312.824219 866.050781 314.675781 866.050781 315.292969 C 866.050781 315.910156 864.507812 316.839844 861.726562 318.074219 C 858.949219 319.308594 856.789062 320.542969 855.859375 322.085938 C 854.933594 323.324219 851.230469 322.394531 845.363281 319.308594 C 839.1875 316.21875 835.480469 314.367188 834.246094 314.367188 C 833.011719 314.367188 831.46875 313.441406 829.304688 311.898438 C 827.453125 310.355469 823.746094 308.808594 818.1875 307.574219 C 812.632812 306.339844 808.925781 304.796875 807.074219 303.25 C 805.21875 301.707031 803.367188 301.089844 801.824219 301.398438 C 800.28125 301.707031 798.734375 301.089844 796.882812 299.546875 C 795.339844 298.003906 793.796875 297.386719 791.941406 297.695312 C 790.398438 298.003906 788.855469 298.003906 787.621094 297.074219 C 786.382812 296.457031 785.765625 295.839844 785.765625 295.222656 C 785.765625 294.605469 787.003906 293.679688 789.78125 292.753906 C 792.25 291.828125 794.105469 290.589844 795.03125 289.355469 C 795.957031 288.121094 797.5 287.195312 799.351562 286.886719 C 801.207031 286.578125 802.132812 285.960938 802.132812 285.035156 C 802.132812 284.105469 802.75 283.488281 803.984375 283.179688 C 805.21875 282.871094 806.148438 281.945312 806.765625 280.402344 C 807.382812 278.859375 808.308594 277.929688 809.234375 277.929688 C 810.160156 277.929688 811.085938 277.3125 811.703125 276.078125 C 812.324219 274.84375 813.867188 273.609375 816.027344 272.683594 C 818.1875 271.753906 819.734375 270.210938 820.351562 267.742188 C 820.96875 265.578125 823.128906 262.800781 826.527344 259.40625 C 829.921875 256.316406 831.777344 254.15625 831.777344 253.230469 C 831.777344 252.300781 832.703125 250.757812 834.554688 248.289062 C 836.40625 246.125 837.332031 244.273438 837.332031 243.039062 C 837.332031 241.804688 838.261719 240.257812 839.804688 238.714844 C 841.347656 237.171875 842.582031 234.703125 843.199219 231.613281 C 843.816406 228.527344 844.746094 225.746094 845.980469 223.894531 C 847.214844 222.042969 847.832031 220.496094 847.523438 218.953125 C 847.214844 217.71875 847.523438 216.484375 848.449219 214.9375 C 849.375 213.703125 850.613281 208.453125 851.847656 198.882812 C 853.082031 189.617188 854.007812 184.679688 854.625 184.371094 C 855.242188 184.0625 855.550781 182.515625 855.242188 179.429688 C 854.933594 177.886719 854.933594 176.648438 854.625 175.105469 C 854.933594 175.105469 855.242188 175.105469 855.550781 175.105469 C 855.859375 175.105469 856.167969 175.105469 856.480469 175.105469 C 856.167969 174.796875 855.859375 174.488281 855.550781 174.179688 C 854.933594 173.5625 854.625 172.019531 854.933594 169.238281 C 855.242188 168.003906 855.242188 166.769531 855.550781 165.226562 C 855.242188 165.226562 854.933594 165.226562 854.625 165.226562 C 854.007812 165.226562 853.390625 164.609375 853.082031 163.371094 C 852.773438 162.136719 852.773438 160.902344 853.699219 159.359375 C 854.007812 158.742188 854.316406 158.121094 854.625 157.503906 C 854.316406 157.503906 854.007812 157.503906 853.699219 157.503906 C 853.390625 157.503906 853.082031 157.503906 852.773438 157.503906 C 852.773438 156.269531 852.773438 155.34375 852.773438 154.109375 C 852.773438 151.949219 852.464844 150.710938 851.847656 150.09375 C 851.230469 149.785156 850.921875 147.933594 850.921875 144.84375 C 850.921875 141.757812 849.992188 138.667969 848.140625 135.582031 C 846.289062 132.800781 845.363281 130.332031 845.671875 128.789062 C 845.980469 127.246094 845.054688 123.847656 842.890625 119.214844 C 840.730469 114.277344 838.570312 111.804688 837.023438 110.878906 C 835.480469 110.261719 834.554688 108.71875 834.554688 106.554688 C 834.554688 104.394531 833.9375 103.160156 833.011719 102.542969 C 832.394531 102.234375 832.085938 102.234375 831.46875 101.925781 C 831.777344 101.308594 831.777344 100.996094 832.085938 100.378906 C 832.394531 99.761719 832.394531 99.453125 832.703125 98.835938 C 832.085938 98.835938 831.777344 98.835938 831.15625 98.835938 C 830.230469 98.835938 828.996094 97.910156 827.761719 96.367188 C 826.527344 94.820312 825.910156 93.585938 826.21875 92.351562 C 826.527344 91.734375 826.527344 91.425781 826.835938 90.808594 C 826.21875 90.808594 825.910156 90.808594 825.292969 90.808594 C 824.363281 90.808594 822.820312 88.957031 820.351562 85.558594 C 818.1875 82.160156 815.71875 79.691406 813.558594 78.457031 C 811.394531 77.222656 809.542969 75.367188 808.617188 72.589844 C 807.691406 70.121094 805.527344 68.265625 802.441406 67.648438 C 799.351562 67.03125 796.882812 65.796875 795.648438 63.636719 C 794.414062 61.78125 793.175781 60.855469 791.632812 60.855469 C 791.015625 60.855469 790.398438 60.855469 789.78125 60.855469 C 789.78125 60.238281 789.78125 59.929688 789.78125 59.3125 C 789.78125 58.695312 789.78125 58.386719 789.78125 57.769531 C 789.472656 58.078125 789.164062 58.078125 788.855469 58.386719 C 788.238281 58.695312 786.382812 57.769531 782.988281 55.914062 C 779.898438 54.0625 778.046875 52.519531 777.738281 50.976562 C 777.429688 49.738281 776.195312 49.121094 773.722656 49.429688 C 771.5625 49.738281 770.019531 49.429688 769.402344 48.503906 C 768.785156 47.578125 767.546875 46.960938 765.386719 46.652344 C 763.535156 46.34375 762.609375 45.726562 762.609375 44.800781 C 762.609375 44.179688 762.609375 43.871094 762.609375 43.253906 C 761.371094 43.253906 760.136719 43.253906 758.59375 43.253906 C 756.125 43.253906 754.269531 42.636719 753.652344 41.402344 C 753.035156 40.167969 751.800781 39.859375 749.640625 40.476562 C 747.785156 41.09375 745.316406 40.785156 742.535156 39.550781 C 739.757812 38.316406 738.214844 37.078125 738.214844 36.152344 C 738.214844 35.535156 738.214844 35.226562 738.214844 34.609375 C 736.980469 35.226562 735.742188 35.535156 734.199219 36.152344 C 732.964844 36.769531 731.730469 37.078125 730.1875 37.695312 C 729.875 37.078125 729.875 36.460938 729.566406 35.84375 C 729.257812 35.226562 729.257812 34.609375 728.949219 33.992188 C 728.023438 34.609375 727.097656 34.917969 726.171875 35.535156 C 724.320312 36.460938 721.847656 36.769531 719.378906 36.460938 C 716.90625 36.152344 715.363281 35.535156 715.363281 34.917969 C 715.363281 34.609375 715.363281 34.300781 715.363281 33.992188 C 713.820312 34.609375 712.277344 34.917969 710.421875 35.535156 C 707.335938 36.460938 704.867188 36.460938 703.320312 34.917969 C 702.394531 34.300781 701.777344 33.683594 700.851562 33.066406 C 703.320312 33.683594 703.011719 33.992188 702.703125 34.609375 Z M 702.703125 34.609375 " fill-opacity="1" fill-rule="nonzero"/></g><path fill="#253a5b" d="M 479.453125 43.253906 C 478.835938 44.179688 476.054688 44.492188 471.117188 43.871094 C 466.175781 43.253906 463.703125 43.253906 462.777344 44.492188 C 462.160156 45.417969 460.617188 46.035156 458.457031 46.035156 C 456.292969 46.035156 454.132812 46.34375 452.589844 46.960938 C 451.042969 47.578125 450.117188 48.195312 450.117188 48.8125 C 450.117188 49.121094 450.117188 49.429688 450.117188 49.738281 C 449.5 49.429688 449.191406 49.121094 448.574219 48.8125 C 447.957031 48.503906 447.648438 48.195312 447.03125 47.886719 C 446.414062 48.8125 446.105469 49.429688 445.484375 50.355469 C 444.558594 51.902344 442.089844 53.136719 437.765625 53.753906 C 433.445312 54.371094 430.664062 55.914062 429.121094 58.078125 C 427.578125 60.238281 424.796875 61.78125 421.402344 62.398438 C 418.003906 63.015625 415.535156 64.253906 414.609375 66.414062 C 413.679688 68.574219 412.136719 70.429688 409.667969 72.28125 C 407.503906 74.132812 405.652344 75.058594 404.726562 75.058594 C 403.800781 75.058594 403.183594 75.675781 402.875 76.914062 C 402.566406 78.148438 401.640625 79.074219 400.09375 79.382812 C 398.550781 79.691406 397.007812 81.234375 395.773438 84.324219 C 394.535156 87.101562 392.375 89.574219 389.597656 91.425781 C 386.816406 93.277344 385.273438 95.441406 385.273438 97.601562 C 385.273438 99.761719 384.65625 101.925781 383.421875 103.46875 C 382.183594 105.011719 381.257812 107.792969 380.949219 111.804688 C 380.640625 115.820312 381.257812 118.90625 382.496094 121.996094 C 383.730469 124.773438 384.964844 126.625 386.507812 127.246094 C 387.742188 127.863281 389.597656 128.171875 392.375 127.863281 C 394.84375 127.554688 396.390625 126.625 396.699219 125.390625 C 397.007812 124.15625 397.933594 123.230469 399.167969 122.921875 C 400.402344 122.613281 401.019531 121.6875 401.019531 120.140625 C 401.019531 118.597656 401.640625 117.363281 402.875 116.746094 C 404.109375 116.128906 405.035156 115.203125 405.34375 113.964844 C 405.652344 112.730469 406.886719 111.496094 409.359375 109.953125 C 411.519531 108.71875 413.992188 106.554688 416.152344 103.777344 C 418.3125 100.996094 421.710938 98.21875 425.722656 95.441406 C 430.046875 92.96875 432.515625 90.808594 433.445312 89.265625 C 434.371094 87.71875 435.605469 86.792969 436.839844 86.792969 C 438.074219 86.792969 439.929688 85.867188 442.707031 84.015625 C 445.484375 82.160156 447.339844 81.234375 448.882812 81.542969 C 450.425781 81.851562 452.28125 80.925781 454.75 79.074219 C 456.910156 77.222656 459.382812 75.984375 461.851562 75.675781 C 464.320312 75.367188 465.867188 74.75 466.175781 74.132812 C 466.484375 73.515625 468.644531 72.898438 472.96875 72.589844 C 477.292969 72.28125 480.378906 72.28125 483.15625 73.207031 C 485.628906 73.824219 487.171875 75.367188 487.171875 77.53125 C 487.171875 79.691406 486.246094 81.851562 484.703125 83.398438 C 483.15625 84.941406 481.921875 86.792969 481.304688 89.265625 C 480.6875 91.425781 479.761719 92.96875 478.527344 93.585938 C 477.292969 94.203125 476.054688 95.75 475.128906 98.527344 C 474.203125 100.996094 472.660156 102.851562 470.804688 103.46875 C 469.878906 103.777344 468.953125 104.085938 468.027344 104.394531 C 468.335938 105.011719 468.335938 105.320312 468.644531 105.9375 C 468.953125 106.863281 468.335938 108.101562 466.792969 109.953125 C 465.25 111.804688 464.011719 112.113281 462.777344 111.804688 C 462.160156 111.496094 461.851562 111.496094 461.234375 111.1875 C 461.234375 111.804688 461.234375 112.421875 461.234375 113.039062 C 461.234375 114.277344 460.308594 115.511719 458.457031 116.4375 C 456.601562 117.363281 455.367188 118.597656 455.058594 120.453125 C 454.75 121.996094 453.515625 123.230469 451.660156 123.847656 C 450.734375 124.15625 449.808594 124.464844 448.882812 124.773438 C 449.191406 125.082031 449.191406 125.390625 449.5 125.699219 C 449.808594 126.316406 448.882812 127.246094 447.03125 128.480469 C 445.175781 129.714844 444.25 130.949219 444.25 132.492188 C 444.25 133.730469 442.707031 135.582031 439.929688 137.742188 C 437.148438 139.90625 435.296875 141.757812 434.988281 142.992188 C 434.679688 144.226562 434.0625 144.84375 433.136719 144.84375 C 432.515625 144.84375 432.207031 144.84375 431.589844 144.84375 C 431.589844 146.082031 431.589844 147.007812 431.589844 148.242188 C 431.589844 150.402344 430.664062 152.875 429.121094 155.035156 C 427.578125 157.195312 426.960938 158.433594 428.503906 159.667969 C 429.738281 160.902344 430.355469 162.753906 430.046875 164.917969 C 429.738281 166.152344 429.738281 167.078125 429.429688 168.3125 C 430.355469 168.3125 430.972656 168.3125 431.898438 168.3125 C 432.824219 168.3125 433.445312 168.3125 434.371094 168.3125 C 434.0625 168.929688 434.0625 169.546875 433.753906 170.164062 C 433.445312 171.402344 433.753906 172.636719 434.679688 174.179688 C 435.605469 175.414062 437.457031 176.957031 440.546875 179.121094 C 443.324219 180.972656 446.105469 181.898438 448.265625 181.589844 C 450.425781 181.28125 452.589844 180.355469 454.132812 178.8125 C 455.675781 177.265625 456.910156 175.414062 458.148438 173.5625 C 459.074219 171.710938 459.691406 169.546875 459.691406 167.386719 C 459.691406 165.226562 460 163.988281 460.617188 163.371094 C 461.234375 163.0625 461.542969 162.445312 461.542969 161.828125 C 461.542969 161.519531 461.542969 161.210938 461.542969 160.902344 C 460.925781 160.902344 460.617188 160.902344 460 160.902344 C 459.382812 160.902344 459.074219 160.902344 458.457031 160.902344 C 458.765625 159.976562 458.765625 159.359375 459.074219 158.433594 C 459.382812 157.503906 459.382812 156.886719 459.691406 155.960938 C 460.308594 156.269531 460.617188 156.269531 461.234375 156.578125 C 461.851562 156.886719 462.160156 156.886719 462.777344 157.195312 C 462.46875 156.578125 462.46875 156.269531 462.160156 155.652344 C 461.851562 154.726562 464.632812 151.328125 470.808594 146.082031 C 476.980469 140.523438 480.378906 137.125 480.996094 135.582031 C 481.613281 134.039062 483.46875 132.183594 486.863281 129.714844 C 489.953125 127.554688 491.804688 125.699219 492.113281 124.464844 C 492.421875 123.230469 493.347656 122.304688 494.890625 121.6875 C 496.4375 121.070312 498.289062 118.90625 500.140625 114.894531 C 501.992188 110.878906 504.15625 108.410156 506.007812 107.171875 C 507.859375 105.9375 508.789062 104.394531 508.789062 102.851562 C 508.789062 101.304688 510.023438 98.527344 512.183594 94.511719 C 514.34375 90.5 515.890625 85.867188 516.507812 80.617188 C 517.125 75.058594 517.125 71.664062 516.507812 70.429688 C 515.890625 69.191406 515.582031 67.339844 515.890625 65.179688 C 516.199219 63.015625 515.582031 61.78125 514.035156 61.164062 C 513.109375 60.855469 512.492188 60.855469 511.566406 60.546875 C 511.875 59.621094 511.875 59.003906 512.183594 58.078125 C 512.492188 56.53125 511.566406 55.296875 509.40625 54.0625 C 507.242188 53.136719 506.007812 51.902344 506.007812 50.046875 C 506.007812 49.121094 506.007812 48.503906 506.007812 47.578125 C 504.464844 47.886719 503.230469 47.886719 501.683594 48.195312 C 498.90625 48.503906 496.746094 48.195312 495.507812 47.269531 C 494.273438 46.34375 492.730469 45.726562 491.1875 45.726562 C 489.640625 45.726562 488.097656 45.109375 486.863281 43.871094 C 485.628906 42.636719 484.394531 42.019531 482.847656 42.019531 C 480.996094 41.710938 480.070312 42.328125 479.453125 43.253906 Z M 479.453125 43.253906 " fill-opacity="1" fill-rule="nonzero"/><path fill="#f6863c" d="M 703.628906 65.488281 C 699.617188 66.414062 697.453125 66.722656 696.835938 66.105469 C 696.21875 65.488281 694.675781 65.179688 692.515625 65.179688 C 690.351562 65.179688 688.191406 65.796875 686.648438 66.722656 C 685.101562 67.648438 682.632812 68.265625 679.855469 68.265625 C 677.074219 68.265625 675.222656 68.882812 674.605469 69.8125 C 673.988281 70.738281 672.441406 71.664062 669.664062 72.28125 C 667.195312 72.898438 664.722656 73.207031 662.5625 72.898438 C 660.398438 72.589844 651.753906 75.984375 636.933594 83.398438 C 622.109375 90.808594 612.539062 96.675781 607.90625 101.304688 C 603.273438 105.9375 599.261719 109.335938 595.863281 111.496094 C 592.46875 113.65625 589.378906 116.746094 587.21875 120.140625 C 585.058594 123.539062 583.203125 125.390625 582.277344 125.390625 C 581.351562 125.390625 580.117188 127.246094 578.882812 130.640625 C 577.644531 134.039062 576.101562 136.507812 574.558594 137.433594 C 573.015625 138.359375 571.777344 140.523438 571.160156 143.609375 C 570.542969 146.699219 569.617188 149.167969 568.382812 150.402344 C 567.148438 151.636719 566.222656 153.492188 565.914062 156.269531 C 565.601562 158.742188 564.984375 160.285156 564.367188 160.59375 C 563.75 160.902344 563.441406 162.753906 563.441406 165.84375 C 563.441406 167.386719 563.441406 168.929688 563.441406 170.78125 C 563.132812 170.78125 562.824219 170.78125 562.515625 170.78125 C 561.898438 170.78125 561.28125 172.019531 560.664062 174.796875 C 560.046875 177.265625 559.738281 180.046875 559.738281 183.132812 C 559.738281 185.914062 560.046875 187.765625 560.664062 188.382812 C 561.28125 189 561.28125 190.855469 560.664062 194.25 C 560.046875 197.339844 560.355469 200.117188 561.589844 201.96875 C 562.824219 203.824219 563.132812 205.058594 562.515625 205.984375 C 561.898438 206.601562 561.589844 209.074219 561.898438 213.085938 C 562.207031 217.410156 563.132812 219.878906 564.367188 220.804688 C 565.601562 221.734375 566.839844 224.511719 568.382812 229.144531 C 569.925781 233.773438 571.160156 236.863281 573.324219 238.714844 C 575.175781 240.566406 576.71875 243.039062 578.261719 245.816406 C 579.5 248.597656 581.96875 251.683594 585.367188 255.082031 C 588.761719 258.167969 590.921875 260.640625 591.234375 262.183594 C 591.542969 263.726562 592.46875 264.652344 593.703125 264.652344 C 594.9375 264.652344 596.171875 265.890625 597.71875 268.050781 C 598.953125 270.210938 600.1875 271.445312 601.730469 272.0625 C 602.964844 272.375 603.894531 273.300781 604.511719 274.535156 C 605.128906 275.769531 606.363281 276.695312 607.90625 277.003906 C 609.449219 277.3125 610.6875 278.238281 611.921875 279.785156 C 612.847656 281.328125 616.863281 284.105469 623.964844 288.121094 C 631.066406 292.136719 635.078125 294.914062 636.007812 296.765625 C 636.933594 298.621094 637.242188 300.164062 636.933594 301.707031 C 636.625 302.941406 635.390625 304.179688 633.535156 305.105469 C 631.683594 306.03125 629.214844 306.339844 626.433594 306.03125 C 623.65625 305.722656 621.800781 305.105469 621.492188 304.488281 C 621.183594 303.871094 619.640625 303.558594 617.171875 303.558594 C 614.699219 303.558594 610.6875 302.632812 605.4375 300.78125 C 600.1875 298.929688 594.9375 298.3125 589.378906 299.238281 C 583.820312 300.164062 580.117188 300.472656 577.644531 300.164062 C 575.484375 299.855469 573.324219 300.164062 571.46875 301.089844 C 569.617188 302.015625 564.367188 302.632812 555.414062 302.632812 C 546.769531 302.632812 542.136719 303.25 541.519531 304.179688 C 540.902344 305.105469 539.355469 305.414062 536.578125 305.105469 C 534.109375 304.796875 531.636719 305.105469 529.785156 306.03125 C 527.933594 306.957031 525.152344 307.265625 521.449219 306.957031 C 518.050781 306.648438 513.109375 306.957031 506.933594 307.882812 C 500.757812 308.808594 494.273438 307.882812 487.480469 305.105469 C 480.6875 302.324219 474.511719 300.164062 468.644531 299.238281 C 462.777344 298.3125 458.765625 297.074219 455.984375 295.222656 C 453.515625 293.679688 449.5 292.445312 443.941406 291.828125 C 438.382812 291.210938 435.605469 290.589844 435.296875 289.972656 C 434.988281 289.355469 430.664062 288.429688 422.328125 287.503906 C 413.992188 286.578125 406.886719 286.886719 401.019531 288.429688 C 395.15625 289.972656 392.375 291.519531 392.683594 292.753906 C 392.992188 293.988281 394.847656 295.53125 398.550781 297.695312 C 401.949219 299.546875 404.109375 301.089844 404.417969 302.015625 C 404.726562 302.941406 406.886719 303.871094 411.210938 304.796875 C 415.535156 305.722656 418.3125 306.957031 419.855469 308.808594 C 421.402344 310.355469 424.488281 311.28125 428.503906 311.589844 C 432.828125 311.898438 436.53125 313.132812 439.621094 315.601562 C 442.707031 317.765625 444.867188 318.691406 445.796875 318.382812 C 446.722656 318.074219 447.339844 318.074219 447.648438 319 C 447.957031 319.617188 452.898438 320.851562 462.160156 323.015625 C 471.425781 324.867188 476.363281 326.101562 476.671875 327.027344 C 476.980469 327.644531 478.835938 328.261719 481.921875 328.878906 C 485.011719 329.5 487.789062 329.5 489.640625 328.878906 C 491.496094 328.261719 492.730469 328.570312 493.65625 329.808594 C 494.273438 331.042969 495.816406 331.660156 497.980469 331.660156 C 499.214844 331.660156 500.140625 331.660156 501.375 331.660156 C 501.375 331.96875 501.375 332.277344 501.375 332.585938 C 501.375 332.894531 501.375 333.203125 501.375 333.511719 C 501.992188 333.203125 502.300781 333.203125 502.921875 332.894531 C 503.847656 332.585938 504.464844 332.585938 504.773438 333.511719 C 505.082031 334.128906 507.242188 334.4375 511.566406 334.4375 C 515.890625 334.4375 518.050781 333.820312 518.667969 332.894531 C 519.285156 331.96875 520.519531 331.660156 522.066406 332.277344 C 523.609375 332.894531 525.769531 332.585938 528.242188 331.351562 C 530.710938 330.117188 533.796875 329.5 536.886719 329.808594 C 539.972656 330.117188 542.136719 329.808594 542.753906 328.878906 C 543.371094 327.953125 544.296875 327.644531 545.53125 328.261719 C 546.769531 328.878906 549.855469 328.878906 554.796875 327.644531 C 559.738281 326.71875 566.53125 326.410156 575.484375 326.71875 C 584.4375 327.027344 589.6875 327.027344 590.921875 326.101562 C 592.160156 325.484375 593.703125 325.484375 595.246094 326.101562 C 596.789062 326.71875 598.953125 326.71875 601.421875 326.101562 C 603.894531 325.484375 606.054688 325.484375 607.289062 326.71875 C 608.523438 327.644531 609.140625 330.117188 609.140625 333.820312 C 609.140625 335.675781 609.140625 337.835938 609.140625 339.6875 C 608.832031 339.6875 608.523438 339.6875 608.214844 339.6875 C 607.90625 339.6875 607.597656 339.6875 607.289062 339.6875 C 607.289062 340.921875 607.289062 342.160156 607.289062 343.703125 C 607.289062 346.171875 606.980469 347.714844 606.363281 348.027344 C 605.746094 348.335938 605.128906 350.804688 604.511719 355.746094 C 603.894531 360.6875 602.964844 363.773438 602.039062 365.007812 C 601.113281 366.242188 600.804688 367.480469 601.113281 369.023438 C 601.421875 370.257812 600.496094 373.65625 598.335938 379.210938 C 596.171875 384.769531 594.628906 389.710938 594.011719 394.035156 C 593.394531 398.667969 592.46875 401.445312 591.542969 402.679688 C 590.613281 403.914062 590.304688 405.152344 590.921875 406.695312 C 591.542969 407.929688 591.542969 408.855469 590.304688 409.472656 C 589.378906 410.089844 588.761719 412.253906 588.453125 416.265625 C 588.144531 420.28125 587.527344 422.441406 586.601562 423.058594 C 585.675781 423.675781 584.75 426.148438 584.128906 430.164062 C 583.511719 434.484375 582.894531 436.648438 582.277344 436.957031 C 581.660156 437.265625 581.351562 438.808594 581.351562 441.277344 C 581.351562 443.75 580.425781 446.835938 578.882812 450.542969 C 577.335938 453.9375 576.71875 456.71875 577.027344 458.878906 C 577.335938 460.730469 577.335938 461.96875 576.410156 462.277344 C 576.101562 462.585938 575.792969 462.585938 575.484375 462.894531 C 575.792969 463.511719 576.101562 464.128906 576.410156 464.746094 C 577.027344 465.980469 576.71875 467.523438 575.484375 469.6875 C 574.25 471.539062 573.632812 473.699219 573.632812 475.554688 C 573.632812 476.480469 573.632812 477.40625 573.632812 478.332031 C 573.324219 478.332031 573.015625 478.332031 572.707031 478.332031 C 572.089844 478.332031 571.160156 482.347656 569.925781 490.375 C 568.691406 498.402344 567.457031 503.652344 565.914062 506.433594 C 564.367188 509.210938 563.75 513.535156 563.132812 520.019531 C 562.515625 526.503906 561.898438 529.589844 561.28125 529.589844 C 560.664062 529.589844 560.046875 530.207031 559.738281 531.445312 C 559.425781 532.679688 559.117188 535.765625 559.117188 540.089844 C 559.117188 544.414062 558.5 547.191406 557.574219 548.425781 C 556.648438 549.351562 556.03125 550.898438 556.03125 552.75 C 556.03125 553.675781 556.03125 554.601562 556.03125 555.527344 C 555.722656 555.527344 555.414062 555.527344 555.105469 555.527344 C 554.796875 555.527344 554.488281 555.527344 554.179688 555.527344 C 554.488281 557.074219 554.796875 558.617188 555.105469 560.46875 C 555.722656 563.558594 555.105469 567.878906 553.253906 573.128906 C 551.398438 578.378906 550.472656 582.085938 550.78125 584.246094 C 551.089844 586.40625 550.78125 588.257812 549.855469 589.496094 C 548.929688 590.730469 548.621094 592.582031 548.929688 595.363281 C 549.238281 596.597656 549.238281 597.832031 549.546875 599.375 C 549.238281 599.375 548.929688 599.375 548.621094 599.375 C 548.3125 599.375 548.003906 599.375 547.695312 599.375 C 548.003906 600.300781 548.003906 600.917969 548.3125 601.847656 C 548.621094 603.390625 548.621094 604.316406 547.695312 604.625 C 547.078125 604.933594 546.457031 608.949219 545.839844 616.359375 C 545.222656 623.769531 544.605469 627.476562 543.988281 628.09375 C 543.371094 628.402344 543.0625 629.945312 543.371094 632.414062 C 543.679688 634.886719 543.679688 637.355469 542.753906 639.210938 C 542.136719 641.0625 542.136719 642.605469 542.753906 644.148438 C 543.371094 645.386719 543.371094 646.621094 542.136719 648.164062 C 541.210938 649.398438 540.902344 650.941406 541.210938 653.105469 C 541.519531 654.957031 541.210938 656.5 540.28125 657.425781 C 539.664062 658.046875 539.355469 658.355469 538.738281 658.972656 C 539.046875 659.28125 539.355469 659.28125 539.664062 659.589844 C 540.28125 659.898438 540.28125 663.601562 539.664062 670.085938 C 539.046875 676.878906 539.046875 680.585938 539.664062 681.820312 C 540.28125 682.746094 540.59375 685.527344 540.28125 690.160156 C 539.972656 694.789062 539.972656 697.261719 540.902344 698.496094 C 541.210938 699.113281 541.519531 699.421875 541.828125 700.039062 C 541.210938 700.039062 540.902344 700.039062 540.28125 700.039062 C 539.355469 700.039062 538.738281 700.65625 538.429688 701.582031 C 538.121094 702.511719 538.429688 703.4375 539.355469 704.054688 C 539.972656 704.363281 540.28125 704.671875 540.902344 704.980469 C 540.59375 705.289062 540.28125 705.597656 539.972656 705.90625 C 539.355469 706.523438 539.046875 707.449219 539.355469 708.375 C 539.664062 709.304688 540.28125 709.921875 541.210938 709.921875 C 541.828125 709.921875 542.136719 709.921875 542.753906 709.921875 C 542.136719 711.464844 541.828125 713.007812 541.210938 714.863281 C 540.28125 717.949219 540.28125 720.417969 541.828125 721.964844 C 543.0625 723.507812 543.371094 724.742188 542.445312 725.976562 C 541.519531 726.902344 541.519531 728.140625 542.445312 729.992188 C 543.371094 731.535156 543.988281 734.003906 543.988281 736.785156 C 543.988281 739.5625 544.296875 741.417969 544.914062 741.726562 C 545.53125 742.035156 546.148438 743.886719 546.765625 746.976562 C 547.386719 750.0625 548.3125 752.222656 549.546875 752.84375 C 550.78125 753.460938 551.707031 753.769531 552.324219 753.769531 C 552.632812 753.769531 552.941406 753.769531 553.253906 753.769531 C 553.253906 752.84375 553.253906 752.222656 553.253906 751.296875 C 553.253906 749.753906 554.179688 748.519531 556.03125 747.285156 C 557.882812 746.355469 559.425781 743.886719 560.355469 739.5625 C 561.28125 735.242188 561.898438 729.683594 562.207031 722.273438 C 562.515625 714.863281 563.441406 710.230469 564.675781 708.375 C 565.914062 706.523438 566.53125 703.746094 566.53125 700.039062 C 566.53125 696.644531 566.222656 694.171875 565.601562 693.246094 C 565.292969 692.628906 564.984375 692.320312 564.675781 691.703125 C 565.292969 692.011719 565.601562 692.011719 566.222656 692.320312 C 567.148438 692.628906 567.765625 692.628906 568.074219 691.703125 C 568.382812 691.085938 568.691406 688.921875 568.691406 684.910156 C 568.691406 680.894531 569.308594 678.425781 570.234375 677.191406 C 571.160156 675.953125 571.46875 672.558594 571.160156 667.617188 C 570.851562 662.367188 570.851562 659.28125 571.777344 658.046875 C 572.398438 656.808594 572.398438 655.574219 571.777344 654.03125 C 571.46875 653.414062 571.160156 652.796875 570.851562 652.179688 C 571.46875 651.871094 572.085938 651.871094 572.707031 651.558594 C 573.941406 651.25 574.558594 649.707031 574.25 647.238281 C 573.941406 644.765625 574.558594 641.0625 575.792969 636.738281 C 577.027344 632.105469 577.644531 628.402344 577.335938 625.003906 C 577.027344 621.917969 577.644531 619.753906 578.882812 618.828125 C 580.117188 617.902344 581.042969 614.507812 581.351562 608.640625 C 581.660156 602.773438 582.277344 599.992188 582.894531 599.992188 C 583.203125 599.992188 583.511719 599.992188 583.820312 599.992188 C 583.511719 598.140625 583.511719 595.980469 583.203125 594.125 C 582.894531 590.113281 582.894531 588.257812 583.820312 587.949219 C 584.4375 587.640625 585.058594 584.863281 585.675781 579.613281 C 586.292969 574.363281 587.21875 571.277344 588.144531 570.042969 C 589.070312 568.804688 589.378906 566.953125 589.070312 564.175781 C 588.761719 561.703125 589.378906 559.234375 590.613281 557.382812 C 591.851562 555.527344 592.777344 551.824219 593.394531 546.265625 C 594.011719 540.707031 594.9375 537.617188 595.863281 536.691406 C 596.789062 535.765625 597.097656 533.914062 596.789062 531.445312 C 596.480469 528.972656 597.40625 525.886719 599.261719 522.796875 C 601.113281 519.710938 602.039062 516.929688 602.039062 514.460938 C 602.039062 512.296875 602.964844 510.136719 604.820312 508.59375 C 606.671875 507.050781 606.363281 503.960938 603.273438 499.949219 C 600.496094 495.625 598.953125 492.84375 598.953125 490.683594 C 598.953125 488.832031 599.878906 487.289062 601.421875 486.359375 C 602.964844 485.433594 605.128906 485.125 607.597656 485.433594 C 610.070312 485.742188 613.15625 486.667969 616.863281 488.214844 C 620.257812 489.757812 623.347656 490.375 625.507812 490.066406 C 627.667969 489.757812 630.140625 490.375 632.300781 491.917969 C 634.460938 493.464844 639.402344 494.699219 647.121094 495.933594 C 654.84375 497.167969 660.089844 498.402344 663.179688 500.875 C 665.957031 503.035156 668.121094 504.269531 669.046875 504.269531 C 669.972656 504.269531 670.898438 505.195312 671.824219 506.742188 C 672.75 508.285156 673.058594 510.753906 672.75 513.535156 C 672.441406 516.3125 671.824219 518.472656 670.898438 519.710938 C 669.972656 520.945312 667.8125 522.179688 664.722656 523.105469 C 661.636719 524.03125 659.78125 525.269531 659.78125 527.121094 C 659.78125 528.664062 660.398438 529.898438 661.636719 531.132812 C 662.871094 532.0625 663.179688 533.296875 662.5625 535.148438 C 661.945312 536.691406 661.945312 537.929688 663.179688 538.546875 C 664.105469 539.164062 664.722656 541.632812 664.722656 545.648438 C 664.722656 549.96875 665.339844 553.675781 666.574219 557.382812 C 667.8125 560.777344 668.738281 562.628906 669.355469 562.628906 C 669.664062 562.628906 669.972656 562.628906 670.28125 562.628906 C 669.972656 563.558594 669.664062 564.484375 669.355469 565.410156 C 668.738281 567.261719 668.738281 568.496094 669.972656 569.425781 C 670.898438 570.042969 671.207031 570.96875 670.898438 572.203125 C 670.589844 573.4375 670.898438 574.671875 671.824219 576.21875 C 672.75 577.453125 673.058594 578.6875 672.441406 579.613281 C 671.824219 580.539062 671.515625 582.394531 671.824219 584.863281 C 672.132812 587.332031 672.75 589.496094 673.679688 590.730469 C 674.605469 591.964844 674.914062 593.199219 674.605469 594.746094 C 674.296875 595.363281 674.296875 595.980469 673.988281 596.597656 C 674.296875 596.597656 674.605469 596.597656 674.914062 596.597656 C 675.222656 596.597656 675.53125 596.597656 675.839844 596.597656 C 675.53125 597.523438 675.53125 598.140625 675.222656 599.066406 C 674.914062 600.609375 675.53125 602.464844 676.765625 604.316406 C 678 606.167969 678.308594 607.40625 677.691406 608.332031 C 677.074219 608.949219 676.765625 611.109375 676.765625 614.507812 C 676.765625 617.902344 677.691406 622.226562 679.542969 627.167969 C 681.398438 632.105469 682.015625 634.886719 681.398438 635.8125 C 680.78125 636.738281 680.78125 638.589844 682.015625 641.679688 C 682.941406 644.457031 683.558594 648.78125 683.558594 654.648438 C 683.558594 660.515625 684.175781 664.222656 685.101562 665.765625 C 686.03125 667.308594 686.648438 670.707031 686.648438 675.335938 C 686.648438 680.277344 687.265625 683.367188 688.191406 684.601562 C 689.117188 685.835938 689.734375 688.613281 689.734375 692.9375 C 689.734375 697.261719 690.351562 699.421875 691.277344 699.730469 C 692.207031 700.039062 692.515625 701.890625 692.207031 704.980469 C 691.894531 708.066406 691.894531 710.230469 692.824219 710.847656 C 693.441406 711.464844 693.75 713.007812 693.75 715.171875 C 693.75 717.332031 694.367188 718.875 695.292969 719.492188 C 696.21875 720.109375 696.527344 721.039062 695.910156 722.273438 C 695.292969 723.507812 696.21875 726.59375 698.378906 730.917969 C 700.542969 735.550781 701.46875 738.019531 700.851562 738.636719 C 700.234375 739.253906 700.234375 740.800781 700.851562 742.960938 C 701.160156 744.195312 701.46875 745.121094 701.777344 746.355469 C 702.394531 746.046875 702.703125 746.046875 703.320312 745.738281 C 704.246094 745.429688 705.175781 745.738281 706.101562 746.667969 C 707.027344 747.59375 707.335938 748.519531 706.71875 749.445312 C 706.410156 750.0625 706.101562 750.371094 705.792969 750.988281 C 706.410156 750.988281 706.71875 750.988281 707.335938 750.988281 C 708.261719 750.988281 709.1875 751.605469 709.804688 752.84375 C 710.421875 754.078125 711.96875 754.695312 714.746094 754.386719 C 717.214844 754.078125 718.761719 752.84375 718.761719 750.988281 C 718.761719 750.0625 718.761719 749.136719 718.761719 748.210938 C 719.378906 748.210938 719.996094 748.210938 720.613281 748.210938 C 721.230469 748.210938 721.847656 748.210938 722.464844 748.210938 C 722.464844 747.59375 722.464844 747.285156 722.464844 746.667969 C 722.464844 745.738281 723.082031 744.8125 724.320312 744.195312 C 725.554688 743.578125 726.480469 742.035156 726.789062 739.253906 C 727.097656 736.785156 727.097656 735.242188 726.171875 734.933594 C 725.554688 734.625 724.9375 731.84375 724.628906 726.59375 C 724.320312 721.347656 723.703125 718.566406 723.082031 718.257812 C 722.464844 717.949219 722.15625 716.714844 722.464844 714.859375 C 722.773438 713.007812 722.15625 711.464844 720.921875 709.921875 C 719.6875 708.6875 719.378906 707.140625 719.996094 705.597656 C 720.613281 704.054688 720.921875 701.890625 720.613281 699.421875 C 720.304688 696.953125 719.6875 695.40625 719.070312 695.40625 C 718.453125 695.40625 717.835938 690.160156 717.214844 679.96875 C 716.597656 669.777344 715.671875 663.601562 714.4375 661.75 C 713.203125 659.898438 712.585938 654.339844 712.585938 644.765625 C 712.585938 635.503906 711.96875 629.945312 711.039062 628.402344 C 710.113281 626.859375 709.496094 621.917969 709.496094 613.578125 C 709.496094 605.242188 708.878906 596.90625 707.644531 588.878906 C 706.410156 580.847656 705.792969 574.363281 706.101562 569.421875 C 706.410156 564.484375 706.101562 558 705.175781 549.660156 C 704.246094 541.324219 704.246094 535.148438 705.175781 530.824219 C 706.101562 526.503906 706.410156 522.796875 706.101562 519.09375 C 705.792969 515.695312 705.792969 513.535156 706.71875 512.917969 C 707.335938 512.296875 707.335938 510.753906 706.101562 507.976562 C 705.175781 505.503906 704.554688 502.726562 704.554688 500.257812 C 704.554688 497.785156 704.867188 495.933594 705.484375 495.316406 C 706.101562 494.699219 706.101562 493.152344 705.484375 490.992188 C 704.867188 488.832031 704.867188 486.359375 706.101562 483.890625 C 707.027344 481.421875 707.335938 479.566406 706.71875 478.640625 C 706.410156 478.023438 706.101562 477.714844 705.792969 477.097656 C 706.410156 476.789062 706.71875 476.480469 707.335938 476.171875 C 708.261719 475.554688 708.570312 473.699219 707.953125 470.921875 C 707.335938 468.140625 707.644531 464.746094 709.496094 460.730469 C 711.039062 456.71875 711.660156 452.394531 711.039062 447.761719 C 710.730469 445.292969 710.421875 442.820312 710.113281 440.660156 C 710.421875 440.660156 710.730469 440.660156 711.039062 440.660156 C 711.660156 440.660156 712.277344 439.117188 712.894531 436.335938 C 713.511719 433.558594 713.511719 431.089844 712.277344 429.234375 C 711.660156 428.308594 711.351562 427.382812 710.730469 426.457031 C 711.351562 426.148438 711.96875 425.839844 712.585938 425.53125 C 713.820312 424.914062 714.746094 423.675781 715.054688 422.132812 C 715.363281 420.589844 715.671875 419.355469 715.671875 418.121094 C 715.671875 417.5 715.671875 417.191406 715.671875 416.574219 C 715.363281 416.574219 715.054688 416.574219 714.746094 416.574219 C 714.4375 416.574219 714.128906 416.574219 713.820312 416.574219 C 714.128906 416.265625 714.4375 415.957031 714.746094 415.648438 C 715.363281 415.03125 715.671875 413.488281 715.363281 410.707031 C 715.054688 408.238281 715.671875 406.386719 716.90625 405.769531 C 718.144531 405.148438 718.761719 404.222656 718.453125 402.988281 C 718.144531 401.753906 718.144531 400.828125 719.070312 400.210938 C 719.6875 399.59375 719.6875 398.664062 719.070312 397.738281 C 718.761719 397.121094 718.453125 396.8125 718.144531 396.195312 C 718.761719 395.886719 719.070312 395.578125 719.6875 395.269531 C 720.613281 394.652344 721.230469 392.492188 721.539062 388.476562 C 721.847656 384.460938 722.464844 381.992188 723.390625 380.140625 C 724.320312 378.59375 724.628906 377.050781 724.320312 375.816406 C 724.011719 375.199219 724.011719 374.582031 723.703125 373.964844 C 724.320312 373.65625 724.9375 373.65625 725.554688 373.34375 C 726.789062 373.035156 727.40625 372.109375 727.097656 370.566406 C 726.789062 369.023438 728.023438 364.699219 730.496094 357.597656 C 732.964844 350.496094 735.742188 345.554688 738.832031 342.777344 C 741.609375 339.996094 746.242188 338.144531 752.417969 337.835938 C 758.59375 337.527344 761.992188 337.835938 762.917969 338.761719 C 763.84375 339.6875 765.386719 339.996094 767.238281 339.6875 C 769.09375 339.378906 771.253906 339.996094 773.105469 341.230469 C 774.960938 342.46875 778.972656 343.703125 785.148438 344.628906 C 791.324219 345.554688 795.03125 346.480469 796.265625 347.40625 C 797.5 348.335938 800.28125 348.953125 803.984375 348.953125 C 807.691406 348.953125 809.851562 349.570312 810.160156 350.804688 C 810.46875 352.039062 814.175781 353.273438 821.277344 354.820312 C 828.378906 356.054688 831.777344 356.980469 831.777344 357.597656 C 831.777344 357.90625 831.777344 358.214844 831.777344 358.523438 C 832.703125 358.523438 833.320312 358.523438 834.246094 358.523438 C 835.789062 358.523438 837.023438 359.140625 837.644531 360.066406 C 838.261719 360.996094 839.1875 361.304688 840.113281 360.996094 C 841.039062 360.683594 841.964844 360.996094 842.890625 361.921875 C 843.816406 362.847656 846.289062 363.773438 849.992188 364.390625 C 854.007812 365.007812 858.640625 364.699219 863.890625 363.464844 C 869.449219 362.230469 872.226562 360.996094 872.226562 360.066406 C 872.226562 359.449219 872.226562 359.140625 872.226562 358.523438 C 873.460938 358.832031 874.386719 359.140625 875.625 359.449219 C 877.785156 360.066406 880.5625 359.757812 883.960938 358.523438 C 887.046875 357.289062 888.902344 356.363281 888.902344 355.746094 C 888.902344 355.4375 888.902344 355.128906 888.902344 354.820312 C 890.136719 355.128906 891.0625 355.128906 892.296875 355.4375 C 894.457031 355.746094 897.546875 355.4375 900.945312 354.511719 C 904.339844 353.582031 906.808594 352.65625 907.738281 351.730469 C 908.664062 350.804688 910.207031 350.496094 912.675781 350.804688 C 913.914062 351.113281 914.839844 351.113281 916.074219 351.421875 C 916.074219 351.113281 916.074219 350.804688 916.074219 350.496094 C 916.074219 349.878906 916.691406 349.261719 917.925781 348.953125 C 918.542969 348.644531 919.160156 348.644531 919.78125 348.335938 C 919.46875 348.023438 919.46875 347.714844 919.160156 347.40625 C 918.851562 347.097656 918.851562 346.789062 918.542969 346.480469 C 919.78125 346.789062 920.707031 346.789062 921.941406 347.097656 C 923.175781 347.40625 924.101562 347.40625 925.335938 347.714844 C 925.335938 347.40625 925.335938 347.097656 925.335938 346.789062 C 925.335938 346.171875 926.574219 345.554688 929.351562 345.246094 C 931.820312 344.9375 933.675781 344.320312 934.292969 343.394531 C 934.910156 342.46875 935.835938 341.847656 937.070312 341.847656 C 938.304688 341.847656 939.234375 341.230469 939.542969 340.304688 C 939.851562 339.378906 940.777344 338.761719 942.011719 338.761719 C 943.246094 338.761719 944.171875 338.144531 944.480469 336.910156 C 944.792969 335.675781 945.410156 335.054688 946.335938 335.054688 C 946.953125 335.054688 947.261719 335.054688 947.878906 335.054688 C 947.878906 333.511719 947.878906 332.277344 947.878906 330.734375 C 947.878906 329.1875 947.878906 327.953125 947.878906 326.410156 C 946.644531 326.410156 945.410156 326.410156 943.863281 326.410156 C 941.394531 326.410156 939.851562 326.101562 939.542969 325.484375 C 939.234375 324.867188 938.304688 324.867188 936.761719 325.484375 C 935.21875 326.101562 934.292969 326.101562 933.984375 325.484375 C 933.675781 325.175781 933.675781 324.867188 933.367188 324.558594 C 932.75 324.867188 932.441406 325.175781 931.820312 325.484375 C 930.894531 326.101562 928.425781 326.410156 924.71875 326.410156 C 920.707031 326.410156 917.308594 327.027344 913.605469 328.261719 C 910.207031 329.5 907.121094 330.117188 904.957031 329.808594 C 902.796875 329.5 899.089844 330.117188 894.460938 331.351562 C 889.519531 332.585938 884.886719 334.4375 879.945312 337.21875 C 875.003906 339.6875 871.917969 341.230469 870.683594 341.230469 C 869.449219 341.230469 867.902344 342.46875 865.742188 344.628906 C 863.890625 346.789062 861.417969 348.023438 858.640625 348.644531 C 855.859375 348.953125 853.082031 348.335938 850.921875 346.789062 C 848.757812 345.246094 846.597656 344.320312 844.746094 344.011719 C 842.890625 343.703125 841.964844 343.085938 841.964844 342.46875 C 841.964844 342.160156 841.964844 341.851562 841.964844 341.539062 C 841.347656 341.539062 840.730469 341.539062 840.113281 341.539062 C 838.878906 341.539062 837.023438 340.304688 834.246094 338.144531 C 831.777344 335.984375 827.761719 333.820312 822.203125 332.277344 C 816.644531 330.734375 813.867188 329.5 813.867188 328.878906 C 813.867188 328.261719 812.941406 327.644531 811.085938 327.335938 C 809.234375 327.027344 807.074219 326.101562 804.910156 324.558594 C 802.75 323.015625 796.574219 320.542969 786.695312 317.457031 C 776.8125 314.367188 770.636719 311.898438 768.785156 310.664062 C 766.929688 309.425781 762.609375 309.425781 755.816406 311.28125 C 749.023438 312.824219 742.539062 313.132812 736.363281 312.207031 C 730.1875 311.28125 726.789062 310.355469 725.863281 309.425781 C 724.9375 308.5 724.320312 307.265625 724.320312 305.414062 C 724.320312 303.867188 724.9375 302.324219 726.171875 300.472656 C 727.40625 298.929688 731.113281 297.382812 737.289062 296.148438 C 743.464844 294.914062 748.40625 293.0625 752.726562 290.28125 C 757.050781 287.8125 759.519531 286.269531 761.0625 286.269531 C 762.300781 286.269531 763.226562 285.652344 763.84375 284.722656 C 764.460938 283.796875 766.003906 282.871094 768.785156 282.253906 C 771.253906 281.636719 772.796875 281.019531 772.796875 280.402344 C 772.796875 280.09375 772.796875 279.785156 772.796875 279.476562 C 773.414062 279.785156 773.726562 279.785156 774.34375 280.09375 C 775.269531 280.402344 776.8125 279.476562 778.664062 277.3125 C 780.519531 275.152344 782.988281 273.609375 785.457031 272.992188 C 787.929688 272.375 790.398438 271.136719 792.25 268.976562 C 794.105469 267.125 795.03125 265.578125 795.03125 264.652344 C 795.03125 263.726562 796.574219 262.183594 799.355469 260.332031 C 802.132812 258.476562 803.984375 256.007812 804.601562 253.539062 C 805.21875 251.066406 806.148438 249.523438 807.382812 249.214844 C 808.617188 248.90625 811.394531 245.816406 815.101562 239.640625 C 819.117188 233.464844 820.96875 229.453125 820.96875 226.980469 C 820.96875 224.511719 821.277344 223.585938 821.894531 222.96875 C 822.203125 222.660156 822.511719 222.660156 822.820312 222.351562 C 822.511719 221.730469 822.203125 221.113281 821.894531 220.496094 C 821.277344 219.261719 821.585938 218.027344 823.4375 216.484375 C 824.984375 215.246094 826.21875 213.394531 826.835938 211.234375 C 827.453125 209.070312 827.761719 206.601562 827.453125 204.132812 C 827.144531 201.660156 827.453125 199.808594 828.378906 199.191406 C 829.304688 198.574219 829.613281 197.03125 829.304688 194.867188 C 828.996094 192.707031 829.304688 189.925781 830.230469 186.53125 C 831.160156 183.441406 831.160156 180.972656 830.230469 179.738281 C 829.304688 178.503906 828.6875 175.722656 828.6875 172.019531 C 828.6875 168.003906 828.070312 164.917969 826.835938 161.828125 C 825.601562 159.050781 824.984375 156.269531 825.292969 153.492188 C 825.601562 151.019531 824.675781 147.933594 822.511719 144.84375 C 820.351562 141.757812 819.117188 138.667969 818.5 136.199219 C 818.191406 133.730469 817.261719 131.875 816.027344 131.257812 C 814.792969 130.640625 814.175781 129.714844 814.484375 128.480469 C 814.792969 127.246094 814.175781 125.699219 812.632812 124.15625 C 811.085938 122.613281 810.160156 121.070312 809.851562 119.214844 C 809.542969 117.671875 808.308594 116.128906 806.457031 114.894531 C 804.601562 113.65625 803.675781 112.421875 803.675781 111.496094 C 803.675781 110.570312 803.058594 109.644531 801.824219 109.027344 C 800.589844 108.410156 798.425781 106.246094 795.648438 102.234375 C 792.871094 98.21875 790.707031 96.367188 789.78125 96.367188 C 788.855469 96.367188 787.003906 94.820312 783.914062 92.042969 C 781.136719 89.265625 778.664062 87.410156 776.8125 87.101562 C 774.960938 86.792969 773.722656 85.867188 772.796875 84.632812 C 772.179688 83.398438 770.019531 82.160156 766.003906 80.617188 C 761.992188 79.382812 759.828125 78.148438 759.210938 77.222656 C 758.59375 76.296875 757.667969 75.984375 756.433594 76.296875 C 755.199219 76.605469 753.652344 75.984375 752.109375 74.75 C 750.566406 73.515625 748.09375 72.28125 745.007812 71.355469 C 741.917969 70.429688 738.523438 70.121094 734.816406 70.429688 C 731.421875 70.738281 728.640625 70.429688 727.097656 69.5 C 725.554688 68.574219 722.464844 67.957031 717.835938 67.648438 C 711.660156 64.253906 707.335938 64.5625 703.628906 65.488281 Z M 703.628906 65.488281 " fill-opacity="1" fill-rule="nonzero"/><path fill="#253a5b" d="M 635.390625 120.140625 C 630.449219 122.613281 627.359375 126.316406 625.816406 130.640625 C 624.273438 135.273438 623.65625 139.90625 623.964844 144.535156 C 624.273438 149.476562 624.890625 151.945312 625.816406 152.257812 C 626.742188 152.566406 627.667969 153.492188 628.285156 155.035156 C 628.902344 156.578125 630.449219 157.8125 633.226562 159.050781 C 635.699219 159.976562 638.167969 160.285156 640.019531 159.976562 C 641.875 159.667969 644.34375 158.433594 646.8125 156.578125 C 649.285156 154.726562 651.445312 152.875 652.679688 151.328125 C 653.914062 149.785156 654.84375 147.933594 655.152344 145.460938 C 655.460938 143.300781 656.078125 141.449219 656.695312 140.523438 C 657.3125 139.597656 658.238281 138.976562 659.164062 138.976562 C 659.78125 138.976562 660.089844 138.976562 660.710938 138.976562 C 660.398438 138.667969 660.089844 138.359375 659.78125 138.050781 C 659.164062 137.433594 658.855469 136.507812 658.855469 135.273438 C 658.855469 134.65625 658.855469 134.039062 658.855469 133.421875 C 659.164062 133.421875 659.472656 133.421875 659.78125 133.421875 C 660.089844 133.421875 660.398438 133.421875 660.710938 133.421875 C 660.089844 132.492188 659.78125 131.875 659.164062 130.949219 C 658.238281 129.40625 657.929688 127.863281 658.238281 126.007812 C 658.546875 124.464844 657.929688 123.539062 656.695312 123.230469 C 655.460938 122.921875 654.222656 121.996094 652.679688 120.453125 C 651.445312 118.90625 649.59375 117.671875 646.8125 117.054688 C 644.035156 116.4375 640.328125 117.363281 635.390625 120.140625 Z M 635.390625 120.140625 " fill-opacity="1" fill-rule="nonzero"/><path fill="#253a5b" d="M 728.640625 119.523438 C 726.171875 121.070312 724.320312 123.539062 723.699219 126.316406 C 723.082031 129.097656 722.15625 130.640625 721.230469 130.640625 C 720.304688 130.640625 719.378906 131.566406 718.761719 133.113281 C 718.144531 134.65625 717.835938 138.050781 718.144531 143.300781 C 718.453125 148.550781 719.378906 151.328125 720.613281 151.636719 C 721.847656 151.945312 723.699219 153.183594 725.863281 155.652344 C 728.023438 157.8125 731.421875 158.742188 736.050781 158.433594 C 740.683594 158.121094 742.84375 157.503906 742.84375 156.578125 C 742.84375 155.652344 744.082031 154.109375 746.242188 151.636719 C 748.402344 149.476562 749.640625 147.316406 749.640625 145.460938 C 749.640625 143.609375 750.257812 141.140625 751.492188 138.667969 C 752.726562 136.199219 753.035156 134.347656 752.109375 133.730469 C 751.183594 133.113281 750.566406 131.566406 750.257812 128.789062 C 749.949219 126.007812 748.710938 123.847656 746.859375 121.996094 C 745.007812 120.140625 741.917969 118.90625 738.214844 117.980469 C 734.507812 117.363281 731.113281 117.980469 728.640625 119.523438 Z M 728.640625 119.523438 " fill-opacity="1" fill-rule="nonzero"/><path fill="#253a5b" d="M 700.542969 210.925781 C 697.453125 212.160156 694.058594 214.011719 690.96875 216.792969 C 687.882812 219.261719 685.101562 222.660156 682.632812 226.363281 C 680.472656 230.378906 679.542969 233.15625 680.164062 235.628906 C 680.78125 237.789062 682.015625 239.023438 683.558594 239.023438 C 685.101562 239.023438 688.191406 237.480469 692.824219 234.703125 C 697.453125 231.921875 704.554688 230.070312 714.128906 229.453125 C 723.699219 228.835938 728.949219 228.21875 730.183594 227.597656 C 731.113281 226.980469 732.039062 226.054688 732.65625 225.128906 C 733.273438 224.203125 733.582031 222.96875 733.273438 221.113281 C 732.964844 219.570312 731.421875 217.410156 728.332031 214.9375 C 725.246094 212.46875 720.921875 210.617188 714.746094 210 C 708.570312 209.382812 703.9375 209.691406 700.542969 210.925781 Z M 700.542969 210.925781 " fill-opacity="1" fill-rule="nonzero"/><path fill="#253a5b" d="M 444.867188 216.792969 C 440.238281 219.261719 438.074219 222.351562 437.765625 225.4375 C 437.457031 228.527344 438.074219 230.996094 439.621094 232.230469 C 441.164062 233.464844 443.015625 234.082031 444.867188 233.773438 C 446.722656 233.464844 447.957031 233.773438 448.265625 234.703125 C 448.574219 235.628906 450.425781 236.246094 453.515625 236.246094 C 456.601562 236.246094 459.382812 234.703125 461.234375 231.304688 C 462.160156 229.761719 463.085938 228.21875 464.011719 226.363281 C 463.394531 226.054688 463.085938 226.054688 462.46875 225.746094 C 461.542969 225.4375 460.925781 223.894531 460.925781 221.421875 C 460.925781 218.953125 460.308594 216.792969 459.074219 215.558594 C 457.835938 214.320312 456.292969 213.394531 454.132812 213.085938 C 452.589844 213.085938 449.191406 214.011719 444.867188 216.792969 Z M 444.867188 216.792969 " fill-opacity="1" fill-rule="nonzero"/><path fill="#253a5b" d="M 881.179688 222.042969 C 876.550781 224.203125 874.386719 226.363281 874.078125 228.21875 C 873.769531 230.070312 872.84375 231.613281 871.609375 233.15625 C 870.375 234.394531 869.757812 235.9375 869.757812 237.480469 C 869.757812 239.023438 870.066406 241.804688 870.683594 245.199219 C 871.300781 248.597656 872.226562 250.757812 873.460938 251.066406 C 874.695312 251.375 875.933594 252.300781 877.476562 253.847656 C 878.710938 255.390625 881.179688 256.625 884.578125 257.242188 C 887.972656 257.859375 892.605469 256.316406 898.164062 252.300781 C 903.722656 248.289062 906.808594 244.890625 907.429688 241.1875 C 908.046875 237.789062 908.046875 235.628906 906.808594 235.011719 C 905.882812 234.394531 905.265625 233.15625 905.265625 230.996094 C 905.265625 229.144531 904.03125 226.671875 901.253906 223.894531 C 898.78125 221.113281 896.3125 219.570312 894.148438 219.878906 C 891.988281 220.1875 890.136719 220.1875 889.210938 219.261719 C 888.59375 218.953125 885.8125 219.570312 881.179688 222.042969 Z M 881.179688 222.042969 " fill-opacity="1" fill-rule="nonzero"/></svg>