<svg xmlns="http://www.w3.org/2000/svg" xmlns:xlink="http://www.w3.org/1999/xlink" width="1920" zoomAndPan="magnify" viewBox="0 0 1440 809.999993" height="1080" preserveAspectRatio="xMidYMid meet" version="1.0"><defs><clipPath id="e6c195c7ce"><path d="M 135.640625 783 L 1271 783 L 1271 789.394531 L 135.640625 789.394531 Z M 135.640625 783 " clip-rule="nonzero"/></clipPath></defs><path fill="#253a5b" d="M 277.910156 555.789062 C 216.308594 547.847656 175.128906 576.414062 172.460938 610.5625 C 167.367188 675.761719 172.3125 714.710938 169.855469 785.441406 L 300.6875 787.015625 Z M 277.910156 555.789062 " fill-opacity="1" fill-rule="evenodd"/><path stroke-linecap="round" transform="matrix(0.625929, 0, 0, 0.625929, 135.850005, 48.436182)" fill-opacity="1" fill="#f9ece4" fill-rule="evenodd" stroke-linejoin="round" d="M 829.632187 210.83257 C 835.361174 272.434781 831.441998 323.758515 826.90499 372.411219 C 820.845244 437.483274 781.154224 468.917814 709.64798 468.537129 L 709.64798 601.483326 C 649.112933 622.708037 586.324983 617.990048 522.164074 597.39565 L 528.978947 257.875166 L 657.150988 131.069844 C 731.403152 121.452885 801.0559 121.783643 829.632187 210.83257 Z M 829.632187 210.83257 " stroke="#010101" stroke-width="2.74" stroke-opacity="1" stroke-miterlimit="1.5"/><path fill="#253a5b" d="M 580.84375 340.890625 C 559.675781 338.464844 536.679688 329.320312 515.511719 320.121094 C 531.375 349.996094 554.929688 375.332031 580.28125 391.660156 Z M 580.84375 340.890625 " fill-opacity="1" fill-rule="evenodd"/><path stroke-linecap="round" transform="matrix(0.625929, 0, 0, 0.625929, 135.850005, 48.436182)" fill="none" stroke-linejoin="round" d="M 766.925367 242.916144 C 781.690926 231.408245 805.405687 232.99963 820.008987 244.863251 " stroke="#000000" stroke-width="3.32" stroke-opacity="1" stroke-miterlimit="1.5"/><path stroke-linecap="round" transform="matrix(0.625929, 0, 0, 0.625929, 135.850005, 48.436182)" fill="none" stroke-linejoin="round" d="M 660.277592 250.710812 C 673.31447 233.885813 695.288068 231.657874 718.715755 239.508708 " stroke="#000000" stroke-width="3.32" stroke-opacity="1" stroke-miterlimit="1.5"/><path stroke-linecap="round" transform="matrix(0.625929, 0, 0, 0.625929, 135.850005, 48.436182)" fill="none" stroke-linejoin="round" d="M 737.219509 266.780683 L 765.951814 318.884508 C 775.662384 343.80997 746.992487 368.960097 718.228978 356.86557 " stroke="#000000" stroke-width="3.32" stroke-opacity="1" stroke-miterlimit="1.5"/><path fill="#253a5b" d="M 575.046875 233.554688 C 575.046875 234.308594 575.007812 235.050781 574.929688 235.785156 C 574.851562 236.523438 574.734375 237.238281 574.582031 237.929688 C 574.429688 238.625 574.242188 239.28125 574.019531 239.90625 C 573.796875 240.53125 573.542969 241.109375 573.261719 241.640625 C 572.976562 242.167969 572.667969 242.644531 572.335938 243.058594 C 572.003906 243.476562 571.652344 243.828125 571.28125 244.117188 C 570.914062 244.402344 570.53125 244.621094 570.140625 244.765625 C 569.746094 244.914062 569.351562 244.988281 568.949219 244.988281 C 568.550781 244.988281 568.152344 244.914062 567.761719 244.765625 C 567.367188 244.621094 566.988281 244.402344 566.617188 244.117188 C 566.246094 243.828125 565.894531 243.476562 565.5625 243.058594 C 565.230469 242.644531 564.921875 242.167969 564.640625 241.640625 C 564.355469 241.109375 564.105469 240.53125 563.882812 239.90625 C 563.660156 239.28125 563.472656 238.625 563.316406 237.929688 C 563.164062 237.238281 563.050781 236.523438 562.972656 235.785156 C 562.894531 235.050781 562.855469 234.308594 562.855469 233.554688 C 562.855469 232.804688 562.894531 232.0625 562.972656 231.328125 C 563.050781 230.589844 563.164062 229.875 563.316406 229.183594 C 563.472656 228.488281 563.660156 227.832031 563.882812 227.207031 C 564.105469 226.582031 564.355469 226.003906 564.640625 225.472656 C 564.921875 224.945312 565.230469 224.46875 565.5625 224.050781 C 565.894531 223.636719 566.246094 223.285156 566.617188 222.996094 C 566.988281 222.710938 567.367188 222.492188 567.761719 222.347656 C 568.152344 222.199219 568.550781 222.125 568.949219 222.125 C 569.351562 222.125 569.746094 222.199219 570.140625 222.347656 C 570.53125 222.492188 570.914062 222.710938 571.28125 222.996094 C 571.652344 223.285156 572.003906 223.636719 572.335938 224.050781 C 572.667969 224.46875 572.976562 224.945312 573.261719 225.472656 C 573.542969 226.003906 573.796875 226.582031 574.019531 227.207031 C 574.242188 227.832031 574.429688 228.488281 574.582031 229.183594 C 574.734375 229.875 574.851562 230.589844 574.929688 231.328125 C 575.007812 232.0625 575.046875 232.804688 575.046875 233.554688 Z M 575.046875 233.554688 " fill-opacity="1" fill-rule="nonzero"/><path fill="#253a5b" d="M 639.363281 232.335938 C 639.363281 233.085938 639.324219 233.832031 639.246094 234.566406 C 639.167969 235.304688 639.050781 236.019531 638.898438 236.710938 C 638.746094 237.40625 638.554688 238.0625 638.335938 238.6875 C 638.113281 239.3125 637.859375 239.890625 637.574219 240.417969 C 637.292969 240.949219 636.984375 241.425781 636.652344 241.839844 C 636.320312 242.257812 635.96875 242.609375 635.597656 242.898438 C 635.230469 243.183594 634.847656 243.402344 634.453125 243.546875 C 634.0625 243.695312 633.664062 243.765625 633.265625 243.765625 C 632.867188 243.765625 632.46875 243.695312 632.078125 243.546875 C 631.683594 243.402344 631.300781 243.183594 630.933594 242.898438 C 630.5625 242.609375 630.210938 242.257812 629.878906 241.839844 C 629.546875 241.425781 629.238281 240.949219 628.957031 240.417969 C 628.671875 239.890625 628.417969 239.3125 628.195312 238.6875 C 627.972656 238.0625 627.785156 237.40625 627.632812 236.710938 C 627.480469 236.019531 627.363281 235.304688 627.285156 234.566406 C 627.207031 233.832031 627.167969 233.085938 627.167969 232.335938 C 627.167969 231.585938 627.207031 230.84375 627.285156 230.105469 C 627.363281 229.371094 627.480469 228.65625 627.632812 227.964844 C 627.785156 227.269531 627.972656 226.609375 628.195312 225.988281 C 628.417969 225.363281 628.671875 224.785156 628.957031 224.253906 C 629.238281 223.722656 629.546875 223.25 629.878906 222.832031 C 630.210938 222.417969 630.5625 222.0625 630.933594 221.777344 C 631.300781 221.488281 631.683594 221.273438 632.078125 221.125 C 632.46875 220.980469 632.867188 220.90625 633.265625 220.90625 C 633.664062 220.90625 634.0625 220.980469 634.453125 221.125 C 634.847656 221.273438 635.230469 221.488281 635.597656 221.777344 C 635.96875 222.0625 636.320312 222.417969 636.652344 222.832031 C 636.984375 223.25 637.292969 223.722656 637.574219 224.253906 C 637.859375 224.785156 638.113281 225.363281 638.335938 225.988281 C 638.554688 226.609375 638.746094 227.269531 638.898438 227.964844 C 639.050781 228.65625 639.167969 229.371094 639.246094 230.105469 C 639.324219 230.84375 639.363281 231.585938 639.363281 232.335938 Z M 639.363281 232.335938 " fill-opacity="1" fill-rule="nonzero"/><path fill="#253a5b" d="M 428.410156 121.734375 C 440.042969 84.316406 462.78125 70.03125 495.753906 77.0625 C 513.957031 63.394531 535.535156 55.355469 569.765625 68.394531 C 616.832031 20.660156 663.753906 69.09375 661.511719 104 C 705.457031 112.566406 718.789062 174.863281 664.179688 183.613281 C 680.054688 209.039062 670.074219 239.5625 656.433594 242.054688 C 657.714844 222.742188 657.539062 203.425781 655.886719 184.113281 C 631.765625 185.117188 614.601562 171.007812 600.4375 146.40625 C 592.136719 158.984375 580.984375 175.746094 557.09375 172.410156 C 535.828125 169.441406 519.25 173.761719 517.757812 188.414062 C 515.492188 210.617188 506.90625 225.863281 490.417969 232.421875 L 466.183594 276.914062 L 465.726562 302.53125 C 457.25 320.101562 424.707031 312.597656 421.742188 288.5625 C 376.398438 294.796875 352.664062 241.210938 396.402344 220.417969 C 367.773438 184.335938 369.421875 132.011719 428.410156 121.734375 Z M 428.410156 121.734375 " fill-opacity="1" fill-rule="evenodd"/><path fill="#253a5b" d="M 563.265625 66.171875 C 516.644531 47.28125 484.328125 64.160156 462.3125 98.507812 C 444.015625 127.058594 448.699219 167.671875 448.445312 200.921875 C 416.027344 219.664062 426.332031 282.011719 468.628906 279.207031 C 518.671875 275.890625 521.925781 211.039062 479.382812 197.722656 C 478.957031 122.671875 492.523438 60.929688 563.265625 66.171875 Z M 563.265625 66.171875 " fill-opacity="1" fill-rule="evenodd"/><path fill="#253a5b" d="M 481.339844 245 C 481.339844 243.207031 479.886719 241.757812 478.097656 241.757812 L 458.640625 241.757812 C 456.847656 241.757812 455.394531 243.207031 455.394531 245 C 455.394531 246.789062 456.847656 248.242188 458.640625 248.242188 L 478.097656 248.242188 C 479.886719 248.242188 481.339844 246.789062 481.339844 245 Z M 481.339844 245 " fill-opacity="1" fill-rule="evenodd"/><path stroke-linecap="round" transform="matrix(0.625929, 0, 0, 0.625929, 135.850005, 48.436182)" fill="none" stroke-linejoin="round" d="M 531.23809 317.580196 C 571.222425 348.727662 620.336943 374.058771 676.3225 395.027612 " stroke="#000000" stroke-width="5.81" stroke-opacity="1" stroke-miterlimit="1.5"/><path stroke-linecap="round" transform="matrix(0.625929, 0, 0, 0.625929, 135.850005, 48.436182)" fill-opacity="1" fill="#253a5b" fill-rule="evenodd" stroke-linejoin="round" d="M 699.575447 390.621659 C 709.797757 393.742022 716.593908 401.187209 714.740412 407.234473 C 712.893157 413.281737 703.095217 415.646972 692.879147 412.526609 C 682.656837 409.400005 675.860686 401.954818 677.707941 395.907554 C 679.561437 389.866531 689.359378 387.495055 699.575447 390.621659 Z M 699.575447 390.621659 " stroke="#000000" stroke-width="5.81" stroke-opacity="1" stroke-miterlimit="1.5"/><path stroke-linecap="round" transform="matrix(0.625929, 0, 0, 0.625929, 135.850005, 48.436182)" fill-opacity="1" fill="#253a5b" fill-rule="evenodd" stroke-linejoin="round" d="M 485.481084 552.593475 C 313.205829 561.112066 261.15817 606.67561 238.192296 674.655844 C 194.819247 803.052551 190.563072 931.455499 193.80825 1059.858446 C 196.086115 1149.974537 243.946246 1177.826899 294.689593 1178.663157 L 640.831488 1178.744286 L 1153.575818 1179.287229 C 1149.856345 1123.214302 1160.109859 1073.051342 1201.417227 1036.031353 L 1057.481111 1018.594763 C 984.258667 806.834431 937.534348 568.838086 738.86082 571.571524 C 680.18551 616.716939 582.954991 609.689881 485.481084 552.593475 Z M 485.481084 552.593475 " stroke="#010101" stroke-width="3.32" stroke-opacity="1" stroke-miterlimit="1.5"/><path stroke-linecap="round" transform="matrix(0.625929, 0, 0, 0.625929, 135.850005, 48.436182)" fill="none" stroke-linejoin="round" d="M 389.960524 813.18125 L 378.546235 1012.285388 " stroke="#010101" stroke-width="3.32" stroke-opacity="1" stroke-miterlimit="1.5"/><path stroke-linecap="round" transform="matrix(0.625929, 0, 0, 0.625929, 135.850005, 48.436182)" fill="none" stroke-linejoin="round" d="M 345.214515 1018.469948 L 626.84602 1016.036065 C 669.101979 1014.943938 676.915369 1026.014987 682.182542 1041.535673 " stroke="#010101" stroke-width="3.32" stroke-opacity="1" stroke-miterlimit="1.5"/><path stroke-linecap="round" transform="matrix(0.625929, 0, 0, 0.625929, 135.850005, 48.436182)" fill="none" stroke-linejoin="round" d="M 608.991302 1016.847359 C 557.842308 1052.812666 552.737393 1126.97746 589.513994 1175.118424 " stroke="#010101" stroke-width="3.32" stroke-opacity="1" stroke-miterlimit="1.5"/><path stroke-linecap="round" transform="matrix(0.625929, 0, 0, 0.625929, 135.850005, 48.436182)" fill="none" stroke-linejoin="round" d="M 1135.090786 1051.38978 C 1111.831598 1077.632035 1110.458639 1106.308174 1113.173355 1132.550429 " stroke="#010101" stroke-width="3.32" stroke-opacity="1" stroke-miterlimit="1.5"/><path fill="#253a5b" d="M 679.195312 572.417969 L 704.597656 703.992188 L 681.738281 705.007812 Z M 679.195312 572.417969 " fill-opacity="1" fill-rule="evenodd"/><path stroke-linecap="round" transform="matrix(0.625929, 0, 0, 0.625929, 135.850005, 48.436182)" fill-opacity="1" fill="#eb8525" fill-rule="evenodd" stroke-linejoin="round" d="M 524.260958 466.359116 C 466.883719 473.766858 424.521667 511.348513 409.756109 563.271358 C 449.79661 640.25696 533.703177 683.623768 621.248089 727.084187 L 712.106826 721.885662 C 751.791606 681.957494 792.730771 635.44536 805.942389 581.581649 C 802.098102 551.170589 750.45609 507.379411 710.07859 493.075666 C 709.367147 558.934053 693.384646 619.12586 666.35606 672.515275 C 611.138112 624.031071 565.225087 570.061268 523.855311 511.878975 Z M 524.260958 466.359116 " stroke="#010101" stroke-width="3.32" stroke-opacity="1" stroke-miterlimit="1.5"/><path fill="#253a5b" d="M 433.753906 412.832031 C 461.523438 436.136719 489.296875 454.214844 517.066406 466.683594 L 510.972656 477.351562 C 477.726562 457.453125 447.996094 436.800781 433.753906 412.832031 Z M 433.753906 412.832031 " fill-opacity="1" fill-rule="evenodd"/><path fill="#253a5b" d="M 578.03125 465.160156 L 602.414062 442.804688 L 584.632812 473.285156 Z M 578.03125 465.160156 " fill-opacity="1" fill-rule="evenodd"/><path stroke-linecap="round" transform="matrix(0.625929, 0, 0, 0.625929, 135.850005, 48.436182)" fill-opacity="1" fill="#eb8525" fill-rule="evenodd" stroke-linejoin="round" d="M 581.288717 719.657723 C 590.799584 677.807411 617.416283 637.130356 649.624672 638.172557 C 693.821497 639.601683 729.505971 667.191935 745.394861 712.025314 C 777.26001 801.92922 799.751589 889.355558 755.947929 949.834438 C 726.841181 990.012235 708.599537 992.221453 693.128776 944.311395 C 680.428898 904.982337 672.035121 860.329939 665.856802 812.669511 C 650.666873 869.316585 629.017793 926.1384 582.586788 960.219007 C 554.709463 980.682349 548.543625 961.735504 555.477072 936.847486 C 562.148409 912.901819 565.555845 888.94367 565.218846 859.743311 C 564.744551 819.353329 568.139506 777.478054 581.288717 719.657723 Z M 581.288717 719.657723 " stroke="#010101" stroke-width="3.32" stroke-opacity="1" stroke-miterlimit="1.5"/><path stroke-linecap="round" transform="matrix(0.625929, 0, 0, 0.625929, 135.850005, 48.436182)" fill="none" stroke-linejoin="round" d="M 645.081423 670.917649 C 690.089543 705.079386 714.128821 756.016195 715.851262 824.801483 " stroke="#010101" stroke-width="3.32" stroke-opacity="1" stroke-miterlimit="1.5"/><path stroke-linecap="round" transform="matrix(0.625929, 0, 0, 0.625929, 135.850005, 48.436182)" fill="none" stroke-linejoin="round" d="M 624.299804 713.772718 C 649.855579 739.833992 663.460363 772.335695 666.505837 810.51646 " stroke="#010101" stroke-width="3.32" stroke-opacity="1" stroke-miterlimit="1.5"/><path fill="#253a5b" d="M 536.777344 510.652344 C 525.640625 536.054688 517.707031 562.738281 511.988281 590.308594 L 518.082031 593.152344 C 524.871094 567.425781 532.835938 542.878906 542.875 520.40625 Z M 536.777344 510.652344 " fill-opacity="1" fill-rule="evenodd"/><path fill="#253a5b" d="M 789.394531 757.277344 L 1028.878906 757.496094 L 1026.871094 786.394531 L 789.554688 786.226562 Z M 789.394531 757.277344 " fill-opacity="1" fill-rule="evenodd"/><path stroke-linecap="round" transform="matrix(0.625929, 0, 0, 0.625929, 135.850005, 48.436182)" fill-opacity="1" fill="#eb8525" fill-rule="evenodd" stroke-linejoin="round" d="M 784.767604 1180.011153 L 808.020551 1135.545977 L 1044.537845 1134.179258 L 1044.700104 1180.011153 Z M 784.767604 1180.011153 " stroke="#010101" stroke-width="3.32" stroke-opacity="1" stroke-miterlimit="1.5"/><path fill="#253a5b" d="M 529.761719 772.886719 L 539.949219 785.324219 L 633.050781 785.75 L 654.886719 744.21875 C 614.332031 739.992188 573.742188 748.570312 529.761719 772.886719 Z M 529.761719 772.886719 " fill-opacity="1" fill-rule="evenodd"/><path stroke-linecap="round" transform="matrix(0.625929, 0, 0, 0.625929, 135.850005, 48.436182)" fill-opacity="1" fill="#f9ece4" fill-rule="evenodd" stroke-linejoin="round" d="M 633.311413 1044.637314 L 775.743514 1042.933596 C 809.480881 1035.962705 833.463993 1033.43521 865.397791 1029.160313 C 911.34826 1023.013197 931.349788 1031.956158 943.413113 1043.707446 L 996.98975 1116.580409 C 1010.488441 1136.656827 970.385532 1150.167999 957.161433 1133.343001 C 949.291877 1154.530267 921.283496 1153.69401 906.88614 1133.892185 C 900.963691 1156.152856 873.055162 1160.515124 853.871169 1133.698722 C 851.724359 1149.993259 826.798897 1155.403969 809.4684 1145.743324 L 777.197603 1119.956642 C 735.883994 1147.153729 694.826254 1160.633698 636.675165 1163.891357 C 602.488465 1128.019661 599.511638 1067.10393 633.311413 1044.637314 Z M 633.311413 1044.637314 " stroke="#010101" stroke-width="3.32" stroke-opacity="1" stroke-miterlimit="1.5"/><path stroke-linecap="round" transform="matrix(0.625929, 0, 0, 0.625929, 135.850005, 48.436182)" fill="none" stroke-linejoin="round" d="M 758.394294 1087.667124 C 794.203583 1073.925044 827.710043 1090.438006 853.54041 1133.211946 " stroke="#010101" stroke-width="3.32" stroke-opacity="1" stroke-miterlimit="1.5"/><path stroke-linecap="round" transform="matrix(0.625929, 0, 0, 0.625929, 135.850005, 48.436182)" fill="none" stroke-linejoin="round" d="M 839.842016 1056.089047 C 865.31042 1079.029958 888.270053 1106.87608 906.53666 1133.280594 " stroke="#010101" stroke-width="3.32" stroke-opacity="1" stroke-miterlimit="1.5"/><path stroke-linecap="round" transform="matrix(0.625929, 0, 0, 0.625929, 135.850005, 48.436182)" fill="none" stroke-linejoin="round" d="M 893.867985 1052.350852 C 918.82465 1078.992514 961.698441 1107.812189 957.379858 1132.338244 " stroke="#010101" stroke-width="3.32" stroke-opacity="1" stroke-miterlimit="1.5"/><path stroke-linecap="round" transform="matrix(0.625929, 0, 0, 0.625929, 135.850005, 48.436182)" fill-opacity="1" fill="#f9ece4" fill-rule="evenodd" stroke-linejoin="round" d="M 1197.14233 1032.349324 C 1166.256974 1062.12383 1155.366907 1098.095378 1153.550855 1133.536463 L 1464.863256 1132.39441 L 1253.502331 966.122734 Z M 1197.14233 1032.349324 " stroke="#010101" stroke-width="3.32" stroke-opacity="1" stroke-miterlimit="1.5"/><path stroke-linecap="round" transform="matrix(0.625929, 0, 0, 0.625929, 135.850005, 48.436182)" fill="none" stroke-linejoin="round" d="M 1296.650714 1095.380661 L 1357.972092 1130.728136 " stroke="#010101" stroke-width="3.32" stroke-opacity="1" stroke-miterlimit="1.5"/><path stroke-linecap="round" transform="matrix(0.625929, 0, 0, 0.625929, 135.850005, 48.436182)" fill="none" stroke-linejoin="round" d="M 1349.322445 1079.498013 L 1417.858104 1130.721896 " stroke="#010101" stroke-width="3.32" stroke-opacity="1" stroke-miterlimit="1.5"/><path stroke-linecap="round" transform="matrix(0.625929, 0, 0, 0.625929, 135.850005, 48.436182)" fill-opacity="1" fill="#010101" fill-rule="evenodd" stroke-linejoin="round" d="M 1162.712242 537.241287 L 1126.353769 537.515879 C 1121.623298 537.60325 1109.01079 536.860603 1104.860707 543.862698 C 1098.557573 554.496896 1095.374803 571.471672 1093.533788 583.366497 L 1009.458721 1015.948695 C 1004.116659 1039.145475 1007.536577 1058.560375 1017.18474 1058.903615 C 1028.998436 1059.321744 1054.404433 1059.615058 1066.168203 1059.390392 Z M 1162.712242 537.241287 " stroke="#010101" stroke-width="3.32" stroke-opacity="1" stroke-miterlimit="1.5"/><path fill="#253a5b" d="M 865.640625 383.648438 L 1283.695312 383.648438 C 1289.402344 383.691406 1296.859375 384.078125 1300.820312 389.625 C 1304.15625 394.292969 1303.054688 402.085938 1301.332031 411.871094 L 1247.386719 693.261719 C 1245.269531 700.996094 1244.402344 706.640625 1239.085938 709.375 C 1233.933594 712.027344 1226.539062 712.828125 1216.011719 712.519531 L 811.355469 712.605469 C 776.191406 713.796875 782.441406 705.914062 790.046875 672.519531 L 842.707031 401.285156 C 843.867188 394.839844 845.191406 390.0625 849.464844 387.238281 C 852.664062 385.121094 857.269531 383.394531 865.640625 383.648438 Z M 865.640625 383.648438 " fill-opacity="1" fill-rule="evenodd"/><path fill="#253a5b" d="M 1001.753906 594.5625 L 1117.109375 593.78125 L 1158.25 752.449219 C 1162.625 774.324219 1159.4375 787.035156 1135.847656 786.566406 L 1021.273438 785.863281 C 1033.132812 766.105469 1030.671875 742.144531 1022.226562 718.640625 C 1008.273438 679.800781 1009.21875 636.101562 1001.753906 594.5625 Z M 1001.753906 594.5625 " fill-opacity="1" fill-rule="evenodd"/><path fill="#010101" d="M 968.855469 693.875 L 990.019531 589.304688 L 1119.644531 589.03125 L 1146.277344 710.980469 L 1116.25 594.644531 L 1002.351562 595.476562 L 1039.84375 750.707031 C 1046.144531 771.207031 1037.316406 785.714844 1018.613281 785.796875 L 900.1875 786.015625 C 905.53125 772.207031 913.492188 771.4375 928.019531 771.816406 L 1010.65625 771.40625 C 1026.386719 771.8125 1027.558594 765.613281 1023.351562 749.238281 L 997.359375 641.4375 C 993.160156 621.226562 992.363281 617.355469 984.773438 643.394531 Z M 968.855469 693.875 " fill-opacity="1" fill-rule="evenodd"/><g clip-path="url(#e6c195c7ce)"><path stroke-linecap="round" transform="matrix(0.625929, 0, 0, 0.625929, 135.850005, 48.436182)" fill="none" stroke-linejoin="round" d="M 5.069958 1178.638194 L 1807.279437 1178.638194 " stroke="#010101" stroke-width="10.14" stroke-opacity="1" stroke-miterlimit="1.5"/></g></svg>