<svg xmlns="http://www.w3.org/2000/svg" xmlns:xlink="http://www.w3.org/1999/xlink" width="1920" zoomAndPan="magnify" viewBox="0 0 1440 809.999993" height="1080" preserveAspectRatio="xMidYMid meet" version="1.0"><defs><clipPath id="523a313c4d"><path d="M 460 20.871094 L 979 20.871094 L 979 102 L 460 102 Z M 460 20.871094 " clip-rule="nonzero"/></clipPath><clipPath id="61e6a1046f"><path d="M 335.871094 83 L 1103.871094 83 L 1103.871094 506 L 335.871094 506 Z M 335.871094 83 " clip-rule="nonzero"/></clipPath><clipPath id="2e022cf12b"><path d="M 336 525 L 1103.871094 525 L 1103.871094 604 L 336 604 Z M 336 525 " clip-rule="nonzero"/></clipPath><clipPath id="bc2a292c14"><path d="M 541 747 L 899 747 L 899 788.871094 L 541 788.871094 Z M 541 747 " clip-rule="nonzero"/></clipPath></defs><path fill="#f6863c" d="M 736.046875 220.515625 C 733.027344 216.507812 733.414062 210.886719 736.96875 207.332031 L 761.511719 182.773438 C 765.066406 179.234375 770.683594 178.832031 774.695312 181.867188 L 787.410156 191.460938 C 793.683594 188.058594 800.273438 185.324219 807.117188 183.292969 L 809.316406 167.527344 C 810.003906 162.5625 814.265625 158.855469 819.28125 158.855469 L 854 158.855469 C 859.035156 158.855469 863.277344 162.5625 863.964844 167.527344 L 866.179688 183.292969 C 873.007812 185.324219 879.597656 188.058594 885.871094 191.460938 L 898.585938 181.867188 C 902.59375 178.847656 908.214844 179.234375 911.769531 182.773438 L 936.328125 207.332031 C 939.867188 210.871094 940.269531 216.507812 937.234375 220.515625 L 927.640625 233.210938 C 931.042969 239.484375 933.777344 246.078125 935.808594 252.921875 L 951.574219 255.121094 C 956.539062 255.808594 960.246094 260.066406 960.246094 265.082031 L 960.246094 299.804688 C 960.246094 304.820312 956.539062 309.082031 951.574219 309.785156 L 935.808594 311.984375 C 933.777344 318.828125 931.042969 325.402344 927.640625 331.691406 L 937.234375 344.390625 C 940.269531 348.398438 939.867188 354.019531 936.328125 357.574219 L 911.769531 382.132812 C 908.214844 385.671875 902.59375 386.074219 898.585938 383.054688 L 885.871094 373.460938 C 879.597656 376.863281 873.007812 379.597656 866.179688 381.628906 L 863.964844 397.394531 C 863.277344 402.359375 859.035156 406.066406 854 406.066406 L 819.28125 406.066406 C 814.265625 406.066406 810.003906 402.378906 809.316406 397.394531 L 807.117188 381.628906 C 800.273438 379.597656 793.683594 376.863281 787.410156 373.460938 L 774.695312 383.054688 C 770.683594 386.074219 765.066406 385.6875 761.511719 382.132812 L 736.96875 357.574219 C 733.414062 354.019531 733.027344 348.398438 736.046875 344.390625 L 745.640625 331.691406 C 742.238281 325.417969 739.503906 318.828125 737.472656 311.984375 L 721.707031 309.785156 C 716.742188 309.082031 713.035156 304.835938 713.035156 299.804688 L 713.035156 265.082031 C 713.035156 260.066406 716.742188 255.808594 721.707031 255.121094 L 737.472656 252.921875 C 739.503906 246.09375 742.238281 239.484375 745.640625 233.210938 Z M 978.96875 417.140625 L 978.96875 121.480469 L 460.855469 121.480469 L 460.855469 417.140625 C 460.855469 431.648438 472.644531 443.441406 487.15625 443.441406 L 952.664062 443.441406 C 967.175781 443.441406 978.96875 431.632812 978.96875 417.140625 Z M 583.589844 202.128906 L 589.628906 209.796875 C 591.035156 211.609375 592.765625 212.445312 595.0625 212.445312 L 651.84375 212.445312 C 666.769531 212.445312 678.898438 224.589844 678.898438 239.503906 L 678.898438 346.066406 C 678.898438 360.980469 666.769531 373.105469 651.84375 373.105469 L 506.628906 373.105469 C 491.71875 373.105469 479.574219 360.980469 479.574219 346.066406 L 479.574219 218.835938 C 479.574219 203.925781 491.71875 191.796875 506.628906 191.796875 L 562.335938 191.796875 C 570.808594 191.796875 578.355469 195.472656 583.589844 202.128906 Z M 583.589844 202.128906 " fill-opacity="1" fill-rule="evenodd"/><path fill="#253a5b" d="M 651.84375 232.574219 L 595.0625 232.574219 C 586.574219 232.574219 579.027344 228.902344 573.792969 222.226562 L 567.753906 214.542969 C 566.34375 212.75 564.617188 211.910156 562.335938 211.910156 L 506.628906 211.910156 C 502.804688 211.910156 499.703125 215.011719 499.703125 218.820312 L 499.703125 270.300781 C 501.917969 269.710938 504.230469 269.359375 506.628906 269.359375 L 577.886719 269.359375 C 580.585938 269.359375 584.359375 268.789062 587.179688 266.15625 C 592.394531 259.851562 599.757812 256.378906 608.011719 256.378906 L 651.84375 256.378906 C 654.242188 256.378906 656.554688 256.714844 658.769531 257.316406 L 658.769531 239.484375 C 658.769531 235.660156 655.667969 232.558594 651.84375 232.558594 Z M 651.84375 232.574219 " fill-opacity="1" fill-rule="evenodd"/><path fill="#253a5b" d="M 602.558594 279.171875 C 602.324219 279.476562 602.074219 279.742188 601.804688 280.011719 C 595.785156 286.132812 587.277344 289.507812 577.886719 289.507812 L 506.628906 289.507812 C 502.804688 289.507812 499.703125 292.609375 499.703125 296.417969 L 499.703125 346.050781 C 499.703125 349.859375 502.804688 352.980469 506.628906 352.980469 L 651.84375 352.980469 C 655.667969 352.980469 658.769531 349.875 658.769531 346.050781 L 658.769531 283.417969 C 658.769531 279.609375 655.667969 276.507812 651.84375 276.507812 L 608.011719 276.507812 C 605.714844 276.507812 603.984375 277.34375 602.558594 279.15625 Z M 602.558594 279.171875 " fill-opacity="1" fill-rule="evenodd"/><path fill="#f6863c" d="M 836.640625 234.472656 C 810.1875 234.472656 788.648438 256.007812 788.648438 282.460938 C 788.648438 308.914062 810.1875 330.453125 836.640625 330.453125 C 863.09375 330.453125 884.628906 308.929688 884.628906 282.460938 C 884.628906 255.992188 863.109375 234.472656 836.640625 234.472656 Z M 836.640625 234.472656 " fill-opacity="1" fill-rule="evenodd"/><path fill="#253a5b" d="M 836.640625 214.34375 C 874.195312 214.34375 904.757812 244.902344 904.757812 282.460938 C 904.757812 320.019531 874.199219 350.578125 836.640625 350.578125 C 799.082031 350.578125 768.523438 320.019531 768.523438 282.460938 C 768.523438 244.902344 799.082031 214.34375 836.640625 214.34375 Z M 757.382812 215.382812 L 765.753906 226.453125 C 768.269531 229.808594 768.472656 234.371094 766.222656 237.910156 C 761.089844 245.996094 757.417969 254.835938 755.335938 264.160156 C 754.414062 268.253906 751.058594 271.339844 746.898438 271.925781 L 733.160156 273.839844 L 733.160156 291.050781 L 746.898438 292.960938 C 751.058594 293.546875 754.414062 296.636719 755.335938 300.726562 C 757.417969 310.070312 761.089844 318.894531 766.222656 326.980469 C 768.472656 330.519531 768.269531 335.082031 765.753906 338.4375 L 757.382812 349.507812 L 769.5625 361.683594 L 780.632812 353.3125 C 783.988281 350.78125 788.550781 350.597656 792.089844 352.84375 C 800.191406 357.976562 809.03125 361.632812 818.339844 363.730469 C 822.449219 364.652344 825.535156 368.007812 826.125 372.167969 L 828.035156 385.90625 L 845.246094 385.90625 L 847.175781 372.167969 C 847.746094 368.023438 850.847656 364.652344 854.941406 363.730469 C 864.265625 361.632812 873.105469 357.976562 881.191406 352.84375 C 884.730469 350.597656 889.292969 350.796875 892.648438 353.3125 L 903.71875 361.683594 L 915.898438 349.507812 L 907.527344 338.4375 C 905.011719 335.097656 904.828125 330.519531 907.074219 326.980469 C 912.207031 318.878906 915.863281 310.054688 917.945312 300.726562 C 918.867188 296.636719 922.222656 293.53125 926.382812 292.960938 L 940.117188 291.050781 L 940.117188 273.839844 L 926.382812 271.925781 C 922.222656 271.339844 918.867188 268.253906 917.945312 264.160156 C 915.863281 254.835938 912.191406 245.996094 907.074219 237.910156 C 904.828125 234.371094 905.011719 229.808594 907.527344 226.453125 L 915.898438 215.382812 L 903.71875 203.203125 L 892.648438 211.574219 C 889.292969 214.105469 884.75 214.292969 881.191406 212.042969 C 873.089844 206.910156 864.265625 203.253906 854.941406 201.15625 C 850.847656 200.234375 847.746094 196.878906 847.175781 192.71875 L 845.246094 178.984375 L 828.035156 178.984375 L 826.125 192.71875 C 825.535156 196.878906 822.449219 200.234375 818.355469 201.15625 C 809.015625 203.253906 800.175781 206.910156 792.089844 212.042969 C 788.550781 214.292969 783.988281 214.105469 780.632812 211.574219 L 769.5625 203.203125 Z M 757.382812 215.382812 " fill-opacity="1" fill-rule="evenodd"/><g clip-path="url(#523a313c4d)"><path fill="#253a5b" d="M 460.855469 101.351562 L 978.96875 101.351562 L 978.96875 47.191406 C 978.96875 32.679688 967.175781 20.886719 952.664062 20.886719 L 487.15625 20.886719 C 472.644531 20.886719 460.855469 32.695312 460.855469 47.191406 Z M 584.710938 51.046875 C 590.265625 51.046875 594.777344 55.558594 594.777344 61.113281 C 594.777344 66.664062 590.265625 71.175781 584.710938 71.175781 L 503.175781 71.175781 C 497.605469 71.175781 493.109375 66.664062 493.109375 61.113281 C 493.109375 55.558594 497.605469 51.046875 503.175781 51.046875 Z M 806.648438 61.113281 C 806.648438 45.125 819.648438 32.125 835.632812 32.125 C 851.621094 32.125 864.621094 45.125 864.621094 61.113281 C 864.621094 77.097656 851.621094 90.097656 835.632812 90.097656 C 819.648438 90.097656 806.648438 77.097656 806.648438 61.113281 Z M 887.296875 61.113281 C 887.296875 45.125 900.296875 32.125 916.265625 32.125 C 932.234375 32.125 945.25 45.125 945.25 61.113281 C 945.25 77.097656 932.25 90.097656 916.265625 90.097656 C 900.28125 90.097656 887.296875 77.097656 887.296875 61.113281 Z M 887.296875 61.113281 " fill-opacity="1" fill-rule="evenodd"/></g><path fill="#253a5b" d="M 826.777344 61.113281 C 826.777344 65.992188 830.753906 69.96875 835.632812 69.96875 C 840.515625 69.96875 844.492188 65.992188 844.492188 61.113281 C 844.492188 56.230469 840.515625 52.253906 835.632812 52.253906 C 830.753906 52.253906 826.777344 56.230469 826.777344 61.113281 Z M 826.777344 61.113281 " fill-opacity="1" fill-rule="evenodd"/><path fill="#253a5b" d="M 907.425781 61.113281 C 907.425781 65.992188 911.402344 69.96875 916.265625 69.96875 C 921.128906 69.96875 925.121094 65.992188 925.121094 61.113281 C 925.121094 56.230469 921.148438 52.253906 916.265625 52.253906 C 911.386719 52.253906 907.425781 56.230469 907.425781 61.113281 Z M 907.425781 61.113281 " fill-opacity="1" fill-rule="evenodd"/><g clip-path="url(#61e6a1046f)"><path fill="#253a5b" d="M 999.097656 83.203125 L 999.097656 417.121094 C 999.097656 442.71875 978.28125 463.550781 952.664062 463.550781 L 487.15625 463.550781 C 461.542969 463.550781 440.726562 442.71875 440.726562 417.121094 L 440.726562 83.203125 L 424.855469 83.203125 C 375.742188 83.203125 335.789062 123.160156 335.789062 172.273438 L 335.789062 505.585938 L 1104.035156 505.585938 L 1104.035156 172.289062 C 1104.035156 123.175781 1064.113281 83.21875 1014.996094 83.21875 L 999.097656 83.21875 Z M 999.097656 83.203125 " fill-opacity="1" fill-rule="evenodd"/></g><g clip-path="url(#2e022cf12b)"><path fill="#f6863c" d="M 1103.277344 525.734375 L 336.558594 525.734375 C 342.210938 569.429688 379.652344 603.3125 424.855469 603.3125 L 1014.996094 603.3125 C 1060.203125 603.3125 1097.59375 569.429688 1103.277344 525.734375 Z M 1103.277344 525.734375 " fill-opacity="1" fill-rule="evenodd"/></g><path fill="#253a5b" d="M 792.222656 623.441406 L 647.597656 623.441406 C 646.003906 660.175781 635.707031 695.570312 617.4375 727.203125 L 822.382812 727.203125 C 804.117188 695.570312 793.816406 660.175781 792.222656 623.441406 Z M 792.222656 623.441406 " fill-opacity="1" fill-rule="evenodd"/><g clip-path="url(#bc2a292c14)"><path fill="#f6863c" d="M 877.183594 747.332031 L 562.636719 747.332031 C 551.113281 747.332031 541.738281 756.695312 541.738281 768.21875 C 541.738281 779.742188 551.113281 789.117188 562.636719 789.117188 L 877.183594 789.117188 C 888.707031 789.117188 898.082031 779.742188 898.082031 768.21875 C 898.082031 756.695312 888.707031 747.332031 877.183594 747.332031 Z M 877.183594 747.332031 " fill-opacity="1" fill-rule="evenodd"/></g></svg>