<svg xmlns="http://www.w3.org/2000/svg" xmlns:xlink="http://www.w3.org/1999/xlink" width="1920" zoomAndPan="magnify" viewBox="0 0 1440 809.999993" height="1080" preserveAspectRatio="xMidYMid meet" version="1.0"><defs><clipPath id="b4ead79ce1"><path d="M 158.015625 24.117188 L 1282 24.117188 L 1282 785.882812 L 158.015625 785.882812 Z M 158.015625 24.117188 " clip-rule="nonzero"/></clipPath><clipPath id="6b17cc42b0"><path d="M 183.515625 24.117188 L 1256.484375 24.117188 C 1270.566406 24.117188 1281.984375 35.53125 1281.984375 49.617188 L 1281.984375 760.382812 C 1281.984375 774.46875 1270.566406 785.882812 1256.484375 785.882812 L 183.515625 785.882812 C 169.433594 785.882812 158.015625 774.46875 158.015625 760.382812 L 158.015625 49.617188 C 158.015625 35.53125 169.433594 24.117188 183.515625 24.117188 Z M 183.515625 24.117188 " clip-rule="nonzero"/></clipPath><clipPath id="6c036a750e"><path d="M 0.015625 0.117188 L 1124 0.117188 L 1124 761.882812 L 0.015625 761.882812 Z M 0.015625 0.117188 " clip-rule="nonzero"/></clipPath><clipPath id="eee4d85c33"><path d="M 25.515625 0.117188 L 1098.484375 0.117188 C 1112.566406 0.117188 1123.984375 11.53125 1123.984375 25.617188 L 1123.984375 736.382812 C 1123.984375 750.46875 1112.566406 761.882812 1098.484375 761.882812 L 25.515625 761.882812 C 11.433594 761.882812 0.015625 750.46875 0.015625 736.382812 L 0.015625 25.617188 C 0.015625 11.53125 11.433594 0.117188 25.515625 0.117188 Z M 25.515625 0.117188 " clip-rule="nonzero"/></clipPath><clipPath id="059e5fa4af"><rect x="0" width="1124" y="0" height="762"/></clipPath></defs><g clip-path="url(#b4ead79ce1)"><g clip-path="url(#6b17cc42b0)"><g transform="matrix(1, 0, 0, 1, 158, 24)"><g clip-path="url(#059e5fa4af)"><g clip-path="url(#6c036a750e)"><g clip-path="url(#eee4d85c33)"><path fill="#253a5b" d="M 0.015625 0.117188 L 1124.816406 0.117188 L 1124.816406 761.882812 L 0.015625 761.882812 Z M 0.015625 0.117188 " fill-opacity="1" fill-rule="nonzero"/></g></g></g></g></g></g></svg>