<svg xmlns="http://www.w3.org/2000/svg" xmlns:xlink="http://www.w3.org/1999/xlink" width="1920" zoomAndPan="magnify" viewBox="0 0 1440 809.999993" height="1080" preserveAspectRatio="xMidYMid meet" version="1.0"><defs><clipPath id="188818d7c6"><path d="M 862 448 L 1092.1875 448 L 1092.1875 748 L 862 748 Z M 862 448 " clip-rule="nonzero"/></clipPath><clipPath id="bf3419f9ea"><path d="M 727 20.917969 L 841 20.917969 L 841 178 L 727 178 Z M 727 20.917969 " clip-rule="nonzero"/></clipPath><clipPath id="85efea6393"><path d="M 601 527 L 861 527 L 861 788.917969 L 601 788.917969 Z M 601 527 " clip-rule="nonzero"/></clipPath><clipPath id="f37b8732c7"><path d="M 347.4375 328 L 412 328 L 412 484 L 347.4375 484 Z M 347.4375 328 " clip-rule="nonzero"/></clipPath></defs><path fill="#253a5b" d="M 568.863281 69.917969 C 567.382812 69.917969 565.972656 69.070312 565.324219 67.636719 C 564.4375 65.683594 565.304688 63.382812 567.257812 62.5 C 580.273438 56.597656 593.769531 51.394531 607.371094 47.039062 C 609.414062 46.386719 611.597656 47.511719 612.253906 49.554688 C 612.90625 51.597656 611.78125 53.78125 609.738281 54.4375 C 596.421875 58.699219 583.207031 63.792969 570.460938 69.570312 C 569.941406 69.808594 569.398438 69.917969 568.863281 69.917969 Z M 649.75 44.015625 C 647.929688 44.015625 646.304688 42.734375 645.941406 40.882812 C 645.527344 38.777344 646.898438 36.738281 649.003906 36.324219 C 662.992188 33.574219 677.320312 31.609375 691.589844 30.476562 C 693.726562 30.308594 695.597656 31.902344 695.765625 34.042969 C 695.9375 36.179688 694.339844 38.050781 692.203125 38.21875 C 678.230469 39.324219 664.199219 41.25 650.5 43.945312 C 650.25 43.992188 649.996094 44.015625 649.75 44.015625 Z M 649.75 44.015625 " fill-opacity="1" fill-rule="nonzero"/><path fill="#253a5b" d="M 576.632812 747.804688 C 576.128906 747.804688 575.609375 747.703125 575.113281 747.492188 C 561.976562 741.898438 549.019531 735.46875 536.597656 728.390625 C 534.734375 727.328125 534.085938 724.957031 535.148438 723.09375 C 536.207031 721.230469 538.578125 720.582031 540.441406 721.644531 C 552.605469 728.578125 565.292969 734.871094 578.15625 740.347656 C 580.128906 741.1875 581.046875 743.46875 580.207031 745.441406 C 579.578125 746.917969 578.144531 747.804688 576.632812 747.804688 Z M 502.828125 705.742188 C 502.03125 705.742188 501.226562 705.496094 500.53125 704.988281 C 489.019531 696.542969 477.867188 687.332031 467.382812 677.617188 C 465.8125 676.160156 465.71875 673.703125 467.175781 672.132812 C 468.632812 670.558594 471.089844 670.464844 472.664062 671.921875 C 482.929688 681.4375 493.851562 690.457031 505.125 698.726562 C 506.855469 699.996094 507.230469 702.425781 505.960938 704.15625 C 505.199219 705.191406 504.019531 705.742188 502.828125 705.742188 Z M 440.523438 648 C 439.429688 648 438.34375 647.539062 437.574219 646.644531 C 428.269531 635.796875 419.496094 624.300781 411.5 612.472656 C 410.296875 610.695312 410.765625 608.285156 412.542969 607.082031 C 414.316406 605.882812 416.730469 606.347656 417.933594 608.125 C 425.761719 619.707031 434.355469 630.964844 443.46875 641.589844 C 444.867188 643.21875 444.679688 645.667969 443.050781 647.066406 C 442.320312 647.691406 441.417969 648 440.523438 648 Z M 392.957031 577.632812 C 391.554688 577.632812 390.199219 576.871094 389.507812 575.539062 C 382.914062 562.855469 376.996094 549.660156 371.917969 536.320312 C 371.152344 534.316406 372.160156 532.074219 374.164062 531.308594 C 376.167969 530.546875 378.410156 531.554688 379.171875 533.554688 C 384.144531 546.617188 389.941406 559.539062 396.398438 571.957031 C 397.386719 573.859375 396.648438 576.203125 394.746094 577.191406 C 394.171875 577.488281 393.558594 577.632812 392.957031 577.632812 Z M 392.957031 577.632812 " fill-opacity="1" fill-rule="nonzero"/><g clip-path="url(#188818d7c6)"><path fill="#253a5b" d="M 866.191406 747.898438 C 864.683594 747.898438 863.246094 747.011719 862.617188 745.53125 C 861.78125 743.558594 862.699219 741.277344 864.671875 740.441406 C 877.53125 734.972656 890.222656 728.691406 902.386719 721.769531 C 904.25 720.707031 906.621094 721.359375 907.683594 723.222656 C 908.742188 725.085938 908.089844 727.457031 906.226562 728.515625 C 893.804688 735.585938 880.84375 742.003906 867.710938 747.585938 C 867.214844 747.796875 866.699219 747.898438 866.191406 747.898438 Z M 940.007812 705.898438 C 938.8125 705.898438 937.632812 705.347656 936.875 704.308594 C 935.605469 702.578125 935.980469 700.148438 937.710938 698.882812 C 948.992188 690.621094 959.917969 681.609375 970.191406 672.105469 C 971.765625 670.648438 974.21875 670.742188 975.675781 672.316406 C 977.132812 673.890625 977.039062 676.347656 975.464844 677.804688 C 964.976562 687.507812 953.816406 696.710938 942.300781 705.148438 C 941.609375 705.652344 940.804688 705.898438 940.007812 705.898438 Z M 1002.347656 648.203125 C 1001.453125 648.203125 1000.550781 647.898438 999.820312 647.265625 C 998.191406 645.871094 998.007812 643.417969 999.40625 641.792969 C 1008.527344 631.171875 1017.128906 619.917969 1024.96875 608.339844 C 1026.171875 606.566406 1028.585938 606.101562 1030.359375 607.304688 C 1032.136719 608.503906 1032.601562 610.917969 1031.398438 612.695312 C 1023.394531 624.515625 1014.609375 636.007812 1005.296875 646.851562 C 1004.527344 647.746094 1003.441406 648.203125 1002.347656 648.203125 Z M 1049.972656 577.859375 C 1049.367188 577.859375 1048.757812 577.71875 1048.183594 577.417969 C 1046.28125 576.429688 1045.542969 574.085938 1046.53125 572.183594 C 1053 559.761719 1058.808594 546.84375 1063.789062 533.78125 C 1064.554688 531.777344 1066.800781 530.773438 1068.800781 531.539062 C 1070.804688 532.300781 1071.808594 534.546875 1071.046875 536.546875 C 1065.957031 549.890625 1060.027344 563.085938 1053.417969 575.769531 C 1052.726562 577.097656 1051.375 577.859375 1049.972656 577.859375 Z M 1080.261719 498.476562 C 1079.945312 498.476562 1079.625 498.4375 1079.304688 498.355469 C 1077.226562 497.828125 1075.96875 495.714844 1076.496094 493.636719 C 1079.933594 480.085938 1082.621094 466.175781 1084.476562 452.289062 C 1084.761719 450.160156 1086.714844 448.667969 1088.839844 448.953125 C 1090.964844 449.238281 1092.457031 451.191406 1092.175781 453.316406 C 1090.277344 467.5 1087.535156 481.710938 1084.023438 495.546875 C 1083.574219 497.304688 1081.996094 498.476562 1080.261719 498.476562 Z M 1080.261719 498.476562 " fill-opacity="1" fill-rule="nonzero"/></g><path fill="#ff9e4b" d="M 993.25 403.269531 C 993.25 407.714844 993.140625 412.160156 992.921875 416.601562 C 992.703125 421.042969 992.375 425.476562 991.941406 429.902344 C 991.503906 434.328125 990.960938 438.738281 990.308594 443.136719 C 989.65625 447.535156 988.894531 451.917969 988.027344 456.277344 C 987.160156 460.640625 986.1875 464.976562 985.105469 469.292969 C 984.023438 473.605469 982.839844 477.890625 981.546875 482.144531 C 980.257812 486.402344 978.863281 490.621094 977.363281 494.808594 C 975.867188 498.996094 974.265625 503.144531 972.566406 507.253906 C 970.863281 511.359375 969.0625 515.425781 967.160156 519.445312 C 965.257812 523.464844 963.261719 527.4375 961.164062 531.359375 C 959.066406 535.28125 956.875 539.148438 954.589844 542.960938 C 952.304688 546.777344 949.925781 550.53125 947.453125 554.230469 C 944.984375 557.925781 942.425781 561.5625 939.777344 565.132812 C 937.125 568.707031 934.390625 572.210938 931.570312 575.648438 C 928.75 579.085938 925.84375 582.453125 922.859375 585.746094 C 919.871094 589.042969 916.808594 592.261719 913.664062 595.40625 C 910.519531 598.550781 907.296875 601.617188 904.003906 604.601562 C 900.707031 607.589844 897.34375 610.492188 893.90625 613.3125 C 890.46875 616.136719 886.960938 618.871094 883.390625 621.519531 C 879.820312 624.167969 876.183594 626.726562 872.484375 629.199219 C 868.789062 631.667969 865.03125 634.046875 861.21875 636.332031 C 857.40625 638.621094 853.535156 640.8125 849.613281 642.90625 C 845.691406 645.003906 841.722656 647.003906 837.703125 648.902344 C 833.679688 650.804688 829.617188 652.605469 825.507812 654.308594 C 821.398438 656.011719 817.253906 657.609375 813.066406 659.109375 C 808.878906 660.605469 804.65625 662 800.402344 663.292969 C 796.144531 664.582031 791.863281 665.769531 787.546875 666.847656 C 783.234375 667.929688 778.898438 668.902344 774.535156 669.769531 C 770.171875 670.640625 765.792969 671.398438 761.394531 672.050781 C 756.996094 672.703125 752.582031 673.25 748.15625 673.683594 C 743.730469 674.121094 739.300781 674.445312 734.855469 674.664062 C 730.414062 674.882812 725.972656 674.992188 721.523438 674.992188 C 717.078125 674.992188 712.632812 674.882812 708.191406 674.664062 C 703.75 674.445312 699.316406 674.121094 694.890625 673.683594 C 690.464844 673.246094 686.054688 672.703125 681.652344 672.050781 C 677.253906 671.398438 672.875 670.640625 668.511719 669.769531 C 664.152344 668.902344 659.8125 667.929688 655.5 666.847656 C 651.1875 665.769531 646.902344 664.582031 642.648438 663.292969 C 638.390625 662 634.171875 660.605469 629.984375 659.109375 C 625.796875 657.609375 621.648438 656.011719 617.539062 654.308594 C 613.429688 652.605469 609.367188 650.804688 605.347656 648.902344 C 601.328125 647.003906 597.355469 645.003906 593.433594 642.90625 C 589.511719 640.8125 585.644531 638.621094 581.828125 636.332031 C 578.015625 634.046875 574.257812 631.667969 570.5625 629.199219 C 566.863281 626.726562 563.230469 624.167969 559.660156 621.519531 C 556.085938 618.871094 552.582031 616.136719 549.144531 613.3125 C 545.707031 610.492188 542.339844 607.589844 539.046875 604.601562 C 535.75 601.617188 532.53125 598.550781 529.386719 595.40625 C 526.242188 592.261719 523.175781 589.042969 520.191406 585.746094 C 517.203125 582.453125 514.300781 579.085938 511.476562 575.648438 C 508.65625 572.210938 505.921875 568.707031 503.273438 565.132812 C 500.625 561.5625 498.0625 557.925781 495.59375 554.230469 C 493.121094 550.53125 490.746094 546.777344 488.457031 542.960938 C 486.171875 539.148438 483.980469 535.28125 481.882812 531.359375 C 479.789062 527.4375 477.789062 523.464844 475.886719 519.445312 C 473.988281 515.425781 472.183594 511.359375 470.484375 507.253906 C 468.78125 503.144531 467.183594 498.996094 465.683594 494.808594 C 464.183594 490.621094 462.789062 486.402344 461.5 482.144531 C 460.210938 477.890625 459.023438 473.605469 457.941406 469.292969 C 456.863281 464.976562 455.886719 460.640625 455.019531 456.277344 C 454.152344 451.917969 453.394531 447.535156 452.742188 443.136719 C 452.089844 438.738281 451.542969 434.328125 451.109375 429.902344 C 450.671875 425.476562 450.34375 421.042969 450.128906 416.601562 C 449.910156 412.160156 449.800781 407.714844 449.800781 403.269531 C 449.800781 398.820312 449.910156 394.375 450.128906 389.933594 C 450.34375 385.492188 450.671875 381.058594 451.109375 376.632812 C 451.542969 372.207031 452.089844 367.796875 452.742188 363.398438 C 453.394531 359 454.152344 354.617188 455.019531 350.257812 C 455.886719 345.894531 456.863281 341.558594 457.941406 337.242188 C 459.023438 332.929688 460.210938 328.644531 461.5 324.390625 C 462.789062 320.136719 464.183594 315.914062 465.683594 311.726562 C 467.183594 307.539062 468.78125 303.390625 470.484375 299.285156 C 472.183594 295.175781 473.988281 291.109375 475.886719 287.089844 C 477.789062 283.070312 479.789062 279.097656 481.882812 275.175781 C 483.980469 271.253906 486.171875 267.386719 488.457031 263.574219 C 490.746094 259.757812 493.121094 256.003906 495.59375 252.304688 C 498.0625 248.609375 500.625 244.972656 503.273438 241.402344 C 505.921875 237.828125 508.65625 234.324219 511.476562 230.886719 C 514.300781 227.449219 517.203125 224.082031 520.191406 220.789062 C 523.175781 217.492188 526.242188 214.273438 529.386719 211.128906 C 532.53125 207.984375 535.75 204.917969 539.046875 201.933594 C 542.339844 198.945312 545.707031 196.042969 549.144531 193.222656 C 552.582031 190.402344 556.085938 187.664062 559.65625 185.015625 C 563.230469 182.367188 566.863281 179.808594 570.5625 177.335938 C 574.257812 174.867188 578.015625 172.488281 581.828125 170.203125 C 585.644531 167.914062 589.511719 165.722656 593.433594 163.628906 C 597.355469 161.53125 601.328125 159.53125 605.347656 157.632812 C 609.367188 155.730469 613.429688 153.929688 617.539062 152.226562 C 621.648438 150.523438 625.796875 148.925781 629.984375 147.425781 C 634.171875 145.929688 638.390625 144.535156 642.648438 143.242188 C 646.902344 141.953125 651.1875 140.765625 655.5 139.6875 C 659.8125 138.605469 664.152344 137.632812 668.511719 136.765625 C 672.875 135.898438 677.253906 135.136719 681.652344 134.484375 C 686.054688 133.832031 690.464844 133.289062 694.890625 132.851562 C 699.316406 132.414062 703.75 132.089844 708.191406 131.871094 C 712.632812 131.652344 717.078125 131.542969 721.523438 131.542969 C 725.972656 131.542969 730.414062 131.652344 734.855469 131.871094 C 739.300781 132.089844 743.730469 132.414062 748.15625 132.851562 C 752.582031 133.289062 756.996094 133.832031 761.394531 134.484375 C 765.792969 135.136719 770.171875 135.898438 774.535156 136.765625 C 778.898438 137.632812 783.234375 138.605469 787.546875 139.6875 C 791.863281 140.765625 796.144531 141.953125 800.402344 143.242188 C 804.65625 144.535156 808.878906 145.929688 813.066406 147.425781 C 817.253906 148.925781 821.398438 150.523438 825.507812 152.226562 C 829.617188 153.929688 833.679688 155.730469 837.703125 157.632812 C 841.722656 159.53125 845.691406 161.53125 849.613281 163.628906 C 853.535156 165.722656 857.402344 167.914062 861.21875 170.203125 C 865.03125 172.488281 868.789062 174.867188 872.484375 177.335938 C 876.183594 179.808594 879.820312 182.367188 883.390625 185.015625 C 886.960938 187.664062 890.46875 190.402344 893.90625 193.222656 C 897.34375 196.042969 900.707031 198.945312 904.003906 201.933594 C 907.296875 204.917969 910.519531 207.984375 913.664062 211.128906 C 916.808594 214.273438 919.871094 217.492188 922.859375 220.789062 C 925.84375 224.082031 928.75 227.449219 931.570312 230.886719 C 934.390625 234.324219 937.125 237.828125 939.777344 241.402344 C 942.425781 244.972656 944.984375 248.609375 947.453125 252.304688 C 949.925781 256.003906 952.304688 259.757812 954.589844 263.574219 C 956.875 267.386719 959.066406 271.253906 961.164062 275.179688 C 963.261719 279.101562 965.257812 283.070312 967.160156 287.089844 C 969.0625 291.109375 970.863281 295.175781 972.566406 299.285156 C 974.265625 303.390625 975.867188 307.539062 977.363281 311.726562 C 978.863281 315.914062 980.257812 320.136719 981.546875 324.390625 C 982.839844 328.644531 984.023438 332.929688 985.105469 337.242188 C 986.1875 341.558594 987.160156 345.894531 988.027344 350.257812 C 988.894531 354.617188 989.65625 359 990.308594 363.398438 C 990.960938 367.796875 991.503906 372.207031 991.941406 376.632812 C 992.375 381.058594 992.703125 385.492188 992.921875 389.933594 C 993.140625 394.375 993.25 398.820312 993.25 403.269531 Z M 993.25 403.269531 " fill-opacity="1" fill-rule="nonzero"/><path fill="#ffffff" d="M 1015.773438 100.6875 C 999.925781 91.546875 980.074219 110.523438 964.53125 100.578125 C 956.175781 95.234375 952.121094 83.269531 945.675781 74.691406 C 936.632812 62.675781 922.921875 57.703125 909.792969 57.789062 C 902.753906 57.835938 895.808594 59.171875 888.929688 61.101562 C 888.691406 61.167969 881.28125 59.863281 871.679688 58.140625 C 843.074219 53.003906 813.570312 57.449219 787.753906 70.800781 L 783.289062 73.109375 C 783.289062 73.109375 769.957031 74.394531 769.957031 74.394531 C 760.691406 75.289062 748.195312 81.402344 750.523438 92.75 C 753.0625 105.128906 771.914062 106.808594 769.929688 119.347656 C 768.484375 128.460938 758.234375 127.667969 750.871094 127.929688 C 728.441406 128.738281 714.792969 158.539062 705.601562 184.367188 C 703.910156 189.113281 702.179688 194.242188 702.953125 199.351562 C 704.660156 210.628906 716.070312 213.453125 724.972656 215.828125 C 733.875 218.199219 744.398438 228.378906 739.976562 238.414062 C 738.316406 242.167969 734.953125 244.277344 733.132812 247.90625 C 729.515625 255.140625 733.707031 265.054688 739.539062 269.429688 C 745.363281 273.800781 752.382812 274.695312 758.734375 277.675781 C 765.089844 280.65625 771.402344 287.226562 771.246094 295.777344 C 771.132812 302.339844 767.238281 307.886719 766.351562 314.355469 C 764.894531 325.011719 771.960938 333.902344 780.308594 337.832031 C 783.824219 339.484375 787.914062 339.40625 791.453125 337.796875 L 1001.347656 242.363281 C 1009.949219 238.453125 1011.679688 226.988281 1004.621094 220.710938 L 1004.480469 220.589844 C 999.8125 216.488281 993.710938 215.988281 988.683594 212.625 C 976.476562 204.457031 976.308594 178.246094 988.414062 169.828125 C 992.707031 166.84375 997.703125 166.039062 1002.414062 164.332031 C 1013.285156 160.40625 1023.304688 150.6875 1026.882812 137.15625 C 1030.464844 123.625 1026.054688 106.621094 1015.773438 100.6875 Z M 1015.773438 100.6875 " fill-opacity="1" fill-rule="nonzero"/><path fill="#253a5b" d="M 785.777344 342.925781 C 783.324219 342.925781 780.898438 342.398438 778.65625 341.34375 C 769.347656 336.960938 760.742188 326.753906 762.507812 313.828125 C 762.960938 310.523438 764.042969 307.574219 765.089844 304.726562 C 766.234375 301.621094 767.3125 298.683594 767.367188 295.707031 C 767.496094 288.613281 761.910156 283.453125 757.085938 281.1875 C 754.921875 280.171875 752.632812 279.410156 750.210938 278.601562 C 745.863281 277.152344 741.363281 275.648438 737.210938 272.535156 C 729.929688 267.074219 725.160156 255.175781 729.664062 246.167969 C 730.757812 243.984375 732.230469 242.308594 733.53125 240.832031 C 734.75 239.449219 735.800781 238.257812 736.425781 236.84375 C 737.46875 234.480469 737.359375 231.949219 736.101562 229.328125 C 734.019531 224.996094 728.921875 220.894531 723.972656 219.578125 L 723.449219 219.4375 C 718.816406 218.207031 713.566406 216.808594 709.042969 214.125 C 703.375 210.761719 700.035156 205.988281 699.117188 199.929688 C 698.167969 193.664062 700.351562 187.539062 701.945312 183.0625 C 705.757812 172.34375 711.789062 156.691406 720.066406 144.574219 C 729.09375 131.363281 739.410156 124.457031 750.730469 124.050781 C 751.484375 124.023438 752.265625 124.007812 753.066406 123.988281 C 761.695312 123.8125 765.414062 123.042969 766.09375 118.738281 C 766.757812 114.566406 763.828125 112.195312 758.601562 108.363281 C 753.726562 104.792969 748.199219 100.742188 746.71875 93.527344 C 745.761719 88.847656 746.726562 84.378906 749.519531 80.601562 C 754.292969 74.136719 763.3125 71.136719 769.585938 70.53125 L 782.171875 69.316406 L 785.972656 67.351562 C 799.195312 60.511719 813.367188 55.917969 828.09375 53.699219 C 842.816406 51.480469 857.710938 51.6875 872.367188 54.320312 C 883.085938 56.246094 887.210938 56.945312 888.621094 57.15625 C 896.539062 54.984375 903.277344 53.949219 909.765625 53.90625 C 909.886719 53.90625 910.007812 53.90625 910.128906 53.90625 C 925.875 53.90625 939.945312 60.617188 948.777344 72.359375 C 951.171875 75.542969 953.21875 79.101562 955.199219 82.542969 C 958.6875 88.609375 961.984375 94.339844 966.625 97.304688 C 973.058594 101.425781 980.992188 99.320312 989.394531 97.089844 C 998.355469 94.710938 1008.507812 92.015625 1017.714844 97.324219 C 1017.714844 97.324219 1017.714844 97.324219 1017.714844 97.328125 C 1029.066406 103.875 1034.863281 122.1875 1030.636719 138.148438 C 1027.007812 151.871094 1016.699219 163.300781 1003.734375 167.984375 C 1002.261719 168.515625 1000.789062 168.960938 999.363281 169.386719 C 996.175781 170.347656 993.164062 171.253906 990.632812 173.015625 C 986.046875 176.203125 983.242188 183.238281 983.316406 191.375 C 983.386719 199.429688 986.273438 206.335938 990.84375 209.398438 C 992.699219 210.636719 994.851562 211.460938 997.132812 212.332031 C 1000.308594 213.542969 1003.910156 214.917969 1007.046875 217.671875 L 1007.203125 217.808594 C 1011.503906 221.632812 1013.558594 227.3125 1012.699219 233.003906 C 1011.835938 238.695312 1008.195312 243.515625 1002.957031 245.898438 L 793.058594 341.328125 C 790.722656 342.394531 788.238281 342.925781 785.777344 342.925781 Z M 848.515625 59.96875 C 828.097656 59.96875 807.746094 64.832031 789.539062 74.246094 L 785.074219 76.554688 C 784.636719 76.78125 784.15625 76.925781 783.664062 76.972656 L 770.332031 78.257812 C 765.277344 78.746094 758.8125 81.085938 755.765625 85.214844 C 754.277344 87.226562 753.808594 89.4375 754.328125 91.96875 C 755.203125 96.25 759.082031 99.089844 763.1875 102.101562 C 768.539062 106.019531 775.199219 110.898438 773.765625 119.953125 C 772.964844 125.011719 769.917969 128.589844 764.957031 130.300781 C 761.230469 131.589844 756.976562 131.675781 753.226562 131.753906 C 752.46875 131.769531 751.726562 131.785156 751.011719 131.808594 C 730.507812 132.546875 717.363281 162.902344 709.257812 185.667969 C 707.550781 190.464844 706.1875 194.757812 706.792969 198.769531 C 707.996094 206.699219 715.28125 209.226562 725.449219 211.933594 L 725.972656 212.074219 C 733.144531 213.984375 740.027344 219.566406 743.101562 225.96875 C 745.351562 230.660156 745.5 235.503906 743.527344 239.980469 C 742.417969 242.488281 740.792969 244.335938 739.359375 245.964844 C 738.226562 247.25 737.25 248.359375 736.605469 249.644531 C 734 254.855469 737.292969 262.890625 741.867188 266.320312 C 745.015625 268.683594 748.730469 269.921875 752.667969 271.234375 C 755.195312 272.078125 757.808594 272.949219 760.386719 274.160156 C 767.308594 277.40625 775.324219 285.039062 775.128906 295.84375 C 775.054688 300.132812 773.695312 303.832031 772.378906 307.40625 C 771.429688 309.980469 770.539062 312.410156 770.199219 314.878906 C 768.964844 323.902344 775.21875 331.140625 781.964844 334.316406 C 784.386719 335.457031 787.257812 335.4375 789.84375 334.261719 L 999.742188 238.828125 C 1002.621094 237.519531 1004.546875 234.972656 1005.019531 231.84375 C 1005.492188 228.714844 1004.40625 225.714844 1002.039062 223.613281 L 1001.902344 223.488281 C 999.835938 221.671875 997.175781 220.660156 994.363281 219.585938 C 991.777344 218.597656 989.105469 217.578125 986.523438 215.851562 C 979.746094 211.316406 975.644531 202.191406 975.546875 191.441406 C 975.453125 180.773438 979.535156 171.269531 986.195312 166.640625 C 989.742188 164.171875 993.496094 163.042969 997.125 161.949219 C 998.511719 161.535156 999.820312 161.140625 1001.09375 160.679688 C 1011.699219 156.851562 1020.140625 147.453125 1023.128906 136.160156 C 1026.402344 123.800781 1022.054688 108.796875 1013.832031 104.050781 C 1007.402344 100.339844 999.621094 102.40625 991.382812 104.59375 C 982.179688 107.035156 971.75 109.804688 962.4375 103.847656 C 956.195312 99.855469 952.265625 93.023438 948.464844 86.414062 C 946.515625 83.027344 944.675781 79.824219 942.570312 77.023438 C 935.164062 67.179688 923.214844 61.578125 909.816406 61.667969 C 903.839844 61.710938 897.535156 62.714844 889.976562 64.835938 C 888.820312 65.160156 888.824219 65.164062 870.992188 61.960938 C 863.5625 60.628906 856.035156 59.96875 848.515625 59.96875 Z M 848.515625 59.96875 " fill-opacity="1" fill-rule="nonzero"/><path fill="#253a5b" d="M 773.542969 421.089844 L 773.542969 381.894531 C 773.542969 374.984375 775.195312 368.148438 778.390625 361.796875 L 810.042969 298.894531 C 812.179688 294.648438 817.097656 291.894531 822.539062 291.894531 L 878.679688 291.894531 C 886.183594 291.894531 892.269531 297.054688 892.269531 303.421875 L 892.269531 421.089844 Z M 773.542969 421.089844 " fill-opacity="1" fill-rule="nonzero"/><path fill="#253a5b" d="M 892.269531 424.972656 C 890.125 424.972656 888.386719 423.234375 888.386719 421.089844 L 888.386719 303.421875 C 888.386719 299.207031 884.03125 295.777344 878.679688 295.777344 L 822.539062 295.777344 C 818.601562 295.777344 814.972656 297.730469 813.511719 300.640625 L 781.859375 363.539062 C 778.917969 369.382812 777.429688 375.558594 777.429688 381.894531 L 777.429688 421.089844 C 777.429688 423.234375 775.6875 424.972656 773.546875 424.972656 C 771.402344 424.972656 769.664062 423.234375 769.664062 421.089844 L 769.664062 381.894531 C 769.664062 374.335938 771.433594 366.988281 774.921875 360.050781 L 806.574219 297.148438 C 809.367188 291.597656 815.632812 288.011719 822.539062 288.011719 L 878.679688 288.011719 C 888.3125 288.011719 896.152344 294.925781 896.152344 303.421875 L 896.152344 421.089844 C 896.152344 423.234375 894.414062 424.972656 892.269531 424.972656 Z M 892.269531 424.972656 " fill-opacity="1" fill-rule="nonzero"/><path fill="#ffffff" d="M 851.1875 310.945312 L 804.179688 310.542969 L 785.257812 348.148438 L 851.1875 348.148438 C 855.527344 348.148438 859.046875 344.828125 859.046875 340.730469 L 859.046875 318.359375 C 859.046875 314.265625 855.527344 310.945312 851.1875 310.945312 Z M 851.1875 310.945312 " fill-opacity="1" fill-rule="nonzero"/><path fill="#253a5b" d="M 851.1875 352.03125 L 785.257812 352.03125 C 783.910156 352.03125 782.660156 351.332031 781.953125 350.1875 C 781.246094 349.039062 781.183594 347.605469 781.789062 346.402344 L 800.710938 308.800781 C 801.371094 307.488281 802.714844 306.664062 804.179688 306.664062 C 804.191406 306.664062 804.203125 306.664062 804.214844 306.664062 L 851.207031 307.0625 C 857.671875 307.074219 862.929688 312.136719 862.929688 318.359375 L 862.929688 340.730469 C 862.929688 346.960938 857.660156 352.03125 851.1875 352.03125 Z M 791.558594 344.265625 L 851.1875 344.265625 C 853.378906 344.265625 855.164062 342.679688 855.164062 340.730469 L 855.164062 318.359375 C 855.164062 316.414062 853.378906 314.828125 851.1875 314.828125 C 851.175781 314.828125 851.164062 314.828125 851.152344 314.828125 L 806.5625 314.449219 Z M 791.558594 344.265625 " fill-opacity="1" fill-rule="nonzero"/><path fill="#253a5b" d="M 1076.089844 424.972656 L 771.246094 424.972656 C 769.101562 424.972656 767.363281 423.234375 767.363281 421.089844 C 767.363281 418.945312 769.101562 417.207031 771.246094 417.207031 L 1076.089844 417.207031 C 1078.234375 417.207031 1079.972656 418.945312 1079.972656 421.089844 C 1079.972656 423.234375 1078.234375 424.972656 1076.089844 424.972656 Z M 1076.089844 424.972656 " fill-opacity="1" fill-rule="nonzero"/><path fill="#ffffff" d="M 792.109375 376.097656 L 773.882812 376.097656 L 773.542969 400.246094 L 792.109375 400.246094 C 798.777344 400.246094 804.179688 394.839844 804.179688 388.171875 C 804.179688 381.503906 798.777344 376.097656 792.109375 376.097656 Z M 792.109375 376.097656 " fill-opacity="1" fill-rule="nonzero"/><path fill="#253a5b" d="M 792.109375 404.128906 L 773.542969 404.128906 C 772.503906 404.128906 771.511719 403.710938 770.78125 402.972656 C 770.050781 402.230469 769.648438 401.230469 769.664062 400.191406 L 770.003906 376.042969 C 770.03125 373.921875 771.761719 372.214844 773.882812 372.214844 L 792.109375 372.214844 C 800.90625 372.214844 808.0625 379.375 808.0625 388.171875 C 808.0625 396.96875 800.90625 404.128906 792.109375 404.128906 Z M 777.480469 396.363281 L 792.109375 396.363281 C 796.625 396.363281 800.296875 392.6875 800.296875 388.171875 C 800.296875 383.65625 796.625 379.980469 792.109375 379.980469 L 777.710938 379.980469 Z M 777.480469 396.363281 " fill-opacity="1" fill-rule="nonzero"/><path fill="#e0e0e0" d="M 981.992188 331.367188 L 1071.71875 331.367188 L 1071.71875 421.089844 L 981.992188 421.089844 Z M 981.992188 331.367188 " fill-opacity="1" fill-rule="nonzero"/><path fill="#253a5b" d="M 1071.71875 424.972656 L 981.992188 424.972656 C 979.847656 424.972656 978.109375 423.234375 978.109375 421.089844 L 978.109375 331.367188 C 978.109375 329.222656 979.847656 327.484375 981.992188 327.484375 L 1071.71875 327.484375 C 1073.863281 327.484375 1075.601562 329.222656 1075.601562 331.367188 L 1075.601562 421.089844 C 1075.601562 423.234375 1073.863281 424.972656 1071.71875 424.972656 Z M 985.875 417.207031 L 1067.835938 417.207031 L 1067.835938 335.25 L 985.875 335.25 Z M 985.875 417.207031 " fill-opacity="1" fill-rule="nonzero"/><path fill="#e0e0e0" d="M 892.269531 331.367188 L 981.992188 331.367188 L 981.992188 421.089844 L 892.269531 421.089844 Z M 892.269531 331.367188 " fill-opacity="1" fill-rule="nonzero"/><path fill="#253a5b" d="M 981.992188 424.972656 L 892.269531 424.972656 C 890.125 424.972656 888.386719 423.234375 888.386719 421.089844 L 888.386719 331.367188 C 888.386719 329.222656 890.125 327.484375 892.269531 327.484375 L 981.992188 327.484375 C 984.136719 327.484375 985.875 329.222656 985.875 331.367188 L 985.875 421.089844 C 985.875 423.234375 984.136719 424.972656 981.992188 424.972656 Z M 896.152344 417.207031 L 978.113281 417.207031 L 978.113281 335.25 L 896.152344 335.25 Z M 896.152344 417.207031 " fill-opacity="1" fill-rule="nonzero"/><path fill="#e0e0e0" d="M 1063.441406 241.640625 C 1068.007812 241.640625 1071.71875 245.347656 1071.71875 249.917969 L 1071.71875 331.367188 L 981.992188 331.367188 L 981.992188 241.640625 Z M 1063.441406 241.640625 " fill-opacity="1" fill-rule="nonzero"/><path fill="#253a5b" d="M 1071.71875 335.25 L 981.992188 335.25 C 979.847656 335.25 978.109375 333.511719 978.109375 331.367188 L 978.109375 241.640625 C 978.109375 239.496094 979.847656 237.757812 981.992188 237.757812 L 1063.441406 237.757812 C 1070.144531 237.757812 1075.601562 243.214844 1075.601562 249.917969 L 1075.601562 331.367188 C 1075.601562 333.511719 1073.863281 335.25 1071.71875 335.25 Z M 985.875 327.484375 L 1067.835938 327.484375 L 1067.835938 249.917969 C 1067.835938 247.496094 1065.863281 245.523438 1063.441406 245.523438 L 985.875 245.523438 Z M 985.875 327.484375 " fill-opacity="1" fill-rule="nonzero"/><path fill="#ffffff" d="M 900.546875 241.640625 L 981.996094 241.640625 L 981.996094 331.367188 L 892.273438 331.367188 L 892.273438 249.917969 C 892.273438 245.347656 895.972656 241.640625 900.546875 241.640625 Z M 900.546875 241.640625 " fill-opacity="1" fill-rule="nonzero"/><path fill="#253a5b" d="M 981.992188 335.25 L 892.273438 335.25 C 890.128906 335.25 888.390625 333.511719 888.390625 331.367188 L 888.390625 249.917969 C 888.390625 243.210938 893.84375 237.757812 900.550781 237.757812 L 981.992188 237.757812 C 984.136719 237.757812 985.875 239.496094 985.875 241.640625 L 985.875 331.367188 C 985.875 332.394531 985.46875 333.382812 984.738281 334.113281 C 984.011719 334.839844 983.023438 335.25 981.992188 335.25 Z M 896.15625 327.484375 L 978.113281 327.484375 L 978.113281 245.523438 L 900.546875 245.523438 C 898.125 245.523438 896.15625 247.496094 896.15625 249.917969 Z M 896.15625 327.484375 " fill-opacity="1" fill-rule="nonzero"/><path fill="#253a5b" d="M 951.957031 241.847656 C 951.957031 198.292969 917.421875 162.824219 874.242188 161.28125 L 874.242188 147.414062 C 874.242188 143.261719 869.109375 141.3125 866.351562 144.417969 L 844.304688 169.257812 C 842.789062 170.972656 842.789062 173.542969 844.304688 175.253906 L 866.351562 200.097656 C 869.109375 203.203125 874.242188 201.253906 874.242188 197.101562 L 874.242188 185.1875 C 902.390625 188.1875 924.3125 212.007812 924.3125 240.949219 L 924.3125 262.679688 C 924.3125 270.296875 930.492188 276.472656 938.109375 276.472656 L 938.398438 276.472656 C 946.074219 276.472656 952.277344 270.199219 952.191406 262.519531 Z M 951.957031 241.847656 " fill-opacity="1" fill-rule="nonzero"/><path fill="#253a5b" d="M 938.398438 280.355469 L 938.109375 280.355469 C 928.359375 280.355469 920.429688 272.425781 920.429688 262.679688 L 920.429688 240.949219 C 920.429688 215.65625 902.527344 194.332031 878.125 189.683594 L 878.125 197.101562 C 878.125 200.621094 876 203.703125 872.710938 204.953125 C 869.417969 206.199219 865.785156 205.304688 863.449219 202.671875 L 841.402344 177.832031 C 838.582031 174.65625 838.582031 169.863281 841.398438 166.683594 L 863.449219 141.839844 C 865.785156 139.207031 869.417969 138.3125 872.707031 139.5625 C 876 140.8125 878.125 143.894531 878.125 147.414062 L 878.125 157.617188 C 898.632812 159.25 917.675781 168.214844 932.082031 183.109375 C 947.398438 198.941406 955.832031 219.792969 955.839844 241.824219 L 956.074219 262.476562 C 956.128906 267.238281 954.3125 271.722656 950.964844 275.109375 C 947.621094 278.492188 943.15625 280.355469 938.398438 280.355469 Z M 874.242188 181.304688 C 874.378906 181.304688 874.515625 181.3125 874.65625 181.324219 C 889.285156 182.886719 902.800781 189.78125 912.714844 200.734375 C 922.699219 211.773438 928.195312 226.054688 928.195312 240.949219 L 928.195312 262.679688 C 928.195312 268.144531 932.644531 272.589844 938.109375 272.589844 L 938.398438 272.589844 C 941.066406 272.589844 943.566406 271.546875 945.445312 269.648438 C 947.324219 267.75 948.339844 265.234375 948.3125 262.5625 L 948.074219 241.890625 C 948.074219 241.875 948.074219 241.859375 948.074219 241.84375 C 948.074219 200.324219 915.582031 166.640625 874.105469 165.164062 C 872.015625 165.089844 870.359375 163.371094 870.359375 161.28125 L 870.359375 147.414062 C 870.359375 147.28125 870.359375 146.976562 869.953125 146.824219 C 869.546875 146.667969 869.34375 146.894531 869.257812 146.992188 L 847.210938 171.835938 C 846.996094 172.074219 846.996094 172.4375 847.210938 172.675781 L 869.257812 197.519531 C 869.34375 197.617188 869.546875 197.84375 869.953125 197.691406 C 870.359375 197.535156 870.359375 197.230469 870.359375 197.097656 L 870.359375 185.1875 C 870.359375 184.085938 870.828125 183.035156 871.648438 182.296875 C 872.363281 181.65625 873.289062 181.304688 874.242188 181.304688 Z M 955.839844 241.84375 L 955.84375 241.84375 Z M 955.839844 241.84375 " fill-opacity="1" fill-rule="nonzero"/><path fill="#ffffff" d="M 815.398438 423.46875 C 815.398438 436.292969 825.796875 446.691406 838.621094 446.691406 C 851.445312 446.691406 861.84375 436.292969 861.84375 423.46875 C 861.84375 410.644531 851.445312 400.246094 838.621094 400.246094 C 825.796875 400.246094 815.398438 410.644531 815.398438 423.46875 Z M 815.398438 423.46875 " fill-opacity="1" fill-rule="nonzero"/><path fill="#253a5b" d="M 838.621094 450.574219 C 823.675781 450.574219 811.515625 438.414062 811.515625 423.46875 C 811.515625 408.523438 823.675781 396.363281 838.621094 396.363281 C 853.566406 396.363281 865.726562 408.523438 865.726562 423.46875 C 865.726562 438.414062 853.566406 450.574219 838.621094 450.574219 Z M 838.621094 404.128906 C 827.957031 404.128906 819.28125 412.804688 819.28125 423.46875 C 819.28125 434.132812 827.957031 442.808594 838.621094 442.808594 C 849.285156 442.808594 857.960938 434.132812 857.960938 423.46875 C 857.960938 412.804688 849.285156 404.128906 838.621094 404.128906 Z M 838.621094 404.128906 " fill-opacity="1" fill-rule="nonzero"/><path fill="#ffffff" d="M 986.753906 423.46875 C 986.753906 436.292969 997.152344 446.691406 1009.976562 446.691406 C 1022.800781 446.691406 1033.199219 436.292969 1033.199219 423.46875 C 1033.199219 410.644531 1022.800781 400.246094 1009.976562 400.246094 C 997.152344 400.246094 986.753906 410.644531 986.753906 423.46875 Z M 986.753906 423.46875 " fill-opacity="1" fill-rule="nonzero"/><path fill="#253a5b" d="M 1009.976562 450.574219 C 995.027344 450.574219 982.871094 438.414062 982.871094 423.46875 C 982.871094 408.523438 995.027344 396.363281 1009.976562 396.363281 C 1024.921875 396.363281 1037.082031 408.523438 1037.082031 423.46875 C 1037.082031 438.414062 1024.921875 450.574219 1009.976562 450.574219 Z M 1009.976562 404.128906 C 999.308594 404.128906 990.636719 412.804688 990.636719 423.46875 C 990.636719 434.132812 999.3125 442.808594 1009.976562 442.808594 C 1020.640625 442.808594 1029.316406 434.132812 1029.316406 423.46875 C 1029.316406 412.804688 1020.640625 404.128906 1009.976562 404.128906 Z M 1009.976562 404.128906 " fill-opacity="1" fill-rule="nonzero"/><path fill="#e0e0e0" d="M 836.292969 77.160156 C 836.292969 126.25 788.894531 173.761719 783.925781 173.761719 C 779.421875 173.761719 731.5625 126.25 731.5625 77.160156 C 731.5625 48.238281 755.007812 24.792969 783.925781 24.792969 C 812.847656 24.792969 836.292969 48.238281 836.292969 77.160156 Z M 836.292969 77.160156 " fill-opacity="1" fill-rule="nonzero"/><g clip-path="url(#bf3419f9ea)"><path fill="#253a5b" d="M 783.925781 177.644531 C 782.734375 177.644531 780.246094 177.644531 771.070312 168.292969 C 764.945312 162.042969 758.480469 154.15625 752.867188 146.085938 C 741.378906 129.566406 727.679688 104.195312 727.679688 77.160156 C 727.679688 46.144531 752.914062 20.910156 783.929688 20.910156 C 814.941406 20.910156 840.175781 46.144531 840.175781 77.160156 C 840.175781 104.261719 826.574219 129.597656 815.164062 146.082031 C 809.542969 154.203125 803.082031 162.09375 796.972656 168.296875 C 787.765625 177.644531 785.074219 177.644531 783.925781 177.644531 Z M 783.925781 28.675781 C 757.195312 28.675781 735.445312 50.425781 735.445312 77.160156 C 735.445312 121.503906 775.84375 163.875 783.96875 169.503906 C 787.585938 167.03125 798.753906 156.570312 810.039062 139.816406 C 820.246094 124.667969 832.410156 101.496094 832.410156 77.160156 C 832.410156 50.425781 810.660156 28.675781 783.925781 28.675781 Z M 783.925781 28.675781 " fill-opacity="1" fill-rule="nonzero"/></g><path fill="#ffffff" d="M 812.367188 77.160156 C 812.367188 78.089844 812.320312 79.019531 812.230469 79.945312 C 812.140625 80.875 812.003906 81.792969 811.820312 82.707031 C 811.640625 83.621094 811.414062 84.523438 811.140625 85.414062 C 810.871094 86.304688 810.558594 87.183594 810.203125 88.042969 C 809.847656 88.902344 809.449219 89.742188 809.007812 90.566406 C 808.570312 91.386719 808.089844 92.183594 807.574219 92.960938 C 807.054688 93.734375 806.503906 94.480469 805.910156 95.199219 C 805.320312 95.921875 804.695312 96.609375 804.039062 97.269531 C 803.378906 97.925781 802.6875 98.550781 801.96875 99.144531 C 801.25 99.734375 800.503906 100.289062 799.726562 100.804688 C 798.953125 101.324219 798.15625 101.800781 797.332031 102.242188 C 796.511719 102.679688 795.671875 103.078125 794.8125 103.433594 C 793.949219 103.789062 793.074219 104.105469 792.183594 104.375 C 791.292969 104.644531 790.390625 104.871094 789.476562 105.050781 C 788.5625 105.234375 787.640625 105.371094 786.714844 105.460938 C 785.789062 105.554688 784.859375 105.597656 783.925781 105.597656 C 782.996094 105.597656 782.066406 105.554688 781.140625 105.460938 C 780.214844 105.371094 779.292969 105.234375 778.378906 105.050781 C 777.464844 104.871094 776.5625 104.644531 775.671875 104.375 C 774.78125 104.105469 773.90625 103.789062 773.042969 103.433594 C 772.183594 103.078125 771.34375 102.679688 770.519531 102.242188 C 769.699219 101.800781 768.902344 101.324219 768.128906 100.804688 C 767.351562 100.289062 766.605469 99.734375 765.886719 99.144531 C 765.164062 98.550781 764.476562 97.925781 763.816406 97.269531 C 763.160156 96.609375 762.535156 95.921875 761.945312 95.199219 C 761.351562 94.480469 760.796875 93.734375 760.28125 92.960938 C 759.761719 92.183594 759.285156 91.386719 758.847656 90.566406 C 758.40625 89.742188 758.007812 88.902344 757.652344 88.042969 C 757.296875 87.183594 756.984375 86.304688 756.710938 85.414062 C 756.441406 84.523438 756.214844 83.621094 756.035156 82.707031 C 755.851562 81.792969 755.714844 80.875 755.625 79.945312 C 755.535156 79.019531 755.488281 78.089844 755.488281 77.160156 C 755.488281 76.226562 755.535156 75.296875 755.625 74.371094 C 755.714844 73.445312 755.851562 72.523438 756.035156 71.609375 C 756.214844 70.695312 756.441406 69.792969 756.710938 68.902344 C 756.984375 68.011719 757.296875 67.136719 757.652344 66.277344 C 758.007812 65.414062 758.40625 64.574219 758.847656 63.753906 C 759.285156 62.929688 759.761719 62.132812 760.28125 61.359375 C 760.796875 60.585938 761.351562 59.835938 761.945312 59.117188 C 762.535156 58.398438 763.160156 57.707031 763.816406 57.050781 C 764.476562 56.390625 765.164062 55.765625 765.886719 55.175781 C 766.605469 54.585938 767.351562 54.03125 768.128906 53.511719 C 768.902344 52.996094 769.699219 52.515625 770.519531 52.078125 C 771.34375 51.636719 772.183594 51.242188 773.042969 50.882812 C 773.90625 50.527344 774.78125 50.214844 775.671875 49.945312 C 776.5625 49.671875 777.464844 49.449219 778.378906 49.265625 C 779.292969 49.085938 780.214844 48.949219 781.140625 48.855469 C 782.066406 48.765625 782.996094 48.71875 783.925781 48.71875 C 784.859375 48.71875 785.789062 48.765625 786.714844 48.855469 C 787.640625 48.949219 788.5625 49.085938 789.476562 49.265625 C 790.390625 49.449219 791.292969 49.671875 792.183594 49.945312 C 793.074219 50.214844 793.949219 50.527344 794.8125 50.882812 C 795.671875 51.242188 796.511719 51.636719 797.332031 52.078125 C 798.15625 52.515625 798.953125 52.996094 799.726562 53.511719 C 800.503906 54.03125 801.25 54.585938 801.96875 55.175781 C 802.691406 55.765625 803.378906 56.390625 804.039062 57.050781 C 804.695312 57.707031 805.320312 58.398438 805.910156 59.117188 C 806.503906 59.835938 807.058594 60.585938 807.574219 61.359375 C 808.089844 62.132812 808.570312 62.929688 809.007812 63.753906 C 809.449219 64.574219 809.847656 65.414062 810.203125 66.277344 C 810.558594 67.136719 810.871094 68.011719 811.140625 68.902344 C 811.414062 69.792969 811.640625 70.695312 811.820312 71.609375 C 812.003906 72.523438 812.140625 73.445312 812.230469 74.371094 C 812.320312 75.296875 812.367188 76.226562 812.367188 77.160156 Z M 812.367188 77.160156 " fill-opacity="1" fill-rule="nonzero"/><path fill="#253a5b" d="M 783.925781 109.480469 C 766.105469 109.480469 751.605469 94.980469 751.605469 77.160156 C 751.605469 59.335938 766.105469 44.835938 783.925781 44.835938 C 801.75 44.835938 816.25 59.335938 816.25 77.160156 C 816.25 94.980469 801.75 109.480469 783.925781 109.480469 Z M 783.925781 52.601562 C 770.386719 52.601562 759.371094 63.617188 759.371094 77.160156 C 759.371094 90.699219 770.386719 101.714844 783.925781 101.714844 C 797.46875 101.714844 808.484375 90.699219 808.484375 77.160156 C 808.484375 63.617188 797.46875 52.601562 783.925781 52.601562 Z M 783.925781 52.601562 " fill-opacity="1" fill-rule="nonzero"/><path fill="#253a5b" d="M 810.152344 177.644531 L 759.199219 177.644531 C 757.054688 177.644531 755.316406 175.90625 755.316406 173.761719 C 755.316406 171.617188 757.054688 169.882812 759.199219 169.882812 L 810.152344 169.882812 C 812.296875 169.882812 814.035156 171.617188 814.035156 173.761719 C 814.035156 175.90625 812.296875 177.644531 810.152344 177.644531 Z M 810.152344 177.644531 " fill-opacity="1" fill-rule="nonzero"/><path fill="#253a5b" d="M 605.742188 584.765625 L 575.832031 584.765625 C 565.921875 584.765625 557.886719 592.800781 557.886719 602.710938 L 557.886719 662.53125 C 557.886719 672.445312 565.921875 680.480469 575.832031 680.480469 L 605.742188 680.480469 Z M 605.742188 584.765625 " fill-opacity="1" fill-rule="nonzero"/><path fill="#253a5b" d="M 605.742188 684.359375 L 575.832031 684.359375 C 563.792969 684.359375 554.003906 674.570312 554.003906 662.53125 L 554.003906 602.710938 C 554.003906 590.675781 563.792969 580.882812 575.832031 580.882812 L 605.742188 580.882812 C 607.886719 580.882812 609.625 582.621094 609.625 584.765625 L 609.625 680.480469 C 609.625 682.621094 607.886719 684.359375 605.742188 684.359375 Z M 575.832031 588.648438 C 568.078125 588.648438 561.769531 594.957031 561.769531 602.710938 L 561.769531 662.53125 C 561.769531 670.289062 568.078125 676.597656 575.832031 676.597656 L 601.859375 676.597656 L 601.859375 588.648438 Z M 575.832031 588.648438 " fill-opacity="1" fill-rule="nonzero"/><path fill="#253a5b" d="M 856.988281 680.476562 L 886.898438 680.476562 C 896.808594 680.476562 904.84375 672.445312 904.84375 662.53125 L 904.84375 602.710938 C 904.84375 592.800781 896.808594 584.765625 886.898438 584.765625 L 856.988281 584.765625 Z M 856.988281 680.476562 " fill-opacity="1" fill-rule="nonzero"/><path fill="#253a5b" d="M 886.898438 684.359375 L 856.988281 684.359375 C 854.84375 684.359375 853.105469 682.621094 853.105469 680.476562 L 853.105469 584.765625 C 853.105469 582.621094 854.84375 580.882812 856.988281 580.882812 L 886.898438 580.882812 C 898.933594 580.882812 908.726562 590.675781 908.726562 602.710938 L 908.726562 662.53125 C 908.726562 674.570312 898.933594 684.359375 886.898438 684.359375 Z M 860.871094 676.59375 L 886.898438 676.59375 C 894.652344 676.59375 900.960938 670.285156 900.960938 662.53125 L 900.960938 602.710938 C 900.960938 594.957031 894.652344 588.648438 886.898438 588.648438 L 860.871094 588.648438 Z M 860.871094 676.59375 " fill-opacity="1" fill-rule="nonzero"/><path fill="#253a5b" d="M 575.832031 588.648438 C 573.6875 588.648438 571.949219 586.910156 571.949219 584.765625 C 571.949219 566.074219 575.609375 547.9375 582.832031 530.863281 C 589.808594 514.371094 599.792969 499.5625 612.507812 486.847656 C 625.222656 474.128906 640.035156 464.144531 656.523438 457.171875 C 673.597656 449.949219 691.734375 446.285156 710.425781 446.285156 L 752.300781 446.285156 C 770.996094 446.285156 789.128906 449.949219 806.203125 457.171875 C 822.695312 464.144531 837.503906 474.128906 850.21875 486.847656 C 862.9375 499.5625 872.921875 514.371094 879.894531 530.863281 C 887.117188 547.9375 890.78125 566.074219 890.78125 584.765625 C 890.78125 586.910156 889.042969 588.648438 886.898438 588.648438 C 884.753906 588.648438 883.015625 586.910156 883.015625 584.765625 C 883.015625 512.691406 824.378906 454.050781 752.300781 454.050781 L 710.425781 454.050781 C 638.351562 454.050781 579.714844 512.691406 579.714844 584.765625 C 579.714844 586.910156 577.976562 588.648438 575.832031 588.648438 Z M 575.832031 588.648438 " fill-opacity="1" fill-rule="nonzero"/><path fill="#ffffff" d="M 662.570312 734.316406 L 662.636719 777.015625 C 662.644531 783.3125 669.46875 787.238281 674.917969 784.082031 L 767.257812 734.316406 L 827.078125 734.316406 C 843.597656 734.316406 856.988281 720.925781 856.988281 704.40625 L 856.988281 560.835938 C 856.988281 544.316406 843.597656 530.925781 827.078125 530.925781 L 644.625 530.925781 C 628.105469 530.925781 605.742188 544.316406 605.742188 560.835938 L 605.742188 704.40625 C 605.742188 720.925781 619.132812 734.316406 635.652344 734.316406 L 692.480469 734.316406 Z M 662.570312 734.316406 " fill-opacity="1" fill-rule="nonzero"/><g clip-path="url(#85efea6393)"><path fill="#253a5b" d="M 670.816406 789.085938 C 668.75 789.085938 666.6875 788.542969 664.800781 787.460938 C 661.019531 785.285156 658.757812 781.382812 658.753906 777.019531 L 658.695312 738.199219 L 635.652344 738.199219 C 617.019531 738.199219 601.859375 723.039062 601.859375 704.40625 L 601.859375 560.835938 C 601.859375 551.941406 607.144531 543.304688 616.746094 536.515625 C 625.136719 530.585938 635.558594 527.042969 644.625 527.042969 L 827.078125 527.042969 C 845.710938 527.042969 860.871094 542.203125 860.871094 560.835938 L 860.871094 704.40625 C 860.871094 723.039062 845.710938 738.199219 827.078125 738.199219 L 768.234375 738.199219 L 676.808594 787.472656 C 674.929688 788.546875 672.875 789.085938 670.816406 789.085938 Z M 666.460938 738.199219 L 666.519531 777.007812 C 666.519531 779.25 668.027344 780.355469 668.671875 780.730469 C 669.320312 781.101562 671.035156 781.84375 672.972656 780.722656 C 673.003906 780.703125 673.042969 780.683594 673.078125 780.664062 L 765.414062 730.898438 C 765.980469 730.59375 766.613281 730.433594 767.257812 730.433594 L 827.078125 730.433594 C 841.429688 730.433594 853.105469 718.757812 853.105469 704.40625 L 853.105469 560.835938 C 853.105469 546.484375 841.429688 534.808594 827.078125 534.808594 L 644.625 534.808594 C 637.214844 534.808594 628.25 537.894531 621.230469 542.855469 C 613.855469 548.070312 609.625 554.625 609.625 560.835938 L 609.625 704.40625 C 609.625 718.757812 621.300781 730.433594 635.652344 730.433594 L 662.566406 730.433594 C 662.566406 730.433594 662.570312 730.433594 662.574219 730.433594 L 692.480469 730.433594 C 694.625 730.433594 696.363281 732.171875 696.363281 734.316406 C 696.363281 736.460938 694.625 738.199219 692.480469 738.199219 Z M 666.460938 738.199219 " fill-opacity="1" fill-rule="nonzero"/></g><path fill="#253a5b" d="M 758.285156 704.40625 L 746.320312 704.40625 C 738.058594 704.40625 731.363281 711.101562 731.363281 719.363281 C 731.363281 727.621094 738.058594 734.316406 746.320312 734.316406 L 773.238281 734.316406 L 773.238281 719.363281 C 773.238281 711.101562 766.542969 704.40625 758.285156 704.40625 Z M 758.285156 704.40625 " fill-opacity="1" fill-rule="nonzero"/><path fill="#253a5b" d="M 773.238281 738.199219 L 746.320312 738.199219 C 735.933594 738.199219 727.480469 729.75 727.480469 719.363281 C 727.480469 708.972656 735.933594 700.523438 746.320312 700.523438 L 758.285156 700.523438 C 768.671875 700.523438 777.121094 708.972656 777.121094 719.363281 L 777.121094 734.316406 C 777.121094 736.460938 775.382812 738.199219 773.238281 738.199219 Z M 746.320312 708.289062 C 740.214844 708.289062 735.246094 713.257812 735.246094 719.363281 C 735.246094 725.46875 740.214844 730.433594 746.320312 730.433594 L 769.355469 730.433594 L 769.355469 719.363281 C 769.355469 713.257812 764.390625 708.289062 758.285156 708.289062 Z M 746.320312 708.289062 " fill-opacity="1" fill-rule="nonzero"/><path fill="#253a5b" d="M 731.363281 678.378906 C 715.988281 678.378906 701.304688 672.789062 690.015625 662.636719 C 678.761719 652.519531 671.867188 638.792969 670.601562 623.980469 C 670.417969 621.84375 672.003906 619.960938 674.140625 619.78125 C 676.277344 619.59375 678.15625 621.179688 678.339844 623.316406 C 680.605469 649.839844 703.898438 670.613281 731.363281 670.613281 C 758.820312 670.613281 782.109375 649.847656 784.386719 623.34375 C 784.570312 621.207031 786.453125 619.625 788.589844 619.804688 C 790.726562 619.988281 792.308594 621.871094 792.125 624.007812 C 790.851562 638.8125 783.957031 652.535156 772.703125 662.648438 C 761.414062 672.792969 746.734375 678.378906 731.363281 678.378906 Z M 731.363281 678.378906 " fill-opacity="1" fill-rule="nonzero"/><path fill="#253a5b" d="M 693.832031 612.578125 C 685.09375 612.578125 677.984375 605.46875 677.984375 596.730469 C 677.984375 587.992188 685.09375 580.882812 693.832031 580.882812 C 702.570312 580.882812 709.679688 587.992188 709.679688 596.730469 C 709.679688 605.46875 702.570312 612.578125 693.832031 612.578125 Z M 693.832031 588.648438 C 689.375 588.648438 685.75 592.273438 685.75 596.730469 C 685.75 601.1875 689.375 604.8125 693.832031 604.8125 C 698.289062 604.8125 701.914062 601.1875 701.914062 596.730469 C 701.914062 592.273438 698.289062 588.648438 693.832031 588.648438 Z M 693.832031 588.648438 " fill-opacity="1" fill-rule="nonzero"/><path fill="#253a5b" d="M 768.898438 612.578125 C 760.160156 612.578125 753.050781 605.46875 753.050781 596.730469 C 753.050781 587.992188 760.160156 580.882812 768.898438 580.882812 C 777.632812 580.882812 784.742188 587.992188 784.742188 596.730469 C 784.742188 605.46875 777.636719 612.578125 768.898438 612.578125 Z M 768.898438 588.648438 C 764.441406 588.648438 760.816406 592.273438 760.816406 596.730469 C 760.816406 601.1875 764.441406 604.8125 768.898438 604.8125 C 773.351562 604.8125 776.976562 601.1875 776.976562 596.730469 C 776.976562 592.273438 773.351562 588.648438 768.898438 588.648438 Z M 768.898438 588.648438 " fill-opacity="1" fill-rule="nonzero"/><path fill="#e0e0e0" d="M 608.867188 120.097656 L 594.058594 134.902344 C 585.863281 129.742188 576.980469 126.117188 567.808594 124.035156 L 567.808594 103.09375 C 567.808594 99.628906 565.003906 96.820312 561.539062 96.820312 L 536.453125 96.820312 C 532.988281 96.820312 530.179688 99.628906 530.179688 103.09375 L 530.179688 124.035156 C 521.011719 126.117188 512.128906 129.742188 503.933594 134.902344 L 489.125 120.097656 C 486.675781 117.648438 482.707031 117.648438 480.257812 120.097656 L 462.515625 137.835938 C 460.066406 140.285156 460.066406 144.257812 462.515625 146.707031 L 477.324219 161.511719 C 472.160156 169.710938 468.535156 178.59375 466.457031 187.761719 L 445.511719 187.761719 C 442.046875 187.761719 439.238281 190.570312 439.238281 194.03125 L 439.238281 219.121094 C 439.238281 222.582031 442.046875 225.390625 445.511719 225.390625 L 466.457031 225.390625 C 468.535156 234.558594 472.160156 243.441406 477.324219 251.640625 L 462.515625 266.445312 C 460.066406 268.894531 460.066406 272.867188 462.515625 275.316406 L 480.257812 293.054688 C 482.707031 295.503906 486.675781 295.503906 489.125 293.054688 L 503.933594 278.25 C 512.128906 283.410156 521.011719 287.035156 530.179688 289.117188 L 530.179688 310.058594 C 530.179688 313.523438 532.988281 316.332031 536.453125 316.332031 L 561.539062 316.332031 C 565.003906 316.332031 567.8125 313.523438 567.8125 310.058594 L 567.8125 289.117188 C 576.980469 287.035156 585.863281 283.410156 594.058594 278.25 L 608.867188 293.054688 C 611.316406 295.503906 615.285156 295.503906 617.734375 293.054688 L 635.472656 275.316406 C 637.921875 272.867188 637.921875 268.894531 635.472656 266.445312 L 620.667969 251.640625 C 625.832031 243.441406 629.457031 234.558594 631.535156 225.390625 L 652.480469 225.390625 C 655.941406 225.390625 658.75 222.582031 658.75 219.121094 L 658.75 194.03125 C 658.75 190.570312 655.941406 187.761719 652.480469 187.761719 L 631.535156 187.761719 C 629.453125 178.59375 625.832031 169.710938 620.667969 161.511719 L 635.472656 146.707031 C 637.921875 144.257812 637.921875 140.285156 635.472656 137.835938 L 617.734375 120.097656 C 615.285156 117.648438 611.316406 117.648438 608.867188 120.097656 Z M 608.867188 120.097656 " fill-opacity="1" fill-rule="nonzero"/><path fill="#253a5b" d="M 561.539062 320.214844 L 536.453125 320.214844 C 530.851562 320.214844 526.296875 315.660156 526.296875 310.058594 L 526.296875 292.160156 C 518.652344 290.140625 511.355469 287.121094 504.527344 283.144531 L 491.871094 295.800781 C 487.914062 299.757812 481.46875 299.757812 477.511719 295.800781 L 459.773438 278.0625 C 457.855469 276.144531 456.796875 273.59375 456.796875 270.878906 C 456.796875 268.167969 457.855469 265.617188 459.773438 263.699219 L 472.425781 251.046875 C 468.453125 244.21875 465.429688 236.917969 463.410156 229.273438 L 445.511719 229.273438 C 442.800781 229.273438 440.25 228.21875 438.332031 226.300781 C 436.414062 224.382812 435.359375 221.832031 435.359375 219.121094 L 435.359375 194.03125 C 435.359375 188.433594 439.914062 183.878906 445.511719 183.878906 L 463.410156 183.878906 C 465.429688 176.234375 468.453125 168.933594 472.425781 162.105469 L 459.773438 149.453125 C 457.855469 147.535156 456.796875 144.984375 456.796875 142.273438 C 456.796875 139.558594 457.855469 137.007812 459.773438 135.089844 L 477.511719 117.351562 C 479.429688 115.433594 481.980469 114.378906 484.691406 114.378906 C 487.402344 114.378906 489.953125 115.433594 491.871094 117.351562 L 504.527344 130.007812 C 511.355469 126.03125 518.652344 123.011719 526.296875 120.992188 L 526.296875 103.09375 C 526.296875 97.492188 530.851562 92.9375 536.453125 92.9375 L 561.539062 92.9375 C 564.25 92.9375 566.800781 93.996094 568.71875 95.914062 C 570.636719 97.832031 571.695312 100.378906 571.695312 103.09375 L 571.695312 120.992188 C 579.339844 123.011719 586.636719 126.035156 593.464844 130.007812 L 606.121094 117.351562 C 608.039062 115.433594 610.585938 114.378906 613.300781 114.378906 C 616.011719 114.378906 618.5625 115.433594 620.480469 117.351562 L 638.21875 135.089844 C 642.179688 139.050781 642.179688 145.492188 638.21875 149.453125 L 625.566406 162.105469 C 629.539062 168.933594 632.5625 176.234375 634.578125 183.878906 L 652.480469 183.878906 C 658.078125 183.878906 662.632812 188.433594 662.632812 194.03125 L 662.632812 219.121094 C 662.632812 221.832031 661.578125 224.382812 659.660156 226.300781 C 657.742188 228.21875 655.191406 229.273438 652.480469 229.273438 L 637.808594 229.273438 C 635.664062 229.273438 633.925781 227.535156 633.925781 225.390625 C 633.925781 223.246094 635.664062 221.507812 637.808594 221.507812 L 652.480469 221.507812 C 653.117188 221.507812 653.71875 221.261719 654.167969 220.808594 C 654.621094 220.359375 654.867188 219.757812 654.867188 219.121094 L 654.867188 194.03125 C 654.867188 192.714844 653.796875 191.644531 652.480469 191.644531 L 631.535156 191.644531 C 629.722656 191.644531 628.152344 190.386719 627.75 188.621094 C 625.730469 179.71875 622.242188 171.296875 617.382812 163.582031 C 616.417969 162.046875 616.640625 160.050781 617.921875 158.765625 L 632.730469 143.960938 C 633.660156 143.03125 633.660156 141.515625 632.730469 140.582031 L 614.988281 122.84375 C 614.539062 122.390625 613.9375 122.144531 613.300781 122.144531 C 612.664062 122.144531 612.0625 122.390625 611.609375 122.84375 L 596.804688 137.648438 C 595.523438 138.933594 593.523438 139.15625 591.988281 138.191406 C 584.277344 133.332031 575.851562 129.84375 566.953125 127.824219 C 565.183594 127.421875 563.929688 125.851562 563.929688 124.035156 L 563.929688 103.09375 C 563.929688 102.453125 563.679688 101.855469 563.230469 101.402344 C 562.777344 100.953125 562.175781 100.703125 561.539062 100.703125 L 536.453125 100.703125 C 535.136719 100.703125 534.0625 101.777344 534.0625 103.09375 L 534.0625 124.035156 C 534.0625 125.851562 532.808594 127.421875 531.039062 127.824219 C 522.140625 129.84375 513.714844 133.332031 506.003906 138.191406 C 504.46875 139.15625 502.46875 138.933594 501.1875 137.648438 L 486.382812 122.84375 C 485.929688 122.394531 485.328125 122.144531 484.691406 122.144531 C 484.054688 122.144531 483.453125 122.394531 483.003906 122.84375 L 465.261719 140.582031 C 464.8125 141.035156 464.5625 141.632812 464.5625 142.273438 C 464.5625 142.910156 464.8125 143.511719 465.261719 143.960938 L 480.070312 158.769531 C 481.351562 160.050781 481.574219 162.050781 480.609375 163.582031 C 475.75 171.296875 472.261719 179.722656 470.242188 188.621094 C 469.839844 190.386719 468.269531 191.644531 466.457031 191.644531 L 445.511719 191.644531 C 444.195312 191.644531 443.125 192.714844 443.125 194.03125 L 443.125 219.121094 C 443.125 219.757812 443.371094 220.359375 443.824219 220.808594 C 444.273438 221.261719 444.875 221.507812 445.511719 221.507812 L 466.457031 221.507812 C 468.269531 221.507812 469.839844 222.765625 470.242188 224.53125 C 472.261719 233.433594 475.75 241.855469 480.609375 249.570312 C 481.574219 251.105469 481.351562 253.101562 480.070312 254.386719 L 465.261719 269.191406 C 464.8125 269.644531 464.5625 270.242188 464.5625 270.878906 C 464.5625 271.519531 464.8125 272.117188 465.261719 272.570312 L 483.003906 290.308594 C 483.933594 291.242188 485.449219 291.242188 486.382812 290.308594 L 501.1875 275.503906 C 502.46875 274.222656 504.46875 273.996094 506.003906 274.964844 C 513.714844 279.824219 522.140625 283.308594 531.039062 285.328125 C 532.808594 285.730469 534.0625 287.304688 534.0625 289.117188 L 534.0625 310.058594 C 534.0625 311.378906 535.136719 312.449219 536.453125 312.449219 L 561.539062 312.449219 C 562.175781 312.449219 562.777344 312.199219 563.230469 311.75 C 563.679688 311.296875 563.929688 310.699219 563.929688 310.058594 L 563.929688 295.386719 C 563.929688 293.242188 565.667969 291.503906 567.8125 291.503906 C 569.957031 291.503906 571.695312 293.242188 571.695312 295.386719 L 571.695312 310.058594 C 571.695312 312.773438 570.636719 315.320312 568.71875 317.238281 C 566.800781 319.15625 564.25 320.214844 561.539062 320.214844 Z M 561.539062 320.214844 " fill-opacity="1" fill-rule="nonzero"/><path fill="#253a5b" d="M 530.191406 156.730469 L 560.082031 186.621094 C 563.757812 190.292969 563.757812 196.25 560.082031 199.921875 L 542.34375 217.664062 C 538.667969 221.335938 532.714844 221.335938 529.039062 217.664062 L 499.148438 187.773438 C 492.003906 206.761719 496.019531 228.992188 511.300781 244.269531 C 526.578125 259.550781 548.8125 263.570312 567.796875 256.421875 L 615.515625 304.140625 C 624.089844 312.714844 637.988281 312.714844 646.5625 304.140625 C 655.132812 295.570312 655.132812 281.671875 646.5625 273.097656 L 598.84375 225.378906 C 605.988281 206.390625 601.96875 184.160156 586.691406 168.878906 C 571.414062 153.601562 549.179688 149.582031 530.191406 156.730469 Z M 530.191406 156.730469 " fill-opacity="1" fill-rule="nonzero"/><path fill="#253a5b" d="M 631.039062 314.441406 C 624.425781 314.441406 617.808594 311.921875 612.773438 306.886719 L 566.78125 260.894531 C 546.386719 267.558594 523.78125 262.246094 508.554688 247.015625 C 492.730469 231.191406 487.613281 207.402344 495.515625 186.40625 C 495.980469 185.171875 497.039062 184.257812 498.332031 183.976562 C 499.621094 183.699219 500.960938 184.09375 501.894531 185.027344 L 531.785156 214.917969 C 532.828125 215.960938 534.214844 216.535156 535.691406 216.535156 C 537.167969 216.535156 538.554688 215.960938 539.597656 214.917969 L 557.335938 197.179688 C 558.382812 196.136719 558.957031 194.746094 558.957031 193.273438 C 558.957031 191.796875 558.382812 190.410156 557.339844 189.363281 L 527.449219 159.476562 C 526.515625 158.542969 526.121094 157.199219 526.398438 155.910156 C 526.675781 154.621094 527.589844 153.5625 528.824219 153.097656 C 549.820312 145.191406 573.613281 150.308594 589.4375 166.132812 C 604.664062 181.363281 609.976562 203.96875 603.316406 224.359375 L 649.308594 270.351562 C 659.378906 280.425781 659.378906 296.8125 649.308594 306.886719 C 644.269531 311.921875 637.65625 314.441406 631.039062 314.441406 Z M 567.796875 252.539062 C 568.808594 252.539062 569.800781 252.933594 570.542969 253.675781 L 618.261719 301.394531 C 625.308594 308.441406 636.769531 308.441406 643.816406 301.394531 C 650.859375 294.351562 650.859375 282.886719 643.816406 275.84375 L 596.097656 228.125 C 595.019531 227.046875 594.671875 225.4375 595.207031 224.011719 C 602.039062 205.863281 597.621094 185.300781 583.945312 171.625 C 571.746094 159.425781 554.058594 154.589844 537.5 158.542969 L 562.828125 183.875 C 565.339844 186.382812 566.722656 189.722656 566.722656 193.269531 C 566.722656 196.820312 565.339844 200.160156 562.828125 202.667969 L 545.089844 220.40625 C 539.90625 225.589844 531.476562 225.589844 526.292969 220.40625 L 500.964844 195.078125 C 497.011719 211.640625 501.84375 229.324219 514.046875 241.527344 C 527.71875 255.199219 548.28125 259.621094 566.429688 252.789062 C 566.875 252.621094 567.339844 252.539062 567.796875 252.539062 Z M 567.796875 252.539062 " fill-opacity="1" fill-rule="nonzero"/><path fill="#ffffff" d="M 407.011719 463.714844 L 586.179688 463.714844 C 594.496094 463.714844 602.472656 460.414062 608.355469 454.53125 L 723.933594 338.953125 C 732.964844 329.921875 732.964844 315.28125 723.933594 306.253906 C 715.445312 297.765625 701.871094 297.1875 692.691406 304.921875 L 615.871094 369.636719 C 612.347656 362.222656 604.789062 357.097656 596.035156 357.097656 L 549.441406 357.097656 C 541.125 357.097656 533.148438 353.792969 527.265625 347.914062 L 525.140625 345.785156 C 516.320312 336.964844 504.355469 332.011719 491.882812 332.011719 L 460.769531 332.011719 C 452.453125 332.011719 444.476562 335.3125 438.59375 341.195312 L 422.691406 357.097656 L 407.882812 357.097656 Z M 407.011719 463.714844 " fill-opacity="1" fill-rule="nonzero"/><path fill="#253a5b" d="M 586.179688 467.597656 L 407.011719 467.597656 C 404.867188 467.597656 403.128906 465.859375 403.128906 463.714844 C 403.128906 461.570312 404.867188 459.835938 407.011719 459.835938 L 586.179688 459.835938 C 593.519531 459.835938 600.417969 456.976562 605.609375 451.785156 L 721.191406 336.207031 C 728.691406 328.707031 728.691406 316.5 721.191406 309 C 714.070312 301.878906 702.890625 301.402344 695.191406 307.890625 L 618.371094 372.605469 C 617.449219 373.382812 616.222656 373.6875 615.046875 373.429688 C 613.871094 373.175781 612.878906 372.390625 612.363281 371.304688 C 609.382812 365.03125 602.972656 360.980469 596.035156 360.980469 L 549.441406 360.980469 C 540.027344 360.980469 531.175781 357.3125 524.523438 350.660156 L 522.398438 348.53125 C 514.246094 340.382812 503.40625 335.894531 491.882812 335.894531 L 460.769531 335.894531 C 453.429688 335.894531 446.527344 338.75 441.339844 343.941406 L 425.4375 359.84375 C 424.710938 360.570312 423.722656 360.980469 422.691406 360.980469 L 407.882812 360.980469 C 405.738281 360.980469 404 359.242188 404 357.097656 C 404 354.953125 405.738281 353.214844 407.882812 353.214844 L 421.082031 353.214844 L 435.847656 338.449219 C 442.503906 331.792969 451.355469 328.128906 460.769531 328.128906 L 491.882812 328.128906 C 505.480469 328.128906 518.269531 333.425781 527.886719 343.042969 L 530.011719 345.167969 C 535.203125 350.355469 542.101562 353.214844 549.441406 353.214844 L 596.03125 353.214844 C 604.289062 353.214844 612.023438 357.226562 616.839844 363.742188 L 690.1875 301.953125 C 695.375 297.582031 701.964844 295.335938 708.738281 295.625 C 715.511719 295.914062 721.886719 298.714844 726.679688 303.507812 C 737.207031 314.035156 737.207031 331.167969 726.679688 341.695312 L 611.097656 457.277344 C 604.445312 463.933594 595.59375 467.597656 586.179688 467.597656 Z M 586.179688 467.597656 " fill-opacity="1" fill-rule="nonzero"/><path fill="#253a5b" d="M 596.035156 404.882812 L 498.820312 404.882812 C 496.675781 404.882812 494.9375 403.144531 494.9375 401 C 494.9375 398.855469 496.675781 397.117188 498.820312 397.117188 L 596.035156 397.117188 C 605.996094 397.117188 614.101562 389.011719 614.101562 379.046875 C 614.101562 376.335938 613.519531 373.730469 612.363281 371.304688 C 611.445312 369.367188 612.265625 367.050781 614.203125 366.128906 C 616.140625 365.210938 618.457031 366.03125 619.378906 367.96875 C 621.03125 371.445312 621.867188 375.171875 621.867188 379.046875 C 621.867188 393.292969 610.277344 404.882812 596.035156 404.882812 Z M 596.035156 404.882812 " fill-opacity="1" fill-rule="nonzero"/><path fill="#253a5b" d="M 398.472656 479.394531 L 360.84375 479.394531 C 355.648438 479.394531 351.4375 475.183594 351.4375 469.988281 L 351.4375 341.417969 C 351.4375 336.222656 355.648438 332.011719 360.84375 332.011719 L 398.472656 332.011719 C 403.667969 332.011719 407.882812 336.222656 407.882812 341.417969 L 407.882812 469.988281 C 407.882812 475.183594 403.667969 479.394531 398.472656 479.394531 Z M 398.472656 479.394531 " fill-opacity="1" fill-rule="nonzero"/><g clip-path="url(#f37b8732c7)"><path fill="#253a5b" d="M 398.472656 483.277344 L 360.84375 483.277344 C 353.515625 483.277344 347.554688 477.316406 347.554688 469.988281 L 347.554688 341.417969 C 347.554688 334.089844 353.515625 328.128906 360.84375 328.128906 L 398.472656 328.128906 C 405.800781 328.128906 411.765625 334.089844 411.765625 341.417969 L 411.765625 469.988281 C 411.765625 477.316406 405.800781 483.277344 398.472656 483.277344 Z M 360.84375 335.894531 C 357.796875 335.894531 355.320312 338.371094 355.320312 341.417969 L 355.320312 469.988281 C 355.320312 473.035156 357.796875 475.511719 360.84375 475.511719 L 398.472656 475.511719 C 401.519531 475.511719 404 473.035156 404 469.988281 L 404 341.417969 C 404 338.371094 401.519531 335.894531 398.472656 335.894531 Z M 360.84375 335.894531 " fill-opacity="1" fill-rule="nonzero"/></g></svg>