<svg xmlns="http://www.w3.org/2000/svg" xmlns:xlink="http://www.w3.org/1999/xlink" width="1920" zoomAndPan="magnify" viewBox="0 0 1440 809.999993" height="1080" preserveAspectRatio="xMidYMid meet" version="1.0"><defs><clipPath id="87fcd85c63"><path d="M 185.015625 19.292969 L 1255 19.292969 L 1255 790.707031 L 185.015625 790.707031 Z M 185.015625 19.292969 " clip-rule="nonzero"/></clipPath><clipPath id="447e376c0e"><path d="M 210.515625 19.292969 L 1229.484375 19.292969 C 1243.566406 19.292969 1254.984375 30.710938 1254.984375 44.792969 L 1254.984375 765.207031 C 1254.984375 779.289062 1243.566406 790.707031 1229.484375 790.707031 L 210.515625 790.707031 C 196.433594 790.707031 185.015625 779.289062 185.015625 765.207031 L 185.015625 44.792969 C 185.015625 30.710938 196.433594 19.292969 210.515625 19.292969 Z M 210.515625 19.292969 " clip-rule="nonzero"/></clipPath><clipPath id="a3bca6f3bc"><path d="M 0.015625 0.292969 L 1070 0.292969 L 1070 771.707031 L 0.015625 771.707031 Z M 0.015625 0.292969 " clip-rule="nonzero"/></clipPath><clipPath id="dc4ccd03a9"><path d="M 25.515625 0.292969 L 1044.484375 0.292969 C 1058.566406 0.292969 1069.984375 11.710938 1069.984375 25.792969 L 1069.984375 746.207031 C 1069.984375 760.289062 1058.566406 771.707031 1044.484375 771.707031 L 25.515625 771.707031 C 11.433594 771.707031 0.015625 760.289062 0.015625 746.207031 L 0.015625 25.792969 C 0.015625 11.710938 11.433594 0.292969 25.515625 0.292969 Z M 25.515625 0.292969 " clip-rule="nonzero"/></clipPath><clipPath id="e231716c56"><rect x="0" width="1070" y="0" height="772"/></clipPath></defs><g clip-path="url(#87fcd85c63)"><g clip-path="url(#447e376c0e)"><g transform="matrix(1, 0, 0, 1, 185, 19)"><g clip-path="url(#e231716c56)"><g clip-path="url(#a3bca6f3bc)"><g clip-path="url(#dc4ccd03a9)"><path fill="#e8eaed" d="M 0.015625 0.292969 L 1069.75 0.292969 L 1069.75 771.707031 L 0.015625 771.707031 Z M 0.015625 0.292969 " fill-opacity="1" fill-rule="nonzero"/></g></g></g></g></g></g></svg>