<svg xmlns="http://www.w3.org/2000/svg" xmlns:xlink="http://www.w3.org/1999/xlink" width="1920" zoomAndPan="magnify" viewBox="0 0 1440 809.999993" height="1080" preserveAspectRatio="xMidYMid meet" version="1.0"><defs><clipPath id="63da8ee2ed"><path d="M 917 97 L 1093.035156 97 L 1093.035156 593 L 917 593 Z M 917 97 " clip-rule="nonzero"/></clipPath><clipPath id="9c04feedc2"><path d="M 346.785156 38 L 696 38 L 696 415 L 346.785156 415 Z M 346.785156 38 " clip-rule="nonzero"/></clipPath><clipPath id="87413152a7"><path d="M 445 658 L 719 658 L 719 784.03125 L 445 784.03125 Z M 445 658 " clip-rule="nonzero"/></clipPath><clipPath id="b09d8df42e"><path d="M 695 25.78125 L 896 25.78125 L 896 130 L 695 130 Z M 695 25.78125 " clip-rule="nonzero"/></clipPath></defs><g clip-path="url(#63da8ee2ed)"><path fill="#253a5b" d="M 1043.988281 592.347656 C 1043.359375 592.347656 1042.71875 592.195312 1042.125 591.867188 C 1040.25 590.839844 1039.566406 588.484375 1040.59375 586.609375 C 1047.316406 574.359375 1053.390625 561.59375 1058.644531 548.671875 C 1059.453125 546.691406 1061.714844 545.738281 1063.695312 546.542969 C 1065.675781 547.351562 1066.628906 549.609375 1065.824219 551.59375 C 1060.457031 564.789062 1054.253906 577.824219 1047.386719 590.335938 C 1046.683594 591.621094 1045.355469 592.347656 1043.988281 592.347656 Z M 1075.929688 513.820312 C 1075.589844 513.820312 1075.238281 513.773438 1074.894531 513.675781 C 1072.832031 513.105469 1071.625 510.96875 1072.195312 508.90625 C 1075.921875 495.46875 1078.902344 481.648438 1081.058594 467.839844 C 1081.386719 465.726562 1083.367188 464.277344 1085.484375 464.609375 C 1087.597656 464.9375 1089.042969 466.917969 1088.714844 469.035156 C 1086.515625 483.136719 1083.46875 497.25 1079.664062 510.976562 C 1079.1875 512.695312 1077.628906 513.820312 1075.929688 513.820312 Z M 1089.015625 430.050781 C 1088.960938 430.050781 1088.910156 430.046875 1088.855469 430.046875 C 1086.71875 429.960938 1085.054688 428.15625 1085.140625 426.019531 C 1085.339844 421.066406 1085.441406 416.035156 1085.441406 411.058594 C 1085.441406 402.050781 1085.109375 392.949219 1084.453125 384.003906 C 1084.296875 381.867188 1085.902344 380.011719 1088.035156 379.855469 C 1090.164062 379.699219 1092.027344 381.300781 1092.183594 383.4375 C 1092.851562 392.570312 1093.191406 401.863281 1093.191406 411.058594 C 1093.191406 416.136719 1093.085938 421.277344 1092.882812 426.328125 C 1092.800781 428.414062 1091.082031 430.050781 1089.015625 430.050781 Z M 1082.796875 345.503906 C 1080.972656 345.503906 1079.347656 344.210938 1078.996094 342.355469 C 1076.386719 328.636719 1072.949219 314.9375 1068.777344 301.628906 C 1068.136719 299.585938 1069.273438 297.414062 1071.316406 296.773438 C 1073.359375 296.132812 1075.53125 297.269531 1076.171875 299.3125 C 1080.429688 312.902344 1083.941406 326.898438 1086.605469 340.90625 C 1087.007812 343.007812 1085.628906 345.035156 1083.523438 345.4375 C 1083.28125 345.480469 1083.035156 345.503906 1082.796875 345.503906 Z M 1057.457031 264.648438 C 1055.976562 264.648438 1054.5625 263.792969 1053.917969 262.351562 C 1048.238281 249.613281 1041.746094 237.0625 1034.625 225.042969 C 1033.535156 223.203125 1034.140625 220.824219 1035.984375 219.734375 C 1037.824219 218.644531 1040.203125 219.253906 1041.292969 221.09375 C 1048.566406 233.367188 1055.195312 246.1875 1060.996094 259.195312 C 1061.867188 261.148438 1060.988281 263.4375 1059.035156 264.3125 C 1058.523438 264.539062 1057.984375 264.648438 1057.457031 264.648438 Z M 1014.261719 191.722656 C 1013.089844 191.722656 1011.9375 191.195312 1011.171875 190.195312 C 1002.730469 179.078125 993.550781 168.332031 983.886719 158.25 C 982.40625 156.703125 982.460938 154.253906 984.003906 152.769531 C 985.550781 151.289062 988.003906 151.34375 989.484375 152.886719 C 999.347656 163.183594 1008.722656 174.15625 1017.34375 185.503906 C 1018.636719 187.210938 1018.304688 189.640625 1016.601562 190.933594 C 1015.902344 191.46875 1015.078125 191.722656 1014.261719 191.722656 Z M 955.605469 130.519531 C 954.734375 130.519531 953.859375 130.226562 953.136719 129.625 C 942.382812 120.707031 931.003906 112.320312 919.316406 104.703125 C 917.523438 103.53125 917.015625 101.132812 918.183594 99.339844 C 919.355469 97.546875 921.753906 97.042969 923.546875 98.210938 C 935.480469 105.992188 947.101562 114.554688 958.082031 123.660156 C 959.730469 125.027344 959.957031 127.46875 958.589844 129.117188 C 957.824219 130.042969 956.71875 130.519531 955.605469 130.519531 Z M 955.605469 130.519531 " fill-opacity="1" fill-rule="nonzero"/></g><g clip-path="url(#9c04feedc2)"><path fill="#253a5b" d="M 350.675781 414.933594 C 348.535156 414.933594 346.800781 413.199219 346.800781 411.058594 C 346.800781 396.761719 347.621094 382.355469 349.230469 368.246094 C 349.476562 366.117188 351.398438 364.59375 353.519531 364.835938 C 355.648438 365.078125 357.171875 367 356.929688 369.125 C 355.351562 382.945312 354.550781 397.054688 354.550781 411.058594 C 354.550781 413.199219 352.816406 414.933594 350.675781 414.933594 Z M 360.320312 330.738281 C 360.03125 330.738281 359.734375 330.703125 359.4375 330.636719 C 357.351562 330.148438 356.058594 328.066406 356.542969 325.980469 C 359.785156 312.089844 363.871094 298.238281 368.695312 284.816406 C 369.417969 282.804688 371.636719 281.757812 373.652344 282.480469 C 375.664062 283.207031 376.710938 285.425781 375.988281 287.4375 C 371.265625 300.578125 367.261719 314.136719 364.089844 327.742188 C 363.671875 329.527344 362.082031 330.738281 360.320312 330.738281 Z M 388.988281 250.9375 C 388.410156 250.9375 387.824219 250.808594 387.269531 250.535156 C 385.351562 249.582031 384.570312 247.257812 385.523438 245.339844 C 391.855469 232.578125 399.007812 220.042969 406.78125 208.070312 C 407.949219 206.277344 410.347656 205.769531 412.140625 206.933594 C 413.9375 208.097656 414.445312 210.496094 413.28125 212.292969 C 405.667969 224.011719 398.664062 236.292969 392.460938 248.785156 C 391.785156 250.148438 390.414062 250.9375 388.988281 250.9375 Z M 435.15625 179.835938 C 434.285156 179.835938 433.410156 179.542969 432.6875 178.945312 C 431.039062 177.585938 430.808594 175.140625 432.167969 173.492188 C 441.246094 162.503906 451.0625 151.925781 461.335938 142.042969 C 462.878906 140.558594 465.332031 140.605469 466.816406 142.148438 C 468.296875 143.691406 468.25 146.144531 466.707031 147.628906 C 456.644531 157.304688 447.035156 167.667969 438.144531 178.425781 C 437.378906 179.355469 436.269531 179.835938 435.15625 179.835938 Z M 496.246094 121.085938 C 495.078125 121.085938 493.925781 120.558594 493.164062 119.558594 C 491.867188 117.859375 492.195312 115.425781 493.894531 114.128906 C 505.234375 105.480469 517.1875 97.40625 529.425781 90.121094 C 531.261719 89.027344 533.640625 89.632812 534.734375 91.472656 C 535.828125 93.308594 535.226562 95.6875 533.386719 96.78125 C 521.40625 103.914062 509.699219 111.820312 498.59375 120.289062 C 497.890625 120.824219 497.066406 121.085938 496.246094 121.085938 Z M 569.054688 77.765625 C 567.574219 77.765625 566.160156 76.914062 565.515625 75.476562 C 564.640625 73.523438 565.515625 71.230469 567.46875 70.355469 C 580.480469 64.519531 593.96875 59.386719 607.558594 55.101562 C 609.597656 54.457031 611.777344 55.589844 612.417969 57.628906 C 613.0625 59.667969 611.929688 61.847656 609.890625 62.488281 C 596.585938 66.6875 583.378906 71.714844 570.636719 77.425781 C 570.125 77.660156 569.585938 77.765625 569.054688 77.765625 Z M 649.871094 52.261719 C 648.050781 52.261719 646.425781 50.972656 646.070312 49.117188 C 645.664062 47.015625 647.042969 44.984375 649.144531 44.582031 C 663.105469 41.898438 677.402344 39.996094 691.636719 38.925781 C 693.769531 38.765625 695.632812 40.363281 695.792969 42.5 C 695.953125 44.632812 694.351562 46.492188 692.21875 46.652344 C 678.28125 47.699219 664.277344 49.5625 650.605469 52.191406 C 650.359375 52.238281 650.113281 52.261719 649.871094 52.261719 Z M 649.871094 52.261719 " fill-opacity="1" fill-rule="nonzero"/></g><g clip-path="url(#87413152a7)"><path fill="#253a5b" d="M 714.195312 784.207031 C 714.175781 784.207031 714.15625 784.207031 714.132812 784.207031 C 699.839844 783.988281 685.441406 782.945312 671.34375 781.109375 C 669.222656 780.832031 667.726562 778.886719 668 776.765625 C 668.277344 774.644531 670.222656 773.148438 672.34375 773.425781 C 686.148438 775.222656 700.25 776.242188 714.253906 776.460938 C 716.394531 776.492188 718.101562 778.253906 718.066406 780.394531 C 718.035156 782.511719 716.308594 784.207031 714.195312 784.207031 Z M 630.128906 773.242188 C 629.816406 773.242188 629.5 773.203125 629.183594 773.125 C 615.351562 769.664062 601.570312 765.359375 588.230469 760.324219 C 586.226562 759.566406 585.21875 757.332031 585.972656 755.328125 C 586.726562 753.328125 588.964844 752.316406 590.964844 753.074219 C 604.027344 758.003906 617.519531 762.222656 631.0625 765.605469 C 633.140625 766.125 634.402344 768.230469 633.882812 770.304688 C 633.441406 772.066406 631.863281 773.242188 630.128906 773.242188 Z M 550.804688 743.308594 C 550.207031 743.308594 549.597656 743.167969 549.03125 742.875 C 536.375 736.339844 523.949219 728.992188 512.105469 721.03125 C 510.328125 719.835938 509.855469 717.429688 511.050781 715.65625 C 512.242188 713.878906 514.648438 713.40625 516.425781 714.597656 C 528.027344 722.394531 540.191406 729.589844 552.585938 735.988281 C 554.484375 736.96875 555.230469 739.308594 554.25 741.207031 C 553.5625 742.542969 552.207031 743.308594 550.804688 743.308594 Z M 480.4375 696.027344 C 479.550781 696.027344 478.65625 695.722656 477.925781 695.101562 C 467.082031 685.851562 456.652344 675.871094 446.933594 665.441406 C 445.472656 663.875 445.5625 661.425781 447.125 659.964844 C 448.691406 658.507812 451.144531 658.59375 452.601562 660.160156 C 462.121094 670.375 472.332031 680.144531 482.957031 689.207031 C 484.582031 690.59375 484.777344 693.039062 483.386719 694.667969 C 482.621094 695.566406 481.535156 696.027344 480.4375 696.027344 Z M 480.4375 696.027344 " fill-opacity="1" fill-rule="nonzero"/></g><path fill="#ff9e4b" d="M 991.15625 411.058594 C 991.15625 415.496094 991.046875 419.929688 990.832031 424.363281 C 990.613281 428.796875 990.285156 433.21875 989.851562 437.636719 C 989.417969 442.050781 988.871094 446.457031 988.222656 450.84375 C 987.570312 455.234375 986.8125 459.605469 985.945312 463.957031 C 985.082031 468.3125 984.109375 472.640625 983.03125 476.945312 C 981.953125 481.25 980.769531 485.523438 979.480469 489.769531 C 978.191406 494.019531 976.800781 498.230469 975.304688 502.410156 C 973.8125 506.585938 972.214844 510.726562 970.515625 514.824219 C 968.816406 518.925781 967.019531 522.980469 965.121094 526.992188 C 963.226562 531.003906 961.230469 534.96875 959.136719 538.882812 C 957.046875 542.796875 954.859375 546.65625 952.578125 550.460938 C 950.296875 554.269531 947.921875 558.015625 945.457031 561.707031 C 942.992188 565.394531 940.4375 569.023438 937.792969 572.585938 C 935.152344 576.152344 932.421875 579.648438 929.605469 583.078125 C 926.789062 586.511719 923.894531 589.871094 920.914062 593.15625 C 917.933594 596.445312 914.875 599.660156 911.734375 602.796875 C 908.597656 605.933594 905.382812 608.992188 902.097656 611.972656 C 898.808594 614.953125 895.449219 617.851562 892.019531 620.667969 C 888.589844 623.484375 885.089844 626.210938 881.527344 628.855469 C 877.960938 631.5 874.335938 634.054688 870.644531 636.519531 C 866.957031 638.984375 863.207031 641.359375 859.402344 643.640625 C 855.59375 645.921875 851.734375 648.109375 847.820312 650.199219 C 843.90625 652.292969 839.945312 654.285156 835.933594 656.183594 C 831.921875 658.082031 827.863281 659.878906 823.765625 661.578125 C 819.664062 663.273438 815.527344 664.871094 811.347656 666.367188 C 807.167969 667.863281 802.957031 669.253906 798.710938 670.542969 C 794.464844 671.828125 790.1875 673.011719 785.882812 674.089844 C 781.578125 675.167969 777.25 676.140625 772.898438 677.007812 C 768.542969 677.875 764.171875 678.632812 759.785156 679.28125 C 755.394531 679.933594 750.992188 680.476562 746.574219 680.914062 C 742.160156 681.347656 737.734375 681.671875 733.300781 681.890625 C 728.871094 682.109375 724.433594 682.21875 719.996094 682.21875 C 715.558594 682.21875 711.125 682.109375 706.691406 681.890625 C 702.257812 681.671875 697.835938 681.347656 693.417969 680.910156 C 689 680.476562 684.597656 679.933594 680.210938 679.28125 C 675.820312 678.632812 671.449219 677.875 667.097656 677.007812 C 662.742188 676.140625 658.414062 675.167969 654.109375 674.089844 C 649.804688 673.011719 645.53125 671.828125 641.28125 670.542969 C 637.035156 669.253906 632.824219 667.863281 628.644531 666.367188 C 624.46875 664.871094 620.328125 663.273438 616.226562 661.578125 C 612.128906 659.878906 608.070312 658.082031 604.0625 656.183594 C 600.050781 654.285156 596.085938 652.292969 592.171875 650.199219 C 588.257812 648.109375 584.398438 645.921875 580.59375 643.640625 C 576.785156 641.359375 573.039062 638.984375 569.347656 636.519531 C 565.65625 634.054688 562.03125 631.5 558.464844 628.855469 C 554.902344 626.210938 551.40625 623.484375 547.972656 620.667969 C 544.542969 617.851562 541.183594 614.953125 537.894531 611.972656 C 534.609375 608.992188 531.394531 605.933594 528.257812 602.796875 C 525.121094 599.660156 522.058594 596.445312 519.078125 593.15625 C 516.101562 589.871094 513.203125 586.511719 510.386719 583.078125 C 507.570312 579.648438 504.84375 576.152344 502.199219 572.585938 C 499.554688 569.023438 497 565.394531 494.535156 561.707031 C 492.070312 558.015625 489.695312 554.269531 487.414062 550.460938 C 485.132812 546.65625 482.945312 542.796875 480.855469 538.882812 C 478.761719 534.96875 476.769531 531.003906 474.871094 526.992188 C 472.972656 522.980469 471.175781 518.925781 469.476562 514.824219 C 467.777344 510.726562 466.183594 506.585938 464.6875 502.410156 C 463.191406 498.230469 461.800781 494.019531 460.511719 489.769531 C 459.222656 485.523438 458.039062 481.25 456.960938 476.945312 C 455.882812 472.640625 454.914062 468.3125 454.046875 463.957031 C 453.179688 459.605469 452.421875 455.234375 451.769531 450.84375 C 451.121094 446.457031 450.578125 442.050781 450.140625 437.636719 C 449.707031 433.21875 449.378906 428.796875 449.164062 424.363281 C 448.945312 419.929688 448.835938 415.496094 448.835938 411.058594 C 448.835938 406.621094 448.945312 402.183594 449.164062 397.753906 C 449.378906 393.320312 449.707031 388.894531 450.140625 384.480469 C 450.578125 380.0625 451.121094 375.660156 451.769531 371.269531 C 452.421875 366.878906 453.179688 362.507812 454.046875 358.15625 C 454.914062 353.804688 455.882812 349.476562 456.960938 345.171875 C 458.039062 340.867188 459.222656 336.589844 460.511719 332.34375 C 461.800781 328.097656 463.191406 323.886719 464.6875 319.707031 C 466.183594 315.527344 467.777344 311.390625 469.476562 307.289062 C 471.175781 303.1875 472.972656 299.132812 474.871094 295.121094 C 476.769531 291.109375 478.761719 287.148438 480.855469 283.234375 C 482.945312 279.320312 485.132812 275.460938 487.414062 271.652344 C 489.695312 267.847656 492.070312 264.097656 494.535156 260.410156 C 497 256.71875 499.554688 253.09375 502.199219 249.527344 C 504.84375 245.964844 507.570312 242.464844 510.386719 239.035156 C 513.203125 235.605469 516.101562 232.246094 519.078125 228.957031 C 522.058594 225.667969 525.121094 222.457031 528.257812 219.320312 C 531.394531 216.179688 534.609375 213.121094 537.894531 210.140625 C 541.183594 207.160156 544.542969 204.261719 547.972656 201.449219 C 551.40625 198.632812 554.902344 195.902344 558.464844 193.257812 C 562.03125 190.617188 565.65625 188.0625 569.347656 185.597656 C 573.039062 183.128906 576.785156 180.757812 580.59375 178.476562 C 584.398438 176.195312 588.257812 174.007812 592.171875 171.914062 C 596.085938 169.824219 600.050781 167.828125 604.0625 165.933594 C 608.070312 164.035156 612.128906 162.238281 616.226562 160.539062 C 620.328125 158.839844 624.46875 157.242188 628.644531 155.75 C 632.824219 154.253906 637.035156 152.863281 641.28125 151.574219 C 645.53125 150.285156 649.804688 149.101562 654.109375 148.023438 C 658.414062 146.945312 662.742188 145.972656 667.097656 145.109375 C 671.449219 144.242188 675.820312 143.484375 680.210938 142.832031 C 684.597656 142.179688 689 141.636719 693.417969 141.203125 C 697.835938 140.769531 702.257812 140.441406 706.691406 140.222656 C 711.125 140.007812 715.558594 139.898438 719.996094 139.898438 C 724.433594 139.898438 728.871094 140.007812 733.300781 140.222656 C 737.734375 140.441406 742.160156 140.769531 746.574219 141.203125 C 750.992188 141.636719 755.394531 142.179688 759.785156 142.832031 C 764.171875 143.484375 768.542969 144.242188 772.898438 145.109375 C 777.25 145.972656 781.578125 146.945312 785.882812 148.023438 C 790.1875 149.101562 794.464844 150.285156 798.710938 151.574219 C 802.957031 152.863281 807.167969 154.253906 811.347656 155.75 C 815.527344 157.242188 819.664062 158.839844 823.765625 160.539062 C 827.863281 162.238281 831.921875 164.035156 835.933594 165.933594 C 839.945312 167.828125 843.90625 169.824219 847.820312 171.914062 C 851.734375 174.007812 855.59375 176.195312 859.402344 178.476562 C 863.207031 180.757812 866.957031 183.128906 870.644531 185.597656 C 874.335938 188.0625 877.960938 190.617188 881.527344 193.257812 C 885.089844 195.902344 888.589844 198.632812 892.019531 201.449219 C 895.449219 204.261719 898.808594 207.160156 902.097656 210.140625 C 905.382812 213.121094 908.597656 216.179688 911.734375 219.320312 C 914.875 222.457031 917.933594 225.667969 920.914062 228.957031 C 923.894531 232.246094 926.789062 235.605469 929.605469 239.035156 C 932.421875 242.464844 935.152344 245.964844 937.792969 249.527344 C 940.4375 253.09375 942.992188 256.71875 945.457031 260.410156 C 947.921875 264.097656 950.296875 267.847656 952.578125 271.652344 C 954.859375 275.460938 957.046875 279.320312 959.136719 283.234375 C 961.230469 287.148438 963.226562 291.109375 965.121094 295.121094 C 967.019531 299.132812 968.816406 303.1875 970.515625 307.289062 C 972.214844 311.390625 973.8125 315.527344 975.304688 319.707031 C 976.800781 323.886719 978.191406 328.097656 979.480469 332.34375 C 980.769531 336.589844 981.953125 340.867188 983.03125 345.171875 C 984.109375 349.476562 985.082031 353.804688 985.945312 358.15625 C 986.8125 362.507812 987.570312 366.878906 988.222656 371.269531 C 988.871094 375.660156 989.417969 380.0625 989.851562 384.480469 C 990.285156 388.894531 990.613281 393.320312 990.832031 397.753906 C 991.046875 402.183594 991.15625 406.621094 991.15625 411.058594 Z M 991.15625 411.058594 " fill-opacity="1" fill-rule="nonzero"/><path fill="#ffffff" d="M 396.199219 425.441406 L 396.199219 361.988281 C 396.199219 360.566406 397.078125 359.273438 398.457031 358.660156 L 495.5625 315.34375 L 495.5625 425.441406 L 493.804688 502.648438 L 394.238281 484.710938 Z M 396.199219 425.441406 " fill-opacity="1" fill-rule="nonzero"/><path fill="#253a5b" d="M 493.804688 506.523438 C 493.578125 506.523438 493.347656 506.503906 493.117188 506.460938 L 393.550781 488.527344 C 391.660156 488.183594 390.300781 486.507812 390.367188 484.585938 L 392.328125 425.378906 L 392.328125 361.988281 C 392.328125 359.050781 394.113281 356.355469 396.878906 355.121094 L 493.984375 311.804688 C 495.183594 311.269531 496.570312 311.378906 497.671875 312.09375 C 498.769531 312.808594 499.4375 314.03125 499.4375 315.34375 L 499.4375 425.441406 C 499.4375 425.472656 499.4375 425.5 499.433594 425.53125 L 497.679688 502.738281 C 497.652344 503.871094 497.132812 504.933594 496.257812 505.652344 C 495.558594 506.21875 494.691406 506.523438 493.804688 506.523438 Z M 398.222656 481.492188 L 490.035156 498.03125 L 491.6875 425.398438 L 491.6875 321.3125 L 400.074219 362.179688 L 400.074219 425.441406 C 400.074219 425.484375 400.074219 425.527344 400.074219 425.570312 Z M 396.199219 425.441406 L 396.203125 425.441406 Z M 396.199219 425.441406 " fill-opacity="1" fill-rule="nonzero"/><path fill="#253a5b" d="M 495.5625 442.675781 L 495.5625 283.058594 C 495.5625 281.019531 497.34375 279.367188 499.546875 279.367188 L 607.316406 279.367188 C 609.515625 279.367188 611.296875 281.019531 611.296875 283.058594 L 611.296875 531.644531 Z M 495.5625 442.675781 " fill-opacity="1" fill-rule="nonzero"/><path fill="#253a5b" d="M 611.296875 535.519531 C 609.15625 535.519531 607.421875 533.785156 607.421875 531.644531 L 607.421875 283.253906 C 607.394531 283.246094 607.359375 283.242188 607.316406 283.242188 L 499.542969 283.242188 C 499.5 283.242188 499.464844 283.246094 499.4375 283.253906 L 499.4375 442.675781 C 499.4375 444.816406 497.703125 446.550781 495.5625 446.550781 C 493.421875 446.550781 491.6875 444.816406 491.6875 442.675781 L 491.6875 283.058594 C 491.6875 278.886719 495.210938 275.492188 499.546875 275.492188 L 607.316406 275.492188 C 611.648438 275.492188 615.171875 278.886719 615.171875 283.058594 L 615.171875 531.644531 C 615.171875 533.785156 613.4375 535.519531 611.296875 535.519531 Z M 611.296875 535.519531 " fill-opacity="1" fill-rule="nonzero"/><path fill="#ffffff" d="M 614.582031 340.097656 L 694.945312 382.769531 L 694.945312 593.324219 L 613.839844 593.324219 Z M 614.582031 340.097656 " fill-opacity="1" fill-rule="nonzero"/><path fill="#253a5b" d="M 694.945312 597.195312 L 613.839844 597.195312 C 611.703125 597.195312 609.96875 595.460938 609.96875 593.324219 C 609.96875 591.183594 611.703125 589.449219 613.839844 589.449219 L 691.074219 589.449219 L 691.074219 385.097656 L 612.765625 343.519531 C 610.875 342.515625 610.15625 340.171875 611.160156 338.28125 C 612.160156 336.390625 614.507812 335.671875 616.398438 336.675781 L 696.765625 379.347656 C 698.03125 380.019531 698.824219 381.335938 698.824219 382.769531 L 698.824219 593.320312 C 698.820312 595.460938 697.085938 597.195312 694.945312 597.195312 Z M 694.945312 597.195312 " fill-opacity="1" fill-rule="nonzero"/><path fill="#ffffff" d="M 572.277344 387.808594 L 534.582031 387.808594 C 533.480469 387.808594 532.585938 386.914062 532.585938 385.8125 L 532.585938 341.609375 C 532.585938 340.507812 533.480469 339.617188 534.582031 339.617188 L 572.277344 339.617188 C 573.378906 339.617188 574.273438 340.507812 574.273438 341.609375 L 574.273438 385.8125 C 574.273438 386.914062 573.378906 387.808594 572.277344 387.808594 Z M 572.277344 387.808594 " fill-opacity="1" fill-rule="nonzero"/><path fill="#253a5b" d="M 572.277344 391.683594 L 534.582031 391.683594 C 531.34375 391.683594 528.710938 389.050781 528.710938 385.8125 L 528.710938 341.609375 C 528.710938 338.375 531.34375 335.742188 534.582031 335.742188 L 572.277344 335.742188 C 575.515625 335.742188 578.148438 338.371094 578.148438 341.609375 L 578.148438 385.8125 C 578.148438 389.050781 575.515625 391.683594 572.277344 391.683594 Z M 536.460938 383.933594 L 570.398438 383.933594 L 570.398438 343.488281 L 536.460938 343.488281 Z M 536.460938 383.933594 " fill-opacity="1" fill-rule="nonzero"/><path fill="#ffffff" d="M 464.453125 422.753906 L 426.757812 422.753906 C 425.65625 422.753906 424.761719 421.863281 424.761719 420.761719 L 424.761719 376.558594 C 424.761719 375.457031 425.65625 374.5625 426.757812 374.5625 L 464.453125 374.5625 C 465.554688 374.5625 466.449219 375.457031 466.449219 376.558594 L 466.449219 420.761719 C 466.449219 421.863281 465.554688 422.753906 464.453125 422.753906 Z M 464.453125 422.753906 " fill-opacity="1" fill-rule="nonzero"/><path fill="#253a5b" d="M 464.453125 426.628906 L 426.757812 426.628906 C 423.519531 426.628906 420.886719 423.996094 420.886719 420.761719 L 420.886719 376.558594 C 420.886719 373.320312 423.519531 370.6875 426.757812 370.6875 L 464.453125 370.6875 C 467.691406 370.6875 470.324219 373.320312 470.324219 376.558594 L 470.324219 420.761719 C 470.324219 423.996094 467.691406 426.628906 464.453125 426.628906 Z M 428.636719 418.878906 L 462.574219 418.878906 L 462.574219 378.4375 L 428.636719 378.4375 Z M 428.636719 418.878906 " fill-opacity="1" fill-rule="nonzero"/><path fill="#e0e0e0" d="M 667.796875 467.613281 L 637.667969 467.613281 C 636.078125 467.613281 634.792969 466.328125 634.792969 464.738281 L 634.792969 435.464844 C 634.792969 433.875 636.082031 432.589844 637.667969 432.589844 L 667.796875 432.589844 C 669.382812 432.589844 670.671875 433.875 670.671875 435.464844 L 670.671875 464.738281 C 670.671875 466.328125 669.382812 467.613281 667.796875 467.613281 Z M 667.796875 467.613281 " fill-opacity="1" fill-rule="nonzero"/><path fill="#253a5b" d="M 667.796875 471.488281 L 637.667969 471.488281 C 633.945312 471.488281 630.917969 468.460938 630.917969 464.738281 L 630.917969 435.464844 C 630.917969 431.742188 633.945312 428.714844 637.667969 428.714844 L 667.796875 428.714844 C 671.519531 428.714844 674.546875 431.742188 674.546875 435.464844 L 674.546875 464.738281 C 674.546875 468.460938 671.519531 471.488281 667.796875 471.488281 Z M 638.667969 463.742188 L 666.796875 463.742188 L 666.796875 436.460938 L 638.667969 436.460938 Z M 638.667969 463.742188 " fill-opacity="1" fill-rule="nonzero"/><path fill="#253a5b" d="M 532.75 598 L 458.265625 598 C 456.128906 598 454.382812 596.265625 454.382812 594.128906 C 454.382812 591.988281 456.105469 590.253906 458.246094 590.253906 L 532.75 590.253906 C 534.890625 590.253906 536.625 591.988281 536.625 594.128906 C 536.625 596.265625 534.890625 598 532.75 598 Z M 532.75 598 " fill-opacity="1" fill-rule="nonzero"/><path fill="#e0e0e0" d="M 532.851562 475.769531 L 532.851562 475.75 L 532.871094 448.871094 C 532.890625 444.640625 528.222656 441.210938 522.480469 441.210938 L 370.363281 441.210938 C 364.617188 441.210938 359.953125 444.640625 359.953125 448.871094 L 359.933594 465.421875 L 359.871094 535.179688 L 359.832031 587.707031 C 359.832031 591.257812 361.6875 594.128906 364 594.128906 L 532.75 594.128906 Z M 532.851562 475.769531 " fill-opacity="1" fill-rule="nonzero"/><path fill="#253a5b" d="M 532.75 598 L 364 598 C 359.492188 598 355.957031 593.480469 355.957031 587.707031 L 356 535.175781 L 356.058594 465.417969 L 356.078125 448.863281 C 356.078125 442.402344 362.351562 437.335938 370.363281 437.335938 L 522.480469 437.335938 C 526.855469 437.335938 530.914062 438.894531 533.621094 441.613281 C 535.648438 443.648438 536.757812 446.234375 536.746094 448.886719 L 536.722656 475.753906 C 536.722656 477.894531 534.988281 479.636719 532.851562 479.636719 C 532.851562 479.636719 532.847656 479.636719 532.847656 479.636719 C 530.710938 479.636719 528.976562 477.910156 528.976562 475.769531 L 528.976562 475.75 L 528.996094 448.867188 C 529 448.109375 528.527344 447.480469 528.128906 447.078125 C 526.90625 445.851562 524.742188 445.085938 522.480469 445.085938 L 370.363281 445.085938 C 366.621094 445.085938 363.828125 447.085938 363.828125 448.871094 L 363.808594 465.425781 L 363.746094 535.183594 L 363.707031 587.710938 C 363.707031 589.039062 364.121094 589.917969 364.378906 590.253906 L 532.75 590.253906 C 534.890625 590.253906 536.625 591.988281 536.625 594.128906 C 536.625 596.265625 534.890625 598 532.75 598 Z M 532.75 598 " fill-opacity="1" fill-rule="nonzero"/><path fill="#ffffff" d="M 594.550781 594.128906 L 532.75 594.128906 L 532.851562 475.773438 L 532.851562 475.75 L 572.296875 475.75 C 576.640625 475.75 580.691406 477.925781 583.125 481.515625 C 592.894531 495.953125 598.578125 504.449219 609.066406 518.507812 C 610.066406 519.863281 611.640625 520.640625 613.316406 520.699219 C 635.910156 521.300781 657.824219 529.394531 668.375 533.921875 C 672.363281 535.636719 674.917969 539.566406 674.917969 543.894531 L 674.898438 577.894531 C 674.898438 583.757812 671.167969 588.644531 666.28125 589.242188 L 653.238281 590.738281 L 653.160156 590.738281 Z M 594.550781 594.128906 " fill-opacity="1" fill-rule="nonzero"/><path fill="#253a5b" d="M 594.550781 598 L 532.75 598 C 531.722656 598 530.734375 597.59375 530.007812 596.867188 C 529.28125 596.140625 528.875 595.152344 528.875 594.125 L 528.976562 475.769531 C 528.976562 473.628906 530.710938 471.878906 532.851562 471.878906 L 572.292969 471.878906 C 577.914062 471.878906 583.164062 474.667969 586.332031 479.339844 L 588.078125 481.925781 C 596.691406 494.652344 602.378906 503.0625 612.171875 516.191406 C 612.460938 516.582031 612.917969 516.804688 613.441406 516.828125 C 636.5625 517.445312 658.738281 525.570312 669.902344 530.363281 C 675.304688 532.683594 678.789062 537.996094 678.789062 543.894531 L 678.769531 577.898438 C 678.769531 585.71875 673.605469 592.246094 666.753906 593.085938 L 653.679688 594.585938 C 653.535156 594.601562 653.386719 594.613281 653.238281 594.613281 L 653.160156 594.613281 C 651.019531 594.613281 649.285156 592.875 649.285156 590.738281 C 649.285156 588.65625 650.925781 586.957031 652.984375 586.867188 L 665.839844 585.390625 C 668.734375 585.039062 671.023438 581.742188 671.023438 577.894531 L 671.042969 543.890625 C 671.042969 541.09375 669.394531 538.578125 666.84375 537.480469 C 656.191406 532.910156 635.050781 525.152344 613.214844 524.574219 C 613.203125 524.574219 613.191406 524.574219 613.179688 524.574219 C 610.269531 524.46875 607.632812 523.09375 605.945312 520.804688 C 596.0625 507.550781 590.332031 499.085938 581.664062 486.269531 L 579.914062 483.6875 C 578.191406 481.144531 575.34375 479.625 572.296875 479.625 L 536.722656 479.625 L 536.628906 590.253906 L 594.550781 590.253906 C 596.691406 590.253906 598.425781 591.988281 598.425781 594.128906 C 598.425781 596.265625 596.691406 598 594.550781 598 Z M 594.550781 598 " fill-opacity="1" fill-rule="nonzero"/><path fill="#253a5b" d="M 644.554688 567.382812 C 645.238281 568.070312 645.890625 568.789062 646.507812 569.539062 C 647.121094 570.289062 647.699219 571.066406 648.238281 571.871094 C 648.777344 572.679688 649.273438 573.511719 649.730469 574.367188 C 650.1875 575.222656 650.601562 576.097656 650.972656 576.992188 C 651.34375 577.890625 651.671875 578.800781 651.953125 579.730469 C 652.234375 580.660156 652.46875 581.601562 652.65625 582.550781 C 652.847656 583.503906 652.988281 584.460938 653.082031 585.429688 C 653.179688 586.394531 653.226562 587.363281 653.226562 588.332031 C 653.222656 589.300781 653.175781 590.269531 653.082031 591.238281 C 652.984375 592.203125 652.84375 593.160156 652.652344 594.113281 C 652.464844 595.066406 652.226562 596.003906 651.945312 596.933594 C 651.664062 597.863281 651.335938 598.777344 650.964844 599.671875 C 650.59375 600.570312 650.179688 601.445312 649.71875 602.300781 C 649.261719 603.15625 648.765625 603.988281 648.226562 604.796875 C 647.683594 605.601562 647.109375 606.382812 646.492188 607.132812 C 645.875 607.882812 645.226562 608.601562 644.539062 609.289062 C 643.851562 609.972656 643.132812 610.625 642.382812 611.242188 C 641.632812 611.855469 640.855469 612.433594 640.046875 612.972656 C 639.238281 613.515625 638.40625 614.011719 637.550781 614.46875 C 636.695312 614.929688 635.820312 615.34375 634.921875 615.714844 C 634.027344 616.085938 633.113281 616.414062 632.183594 616.695312 C 631.253906 616.976562 630.316406 617.214844 629.363281 617.402344 C 628.410156 617.59375 627.453125 617.734375 626.488281 617.832031 C 625.519531 617.925781 624.554688 617.976562 623.582031 617.976562 C 622.613281 617.976562 621.644531 617.929688 620.679688 617.832031 C 619.710938 617.738281 618.753906 617.597656 617.800781 617.40625 C 616.851562 617.21875 615.910156 616.984375 614.980469 616.703125 C 614.054688 616.421875 613.140625 616.09375 612.246094 615.722656 C 611.347656 615.351562 610.472656 614.9375 609.617188 614.480469 C 608.761719 614.023438 607.929688 613.527344 607.121094 612.988281 C 606.316406 612.449219 605.539062 611.871094 604.789062 611.257812 C 604.039062 610.640625 603.320312 609.992188 602.632812 609.304688 C 601.949219 608.621094 601.296875 607.902344 600.683594 607.152344 C 600.066406 606.402344 599.488281 605.625 598.949219 604.816406 C 598.410156 604.011719 597.914062 603.179688 597.457031 602.324219 C 597 601.46875 596.585938 600.589844 596.214844 599.695312 C 595.84375 598.796875 595.515625 597.886719 595.234375 596.957031 C 594.953125 596.027344 594.71875 595.089844 594.53125 594.136719 C 594.339844 593.1875 594.199219 592.226562 594.105469 591.261719 C 594.011719 590.296875 593.964844 589.328125 593.964844 588.355469 C 593.964844 587.386719 594.011719 586.417969 594.105469 585.453125 C 594.203125 584.488281 594.34375 583.527344 594.535156 582.574219 C 594.726562 581.625 594.960938 580.683594 595.242188 579.753906 C 595.523438 578.828125 595.851562 577.914062 596.222656 577.015625 C 596.59375 576.121094 597.011719 575.242188 597.46875 574.386719 C 597.925781 573.53125 598.425781 572.699219 598.964844 571.894531 C 599.503906 571.085938 600.082031 570.308594 600.695312 569.554688 C 601.3125 568.804688 601.964844 568.085938 602.648438 567.402344 C 603.335938 566.714844 604.054688 566.0625 604.804688 565.449219 C 605.554688 564.832031 606.335938 564.253906 607.140625 563.714844 C 607.949219 563.175781 608.78125 562.675781 609.636719 562.21875 C 610.492188 561.761719 611.367188 561.347656 612.265625 560.972656 C 613.164062 560.601562 614.074219 560.273438 615.003906 559.992188 C 615.933594 559.710938 616.871094 559.476562 617.824219 559.285156 C 618.777344 559.097656 619.734375 558.953125 620.699219 558.859375 C 621.667969 558.761719 622.636719 558.714844 623.605469 558.714844 C 624.574219 558.714844 625.542969 558.761719 626.507812 558.855469 C 627.476562 558.949219 628.433594 559.089844 629.386719 559.28125 C 630.335938 559.46875 631.277344 559.703125 632.207031 559.984375 C 633.136719 560.265625 634.046875 560.59375 634.945312 560.964844 C 635.839844 561.335938 636.714844 561.75 637.570312 562.207031 C 638.425781 562.664062 639.257812 563.160156 640.066406 563.699219 C 640.871094 564.238281 641.652344 564.816406 642.402344 565.433594 C 643.148438 566.046875 643.867188 566.699219 644.554688 567.382812 Z M 644.554688 567.382812 " fill-opacity="1" fill-rule="nonzero"/><path fill="#253a5b" d="M 623.597656 621.855469 C 614.644531 621.855469 606.234375 618.371094 599.910156 612.042969 C 593.585938 605.710938 590.105469 597.296875 590.113281 588.347656 C 590.128906 569.875 605.171875 554.84375 623.644531 554.84375 C 632.59375 554.84375 641.007812 558.332031 647.332031 564.660156 C 653.65625 570.988281 657.132812 579.402344 657.125 588.355469 C 657.109375 606.828125 642.070312 621.855469 623.597656 621.855469 Z M 597.863281 588.351562 C 597.859375 595.234375 600.53125 601.699219 605.390625 606.5625 C 610.25 611.429688 616.71875 614.105469 623.597656 614.105469 C 637.800781 614.105469 649.367188 602.550781 649.378906 588.347656 C 649.382812 581.46875 646.710938 575 641.847656 570.136719 C 636.988281 565.273438 630.523438 562.59375 623.644531 562.59375 C 609.441406 562.59375 597.875 574.148438 597.863281 588.351562 Z M 597.863281 588.351562 " fill-opacity="1" fill-rule="nonzero"/><path fill="#253a5b" d="M 450.125 567.378906 C 450.808594 568.066406 451.460938 568.785156 452.078125 569.535156 C 452.691406 570.28125 453.269531 571.0625 453.808594 571.867188 C 454.347656 572.675781 454.84375 573.507812 455.300781 574.363281 C 455.757812 575.21875 456.171875 576.09375 456.542969 576.988281 C 456.914062 577.886719 457.242188 578.796875 457.523438 579.726562 C 457.804688 580.65625 458.039062 581.597656 458.226562 582.546875 C 458.417969 583.5 458.558594 584.457031 458.652344 585.421875 C 458.75 586.390625 458.796875 587.359375 458.796875 588.328125 C 458.792969 589.296875 458.746094 590.265625 458.652344 591.230469 C 458.554688 592.199219 458.414062 593.15625 458.222656 594.109375 C 458.035156 595.0625 457.796875 596 457.515625 596.929688 C 457.234375 597.859375 456.90625 598.769531 456.535156 599.667969 C 456.164062 600.566406 455.75 601.441406 455.289062 602.296875 C 454.832031 603.152344 454.335938 603.984375 453.796875 604.792969 C 453.253906 605.597656 452.679688 606.378906 452.0625 607.128906 C 451.445312 607.878906 450.792969 608.597656 450.109375 609.285156 C 449.421875 609.96875 448.703125 610.621094 447.953125 611.238281 C 447.203125 611.851562 446.425781 612.429688 445.617188 612.96875 C 444.808594 613.511719 443.976562 614.007812 443.121094 614.464844 C 442.265625 614.925781 441.390625 615.339844 440.492188 615.710938 C 439.597656 616.082031 438.683594 616.410156 437.753906 616.691406 C 436.824219 616.972656 435.886719 617.210938 434.933594 617.398438 C 433.980469 617.589844 433.023438 617.730469 432.058594 617.828125 C 431.089844 617.921875 430.125 617.96875 429.152344 617.972656 C 428.183594 617.972656 427.214844 617.925781 426.25 617.828125 C 425.28125 617.734375 424.324219 617.59375 423.371094 617.402344 C 422.421875 617.214844 421.480469 616.980469 420.550781 616.699219 C 419.625 616.417969 418.710938 616.089844 417.816406 615.71875 C 416.917969 615.347656 416.042969 614.933594 415.1875 614.476562 C 414.332031 614.019531 413.5 613.523438 412.691406 612.984375 C 411.886719 612.445312 411.109375 611.867188 410.359375 611.253906 C 409.609375 610.636719 408.890625 609.988281 408.203125 609.300781 C 407.519531 608.613281 406.867188 607.898438 406.253906 607.148438 C 405.636719 606.398438 405.058594 605.621094 404.519531 604.8125 C 403.980469 604.003906 403.484375 603.175781 403.027344 602.320312 C 402.570312 601.464844 402.15625 600.585938 401.785156 599.691406 C 401.414062 598.792969 401.085938 597.882812 400.804688 596.953125 C 400.523438 596.023438 400.289062 595.085938 400.101562 594.132812 C 399.910156 593.179688 399.769531 592.222656 399.675781 591.257812 C 399.582031 590.292969 399.53125 589.324219 399.535156 588.351562 C 399.535156 587.382812 399.582031 586.414062 399.675781 585.449219 C 399.773438 584.484375 399.914062 583.523438 400.105469 582.570312 C 400.292969 581.621094 400.53125 580.679688 400.8125 579.75 C 401.09375 578.820312 401.421875 577.910156 401.792969 577.011719 C 402.164062 576.117188 402.578125 575.238281 403.039062 574.382812 C 403.496094 573.527344 403.996094 572.695312 404.535156 571.886719 C 405.074219 571.082031 405.652344 570.304688 406.265625 569.550781 C 406.882812 568.800781 407.535156 568.082031 408.21875 567.398438 C 408.90625 566.710938 409.625 566.058594 410.375 565.441406 C 411.125 564.828125 411.90625 564.25 412.710938 563.710938 C 413.519531 563.171875 414.351562 562.671875 415.207031 562.214844 C 416.0625 561.757812 416.9375 561.339844 417.835938 560.96875 C 418.730469 560.597656 419.644531 560.269531 420.574219 559.988281 C 421.503906 559.707031 422.441406 559.472656 423.394531 559.28125 C 424.347656 559.089844 425.304688 558.949219 426.269531 558.851562 C 427.238281 558.757812 428.207031 558.710938 429.175781 558.710938 C 430.144531 558.710938 431.113281 558.757812 432.078125 558.851562 C 433.046875 558.945312 434.003906 559.085938 434.957031 559.277344 C 435.90625 559.464844 436.847656 559.699219 437.777344 559.980469 C 438.703125 560.261719 439.617188 560.589844 440.515625 560.960938 C 441.410156 561.332031 442.285156 561.746094 443.140625 562.203125 C 443.996094 562.660156 444.828125 563.15625 445.636719 563.695312 C 446.441406 564.234375 447.21875 564.8125 447.96875 565.425781 C 448.71875 566.042969 449.4375 566.695312 450.125 567.378906 Z M 450.125 567.378906 " fill-opacity="1" fill-rule="nonzero"/><path fill="#253a5b" d="M 429.160156 621.855469 C 420.210938 621.855469 411.800781 618.371094 405.476562 612.042969 C 399.152344 605.710938 395.671875 597.296875 395.679688 588.347656 C 395.695312 569.875 410.738281 554.84375 429.210938 554.84375 C 438.160156 554.84375 446.574219 558.332031 452.898438 564.660156 C 459.222656 570.988281 462.699219 579.402344 462.691406 588.355469 C 462.675781 606.828125 447.636719 621.855469 429.160156 621.855469 Z M 403.429688 588.351562 C 403.421875 595.234375 406.097656 601.699219 410.957031 606.5625 C 415.816406 611.429688 422.28125 614.105469 429.164062 614.105469 C 443.367188 614.105469 454.929688 602.550781 454.941406 588.347656 C 454.949219 581.46875 452.273438 575 447.414062 570.136719 C 442.554688 565.273438 436.089844 562.59375 429.210938 562.59375 C 415.007812 562.59375 403.441406 574.148438 403.429688 588.351562 Z M 403.429688 588.351562 " fill-opacity="1" fill-rule="nonzero"/><path fill="#ffffff" d="M 421.855469 441.210938 L 421.855469 497.570312 L 448.046875 484.316406 L 474.238281 497.570312 L 474.238281 441.210938 Z M 421.855469 441.210938 " fill-opacity="1" fill-rule="nonzero"/><path fill="#253a5b" d="M 474.234375 501.445312 C 473.636719 501.445312 473.039062 501.308594 472.488281 501.027344 L 448.046875 488.660156 L 423.601562 501.027344 C 422.402344 501.636719 420.972656 501.578125 419.824219 500.871094 C 418.679688 500.167969 417.980469 498.917969 417.980469 497.570312 L 417.980469 441.210938 C 417.980469 439.074219 419.714844 437.335938 421.851562 437.335938 L 474.234375 437.335938 C 476.375 437.335938 478.109375 439.074219 478.109375 441.210938 L 478.109375 497.570312 C 478.109375 498.917969 477.410156 500.167969 476.265625 500.871094 C 475.644531 501.253906 474.941406 501.445312 474.234375 501.445312 Z M 448.046875 480.441406 C 448.644531 480.441406 449.246094 480.582031 449.792969 480.859375 L 470.363281 491.269531 L 470.363281 445.085938 L 425.726562 445.085938 L 425.726562 491.269531 L 446.296875 480.859375 C 446.84375 480.582031 447.445312 480.441406 448.046875 480.441406 Z M 448.046875 480.441406 " fill-opacity="1" fill-rule="nonzero"/><path fill="#e0e0e0" d="M 725.800781 658.582031 L 725.425781 604.609375 L 725.425781 604.605469 C 725.425781 598.539062 729.449219 593.34375 735.164062 591.160156 C 738.824219 589.765625 741.1875 586.453125 741.1875 582.800781 L 741.1875 582.78125 C 741.1875 579.128906 738.824219 575.816406 735.164062 574.421875 C 729.449219 572.242188 725.425781 567.042969 725.425781 560.980469 C 725.425781 554.914062 729.449219 549.71875 735.164062 547.535156 C 738.824219 546.136719 741.1875 542.824219 741.1875 539.175781 L 741.1875 534.621094 C 741.1875 513.035156 760.148438 495.539062 783.535156 495.539062 L 796.667969 495.539062 C 811.285156 495.539062 824.175781 502.375 831.785156 512.769531 L 872.347656 573.058594 L 865.210938 664.863281 Z M 725.800781 658.582031 " fill-opacity="1" fill-rule="nonzero"/><path fill="#253a5b" d="M 865.21875 668.738281 C 865.117188 668.738281 865.015625 668.734375 864.914062 668.726562 C 862.78125 668.5625 861.183594 666.699219 861.351562 664.5625 L 868.382812 574.101562 L 828.617188 515 C 821.441406 505.238281 809.503906 499.414062 796.667969 499.414062 L 783.535156 499.414062 C 762.320312 499.414062 745.0625 515.207031 745.0625 534.621094 L 745.0625 539.175781 C 745.0625 544.480469 741.71875 549.179688 736.546875 551.15625 C 732.148438 552.835938 729.300781 556.691406 729.300781 560.980469 C 729.300781 565.265625 732.144531 569.121094 736.546875 570.800781 C 741.71875 572.773438 745.0625 577.476562 745.0625 582.78125 C 745.0625 588.105469 741.71875 592.808594 736.546875 594.78125 C 732.144531 596.460938 729.304688 600.316406 729.304688 604.605469 L 729.675781 658.554688 C 729.6875 660.695312 727.96875 662.441406 725.828125 662.457031 C 723.699219 662.476562 721.941406 660.75 721.925781 658.609375 L 721.554688 604.636719 C 721.554688 604.628906 721.554688 604.613281 721.554688 604.605469 C 721.554688 597.074219 726.355469 590.375 733.785156 587.542969 C 735.929688 586.722656 737.3125 584.863281 737.3125 582.800781 C 737.3125 580.71875 735.929688 578.859375 733.785156 578.042969 C 726.355469 575.207031 721.554688 568.507812 721.554688 560.980469 C 721.554688 553.449219 726.355469 546.75 733.785156 543.914062 C 735.929688 543.097656 737.3125 541.238281 737.3125 539.175781 L 737.3125 534.621094 C 737.3125 510.933594 758.050781 491.664062 783.539062 491.664062 L 796.667969 491.664062 C 811.992188 491.664062 826.289062 498.699219 834.914062 510.480469 C 834.945312 510.523438 834.972656 510.566406 835 510.609375 L 875.5625 570.894531 C 876.050781 571.621094 876.277344 572.488281 876.210938 573.359375 L 869.074219 665.164062 C 868.917969 667.195312 867.21875 668.738281 865.21875 668.738281 Z M 865.21875 668.738281 " fill-opacity="1" fill-rule="nonzero"/><path fill="#253a5b" d="M 775.183594 619.21875 C 749.269531 620.535156 728.777344 634.121094 725.800781 658.582031 C 725.394531 661.914062 727.996094 664.863281 731.355469 664.863281 L 1038.738281 664.863281 C 1042.089844 664.863281 1044.695312 661.921875 1044.292969 658.597656 C 1041.394531 634.792969 1021.855469 621.554688 996.871094 619.351562 L 966.820312 619.574219 C 958.472656 619.574219 954.285156 619.851562 947.691406 623.480469 Z M 775.183594 619.21875 " fill-opacity="1" fill-rule="nonzero"/><path fill="#253a5b" d="M 1038.738281 668.738281 L 731.355469 668.738281 C 728.648438 668.738281 726.066406 667.574219 724.269531 665.546875 C 722.46875 663.511719 721.625 660.804688 721.953125 658.113281 C 724.980469 633.246094 745.300781 616.859375 774.984375 615.347656 C 777.121094 615.238281 778.945312 616.882812 779.050781 619.019531 C 779.160156 621.15625 777.515625 622.976562 775.378906 623.085938 C 749.324219 624.414062 732.226562 637.859375 729.644531 659.050781 C 729.5625 659.722656 729.878906 660.1875 730.070312 660.40625 C 730.261719 660.625 730.6875 660.988281 731.355469 660.988281 L 1038.738281 660.988281 C 1039.410156 660.988281 1039.832031 660.625 1040.027344 660.40625 C 1040.21875 660.1875 1040.527344 659.726562 1040.449219 659.066406 C 1037.988281 638.871094 1021.644531 625.484375 996.714844 623.230469 L 966.851562 623.449219 C 958.648438 623.449219 955.277344 623.730469 949.5625 626.875 C 947.6875 627.90625 945.332031 627.222656 944.300781 625.347656 C 943.269531 623.472656 943.953125 621.117188 945.824219 620.085938 C 953.425781 615.902344 958.503906 615.699219 966.824219 615.699219 L 996.84375 615.480469 C 996.964844 615.480469 997.089844 615.484375 997.210938 615.496094 C 1010.707031 616.683594 1022.480469 620.949219 1031.253906 627.824219 C 1040.800781 635.304688 1046.636719 645.785156 1048.140625 658.128906 C 1048.464844 660.816406 1047.621094 663.515625 1045.828125 665.546875 C 1044.027344 667.574219 1041.445312 668.738281 1038.738281 668.738281 Z M 1038.738281 668.738281 " fill-opacity="1" fill-rule="nonzero"/><path fill="#ffffff" d="M 996.84375 601.078125 L 996.84375 619.667969 C 996.84375 627.960938 990.125 634.679688 981.832031 634.679688 C 973.542969 634.679688 966.824219 627.960938 966.824219 619.667969 L 966.824219 601.746094 Z M 996.84375 601.078125 " fill-opacity="1" fill-rule="nonzero"/><path fill="#253a5b" d="M 981.832031 638.554688 C 971.421875 638.554688 962.949219 630.082031 962.949219 619.667969 L 962.949219 601.746094 C 962.949219 599.605469 964.683594 597.871094 966.824219 597.871094 C 968.960938 597.871094 970.695312 599.605469 970.695312 601.746094 L 970.695312 619.667969 C 970.695312 625.808594 975.691406 630.804688 981.832031 630.804688 C 987.972656 630.804688 992.96875 625.808594 992.96875 619.667969 L 992.96875 601.078125 C 992.96875 598.9375 994.703125 597.203125 996.84375 597.203125 C 998.984375 597.203125 1000.71875 598.9375 1000.71875 601.078125 L 1000.71875 619.667969 C 1000.71875 630.082031 992.246094 638.554688 981.832031 638.554688 Z M 981.832031 638.554688 " fill-opacity="1" fill-rule="nonzero"/><path fill="#ffffff" d="M 902.535156 598.296875 L 869.339844 598.296875 C 840.289062 598.296875 816.738281 621.84375 816.738281 650.894531 L 816.628906 664.863281 L 955.132812 664.863281 L 955.132812 650.894531 C 955.132812 621.84375 931.582031 598.296875 902.535156 598.296875 Z M 902.535156 598.296875 " fill-opacity="1" fill-rule="nonzero"/><path fill="#253a5b" d="M 816.628906 668.738281 C 815.59375 668.738281 814.605469 668.324219 813.875 667.59375 C 813.148438 666.859375 812.746094 665.867188 812.753906 664.832031 L 812.867188 650.863281 C 812.867188 619.757812 838.199219 594.421875 869.339844 594.421875 L 902.535156 594.421875 C 933.675781 594.421875 959.007812 619.753906 959.007812 650.894531 L 959.007812 664.863281 C 959.007812 667.003906 957.273438 668.738281 955.136719 668.738281 Z M 902.535156 602.171875 L 869.339844 602.171875 C 842.472656 602.171875 820.613281 624.027344 820.613281 650.894531 L 820.53125 660.988281 L 951.261719 660.988281 L 951.261719 650.894531 C 951.261719 624.03125 929.398438 602.171875 902.535156 602.171875 Z M 902.535156 602.171875 " fill-opacity="1" fill-rule="nonzero"/><path fill="#253a5b" d="M 824.828125 626.566406 C 824.355469 626.566406 823.878906 626.480469 823.414062 626.300781 C 818.730469 624.464844 811.140625 623.363281 805.695312 623.085938 C 803.558594 622.976562 801.914062 621.15625 802.023438 619.019531 C 802.132812 616.882812 803.945312 615.234375 806.089844 615.347656 C 811.714844 615.632812 820.367188 616.785156 826.238281 619.085938 C 828.234375 619.863281 829.214844 622.113281 828.433594 624.105469 C 827.835938 625.632812 826.375 626.566406 824.828125 626.566406 Z M 824.828125 626.566406 " fill-opacity="1" fill-rule="nonzero"/><path fill="#ffffff" d="M 805.894531 602.734375 L 805.894531 621.875 C 805.894531 630.234375 799.117188 637.007812 790.757812 637.007812 C 782.402344 637.007812 775.625 630.234375 775.625 621.875 L 775.625 602.824219 Z M 805.894531 602.734375 " fill-opacity="1" fill-rule="nonzero"/><path fill="#253a5b" d="M 790.757812 640.882812 C 780.277344 640.882812 771.75 632.355469 771.75 621.875 L 771.75 602.824219 C 771.75 600.683594 773.484375 598.949219 775.625 598.949219 C 777.765625 598.949219 779.5 600.683594 779.5 602.824219 L 779.5 621.875 C 779.5 628.085938 784.550781 633.136719 790.757812 633.136719 C 796.96875 633.136719 802.019531 628.082031 802.019531 621.875 L 802.019531 602.734375 C 802.019531 600.59375 803.753906 598.859375 805.890625 598.859375 C 808.03125 598.859375 809.765625 600.59375 809.765625 602.734375 L 809.765625 621.875 C 809.769531 632.355469 801.242188 640.882812 790.757812 640.882812 Z M 790.757812 640.882812 " fill-opacity="1" fill-rule="nonzero"/><path fill="#253a5b" d="M 923.109375 767.035156 L 995.554688 767.035156 C 998.253906 767.035156 1000.4375 764.847656 1000.4375 762.152344 L 1000.4375 740.023438 L 1008.800781 740.023438 C 1012.671875 740.023438 1016.332031 737.980469 1018.152344 734.5625 C 1022.921875 725.597656 1016.546875 716.59375 1008.070312 716.59375 L 1000.4375 716.59375 L 1000.4375 694.589844 C 1000.4375 691.890625 998.253906 689.703125 995.554688 689.703125 L 923.109375 689.703125 Z M 923.109375 767.035156 " fill-opacity="1" fill-rule="nonzero"/><path fill="#253a5b" d="M 995.554688 770.910156 L 923.109375 770.910156 C 920.96875 770.910156 919.234375 769.175781 919.234375 767.035156 C 919.234375 764.894531 920.96875 763.160156 923.109375 763.160156 L 995.554688 763.160156 C 996.113281 763.160156 996.5625 762.710938 996.5625 762.152344 L 996.5625 740.023438 C 996.5625 737.882812 998.296875 736.148438 1000.4375 736.148438 L 1008.800781 736.148438 C 1011.300781 736.148438 1013.628906 734.8125 1014.730469 732.746094 C 1016.835938 728.785156 1015.675781 725.742188 1014.796875 724.28125 C 1013.363281 721.894531 1010.847656 720.46875 1008.070312 720.46875 L 1000.4375 720.46875 C 998.296875 720.46875 996.5625 718.734375 996.5625 716.59375 L 996.5625 694.589844 C 996.5625 694.03125 996.113281 693.578125 995.554688 693.578125 L 923.109375 693.578125 C 920.96875 693.578125 919.234375 691.84375 919.234375 689.707031 C 919.234375 687.566406 920.96875 685.832031 923.109375 685.832031 L 995.554688 685.832031 C 1000.382812 685.832031 1004.3125 689.757812 1004.3125 694.589844 L 1004.3125 712.71875 L 1008.070312 712.71875 C 1013.511719 712.71875 1018.636719 715.621094 1021.441406 720.289062 C 1024.371094 725.167969 1024.417969 731.035156 1021.570312 736.382812 C 1019.105469 741.019531 1014.210938 743.898438 1008.800781 743.898438 L 1004.3125 743.898438 L 1004.3125 762.152344 C 1004.3125 766.980469 1000.382812 770.910156 995.554688 770.910156 Z M 995.554688 770.910156 " fill-opacity="1" fill-rule="nonzero"/><path fill="#253a5b" d="M 845.5625 689.707031 L 773.113281 689.707031 C 770.417969 689.707031 768.230469 691.890625 768.230469 694.589844 L 768.230469 716.71875 L 760.960938 716.71875 C 757.09375 716.71875 753.429688 718.761719 751.613281 722.175781 C 746.839844 731.144531 753.214844 740.148438 761.691406 740.148438 L 768.230469 740.148438 L 768.230469 762.152344 C 768.230469 764.851562 770.417969 767.035156 773.113281 767.035156 L 845.5625 767.035156 Z M 845.5625 689.707031 " fill-opacity="1" fill-rule="nonzero"/><path fill="#253a5b" d="M 845.5625 770.910156 L 773.113281 770.910156 C 768.285156 770.910156 764.355469 766.984375 764.355469 762.152344 L 764.355469 744.023438 L 761.691406 744.023438 C 756.25 744.023438 751.125 741.121094 748.320312 736.453125 C 745.390625 731.574219 745.34375 725.707031 748.191406 720.359375 C 750.65625 715.722656 755.550781 712.84375 760.960938 712.84375 L 764.355469 712.84375 L 764.355469 694.589844 C 764.355469 689.761719 768.285156 685.832031 773.113281 685.832031 L 845.5625 685.832031 C 847.703125 685.832031 849.4375 687.566406 849.4375 689.707031 C 849.4375 691.84375 847.703125 693.582031 845.5625 693.582031 L 773.113281 693.582031 C 772.558594 693.582031 772.105469 694.03125 772.105469 694.589844 L 772.105469 716.71875 C 772.105469 718.859375 770.371094 720.59375 768.230469 720.59375 L 760.960938 720.59375 C 758.460938 720.59375 756.132812 721.929688 755.03125 723.996094 C 752.925781 727.957031 754.085938 731 754.964844 732.460938 C 756.398438 734.847656 758.914062 736.273438 761.691406 736.273438 L 768.230469 736.273438 C 770.371094 736.273438 772.105469 738.007812 772.105469 740.148438 L 772.105469 762.152344 C 772.105469 762.710938 772.558594 763.164062 773.113281 763.164062 L 845.5625 763.164062 C 847.703125 763.164062 849.4375 764.898438 849.4375 767.035156 C 849.4375 769.175781 847.703125 770.910156 845.5625 770.910156 Z M 845.5625 770.910156 " fill-opacity="1" fill-rule="nonzero"/><path fill="#e0e0e0" d="M 838.507812 740.023438 L 845.777344 740.023438 L 845.777344 767.035156 L 923.105469 767.035156 L 923.105469 740.023438 L 929.859375 740.023438 C 933.730469 740.023438 937.394531 737.980469 939.210938 734.5625 C 943.980469 725.597656 937.605469 716.59375 929.128906 716.59375 L 923.105469 716.59375 L 923.105469 689.707031 L 845.777344 689.707031 L 845.777344 716.59375 L 839.238281 716.59375 C 830.757812 716.59375 824.386719 725.597656 829.15625 734.5625 C 830.976562 737.980469 834.636719 740.023438 838.507812 740.023438 Z M 838.507812 740.023438 " fill-opacity="1" fill-rule="nonzero"/><path fill="#253a5b" d="M 923.105469 770.910156 L 845.777344 770.910156 C 843.636719 770.910156 841.902344 769.175781 841.902344 767.035156 L 841.902344 743.898438 L 838.507812 743.898438 C 833.097656 743.898438 828.203125 741.019531 825.738281 736.382812 C 822.890625 731.03125 822.9375 725.167969 825.867188 720.289062 C 828.671875 715.621094 833.792969 712.71875 839.238281 712.71875 L 841.902344 712.71875 L 841.902344 689.707031 C 841.902344 687.566406 843.636719 685.832031 845.777344 685.832031 L 923.105469 685.832031 C 925.246094 685.832031 926.980469 687.566406 926.980469 689.707031 L 926.980469 712.71875 L 929.128906 712.71875 C 934.574219 712.71875 939.695312 715.621094 942.5 720.289062 C 945.429688 725.167969 945.476562 731.035156 942.628906 736.382812 C 940.164062 741.019531 935.269531 743.898438 929.859375 743.898438 L 926.980469 743.898438 L 926.980469 767.035156 C 926.980469 769.175781 925.246094 770.910156 923.105469 770.910156 Z M 849.652344 763.164062 L 919.234375 763.164062 L 919.234375 740.023438 C 919.234375 737.882812 920.96875 736.148438 923.105469 736.148438 L 929.859375 736.148438 C 932.363281 736.148438 934.691406 734.8125 935.789062 732.742188 C 937.894531 728.785156 936.738281 725.742188 935.859375 724.28125 C 934.425781 721.894531 931.910156 720.46875 929.128906 720.46875 L 923.105469 720.46875 C 920.96875 720.46875 919.234375 718.734375 919.234375 716.59375 L 919.234375 693.582031 L 849.652344 693.582031 L 849.652344 716.59375 C 849.652344 718.734375 847.917969 720.46875 845.777344 720.46875 L 839.238281 720.46875 C 836.457031 720.46875 833.941406 721.894531 832.507812 724.28125 C 831.628906 725.742188 830.472656 728.785156 832.578125 732.742188 C 833.679688 734.8125 836.003906 736.148438 838.507812 736.148438 L 845.777344 736.148438 C 847.917969 736.148438 849.652344 737.882812 849.652344 740.023438 Z M 849.652344 763.164062 " fill-opacity="1" fill-rule="nonzero"/><path fill="#253a5b" d="M 884.882812 693.582031 C 882.742188 693.582031 881.007812 691.847656 881.007812 689.707031 L 881.007812 664.863281 C 881.007812 662.722656 882.742188 660.988281 884.882812 660.988281 C 887.023438 660.988281 888.757812 662.722656 888.757812 664.863281 L 888.757812 689.707031 C 888.757812 691.84375 887.019531 693.582031 884.882812 693.582031 Z M 884.882812 693.582031 " fill-opacity="1" fill-rule="nonzero"/><path fill="#253a5b" d="M 789.585938 693.582031 C 787.445312 693.582031 785.710938 691.847656 785.710938 689.707031 L 785.710938 664.863281 C 785.710938 662.722656 787.445312 660.988281 789.585938 660.988281 C 791.722656 660.988281 793.457031 662.722656 793.457031 664.863281 L 793.457031 689.707031 C 793.460938 691.84375 791.722656 693.582031 789.585938 693.582031 Z M 789.585938 693.582031 " fill-opacity="1" fill-rule="nonzero"/><path fill="#253a5b" d="M 980.179688 693.582031 C 978.039062 693.582031 976.304688 691.847656 976.304688 689.707031 L 976.304688 664.863281 C 976.304688 662.722656 978.039062 660.988281 980.179688 660.988281 C 982.316406 660.988281 984.050781 662.722656 984.050781 664.863281 L 984.050781 689.707031 C 984.050781 691.847656 982.316406 693.582031 980.179688 693.582031 Z M 980.179688 693.582031 " fill-opacity="1" fill-rule="nonzero"/><path fill="#ffffff" d="M 825.0625 545.820312 L 812.90625 545.832031 C 800.941406 545.832031 791.238281 536.132812 791.238281 524.167969 L 791.238281 520.554688 L 791.238281 524.167969 C 791.238281 536.132812 781.539062 545.832031 769.574219 545.832031 L 756.9375 545.820312 C 749.265625 545.929688 743.078125 552.171875 743.078125 559.867188 C 743.078125 567.5625 749.265625 573.800781 756.9375 573.910156 C 756.9375 591.417969 771.128906 605.609375 788.636719 605.609375 L 792.695312 605.609375 C 810.195312 605.609375 824.386719 591.421875 824.386719 573.921875 C 832.148438 573.921875 838.4375 567.628906 838.4375 559.867188 C 838.4375 552.105469 832.148438 545.8125 824.386719 545.8125 Z M 825.0625 545.820312 " fill-opacity="1" fill-rule="nonzero"/><path fill="#253a5b" d="M 792.695312 609.484375 L 788.636719 609.484375 C 770.183594 609.484375 754.964844 595.359375 753.226562 577.351562 C 745.226562 575.550781 739.207031 568.355469 739.207031 559.863281 C 739.207031 550.121094 747.132812 542.085938 756.882812 541.945312 C 756.898438 541.945312 756.914062 541.945312 756.9375 541.945312 L 769.578125 541.957031 C 779.382812 541.957031 787.367188 533.976562 787.367188 524.167969 L 787.367188 520.554688 C 787.367188 518.414062 789.101562 516.679688 791.238281 516.679688 C 793.378906 516.679688 795.113281 518.414062 795.113281 520.554688 L 795.113281 524.167969 C 795.113281 533.976562 803.097656 541.957031 812.90625 541.957031 L 824.082031 541.945312 C 824.386719 541.921875 824.703125 541.933594 825.015625 541.945312 L 825.0625 541.945312 C 825.0625 541.945312 825.0625 541.945312 825.066406 541.945312 C 825.207031 541.945312 825.347656 541.953125 825.484375 541.96875 C 834.859375 542.539062 842.3125 550.347656 842.3125 559.867188 C 842.3125 568.480469 836.203125 575.699219 828.089844 577.410156 C 826.332031 595.386719 811.128906 609.484375 792.695312 609.484375 Z M 756.964844 549.695312 C 751.441406 549.789062 746.953125 554.34375 746.953125 559.867188 C 746.953125 565.394531 751.457031 569.957031 756.992188 570.035156 C 759.109375 570.066406 760.808594 571.789062 760.808594 573.910156 C 760.808594 589.253906 773.292969 601.734375 788.636719 601.734375 L 792.695312 601.734375 C 808.03125 601.734375 820.511719 589.257812 820.511719 573.917969 C 820.511719 571.78125 822.246094 570.046875 824.386719 570.046875 C 829.996094 570.046875 834.5625 565.480469 834.5625 559.867188 C 834.5625 554.414062 830.253906 549.945312 824.863281 549.695312 L 812.910156 549.707031 C 803.78125 549.707031 795.757812 544.894531 791.242188 537.679688 C 786.722656 544.894531 778.699219 549.707031 769.574219 549.707031 Z M 756.964844 549.695312 " fill-opacity="1" fill-rule="nonzero"/><path fill="#e0e0e0" d="M 1017.507812 496.496094 L 1017.214844 496.496094 C 1018.722656 493.5 1019.609375 490.273438 1019.609375 487.140625 L 969.613281 487.140625 C 948.546875 487.140625 931.46875 504.21875 931.46875 525.285156 L 931.46875 555.066406 L 991.402344 514.59375 L 991.402344 555.066406 L 1032.199219 555.066406 L 1032.199219 518.640625 C 1032.199219 507.121094 1026.023438 499.167969 1017.507812 496.496094 Z M 1017.507812 496.496094 " fill-opacity="1" fill-rule="nonzero"/><path fill="#253a5b" d="M 1032.199219 558.941406 L 991.402344 558.941406 C 989.261719 558.941406 987.527344 557.207031 987.527344 555.066406 L 987.527344 521.886719 L 933.636719 558.277344 C 932.449219 559.082031 930.917969 559.160156 929.652344 558.488281 C 928.386719 557.816406 927.59375 556.5 927.59375 555.066406 L 927.59375 525.285156 C 927.59375 502.117188 946.445312 483.265625 969.613281 483.265625 L 1019.609375 483.265625 C 1021.75 483.265625 1023.484375 485 1023.484375 487.140625 C 1023.484375 489.457031 1023.082031 491.871094 1022.308594 494.265625 C 1030.890625 498.554688 1036.074219 507.5625 1036.074219 518.640625 L 1036.074219 555.066406 C 1036.074219 557.207031 1034.339844 558.941406 1032.199219 558.941406 Z M 995.277344 551.191406 L 1028.324219 551.191406 L 1028.324219 518.640625 C 1028.324219 509.640625 1024.039062 502.84375 1016.828125 500.351562 C 1015.636719 500.230469 1014.554688 499.5625 1013.917969 498.527344 C 1013.210938 497.382812 1013.148438 495.953125 1013.753906 494.753906 C 1014.378906 493.511719 1014.863281 492.253906 1015.195312 491.015625 L 969.613281 491.015625 C 950.71875 491.015625 935.34375 506.386719 935.34375 525.285156 L 935.34375 547.773438 L 989.234375 511.382812 C 990.421875 510.582031 991.957031 510.5 993.222656 511.171875 C 994.488281 511.84375 995.277344 513.160156 995.277344 514.59375 Z M 995.277344 551.191406 " fill-opacity="1" fill-rule="nonzero"/><path fill="#ffffff" d="M 1017.355469 540.21875 L 1017.355469 536.28125 C 1017.355469 519.96875 1004.132812 506.746094 987.820312 506.746094 L 975.640625 506.746094 C 959.328125 506.746094 946.105469 519.96875 946.105469 536.28125 L 946.105469 540.230469 C 938.003906 540.34375 931.46875 546.9375 931.46875 555.066406 C 931.46875 563.195312 938.003906 569.789062 946.105469 569.902344 C 946.105469 588.394531 961.097656 603.386719 979.589844 603.386719 L 983.878906 603.386719 C 1002.367188 603.386719 1017.355469 588.398438 1017.355469 569.910156 C 1025.554688 569.910156 1032.199219 563.265625 1032.199219 555.066406 C 1032.199219 546.867188 1025.554688 540.21875 1017.355469 540.21875 Z M 1017.355469 540.21875 " fill-opacity="1" fill-rule="nonzero"/><path fill="#253a5b" d="M 983.878906 607.261719 L 979.589844 607.261719 C 960.15625 607.261719 944.140625 592.34375 942.390625 573.359375 C 933.960938 571.539062 927.59375 563.988281 927.59375 555.066406 C 927.59375 546.199219 933.878906 538.6875 942.230469 536.808594 L 942.230469 536.28125 C 942.230469 517.859375 957.21875 502.871094 975.636719 502.871094 L 987.820312 502.871094 C 1006.242188 502.871094 1021.230469 517.859375 1021.230469 536.28125 L 1021.230469 536.75 C 1029.699219 538.539062 1036.074219 546.074219 1036.074219 555.066406 C 1036.074219 564.117188 1029.617188 571.691406 1021.066406 573.417969 C 1019.292969 592.375 1003.292969 607.261719 983.878906 607.261719 Z M 975.640625 510.617188 C 961.492188 510.617188 949.980469 522.128906 949.980469 536.28125 L 949.980469 540.230469 C 949.980469 542.347656 948.277344 544.074219 946.160156 544.105469 C 940.195312 544.1875 935.34375 549.105469 935.34375 555.066406 C 935.34375 561.027344 940.195312 565.941406 946.160156 566.027344 C 948.277344 566.058594 949.980469 567.78125 949.980469 569.902344 C 949.980469 586.226562 963.261719 599.511719 979.589844 599.511719 L 983.878906 599.511719 C 1000.203125 599.511719 1013.480469 586.234375 1013.480469 569.910156 C 1013.480469 567.769531 1015.214844 566.035156 1017.355469 566.035156 C 1023.402344 566.035156 1028.324219 561.117188 1028.324219 555.066406 C 1028.324219 549.015625 1023.402344 544.09375 1017.355469 544.09375 C 1015.214844 544.09375 1013.480469 542.359375 1013.480469 540.21875 L 1013.480469 536.28125 C 1013.480469 522.128906 1001.96875 510.617188 987.820312 510.617188 Z M 975.640625 510.617188 " fill-opacity="1" fill-rule="nonzero"/><path fill="#ffffff" d="M 902.796875 575.578125 L 902.796875 596.460938 C 902.796875 605.769531 895.246094 613.316406 885.9375 613.316406 C 876.625 613.316406 869.078125 605.769531 869.078125 596.460938 L 869.078125 576.335938 Z M 902.796875 575.578125 " fill-opacity="1" fill-rule="nonzero"/><path fill="#253a5b" d="M 885.9375 617.191406 C 874.503906 617.191406 865.203125 607.890625 865.203125 596.457031 L 865.203125 576.335938 C 865.203125 574.199219 866.9375 572.464844 869.078125 572.464844 C 871.21875 572.464844 872.953125 574.199219 872.953125 576.335938 L 872.953125 596.457031 C 872.953125 603.617188 878.777344 609.441406 885.933594 609.441406 C 893.09375 609.441406 898.921875 603.617188 898.921875 596.457031 L 898.921875 575.578125 C 898.921875 573.4375 900.65625 571.703125 902.792969 571.703125 C 904.933594 571.703125 906.667969 573.4375 906.667969 575.578125 L 906.667969 596.457031 C 906.667969 607.890625 897.367188 617.191406 885.9375 617.191406 Z M 885.9375 617.191406 " fill-opacity="1" fill-rule="nonzero"/><path fill="#e0e0e0" d="M 926.335938 464.699219 L 926.007812 464.699219 C 927.703125 461.320312 928.707031 457.675781 928.707031 454.140625 L 872.273438 454.140625 C 848.496094 454.140625 829.21875 473.417969 829.21875 497.195312 L 829.21875 530.8125 L 896.871094 485.128906 L 896.871094 530.8125 L 942.917969 530.8125 L 942.917969 489.699219 C 942.917969 476.695312 935.945312 467.71875 926.335938 464.699219 Z M 926.335938 464.699219 " fill-opacity="1" fill-rule="nonzero"/><path fill="#253a5b" d="M 942.917969 534.6875 L 896.871094 534.6875 C 894.730469 534.6875 892.996094 532.953125 892.996094 530.8125 L 892.996094 492.421875 L 831.386719 534.023438 C 830.199219 534.828125 828.667969 534.90625 827.402344 534.234375 C 826.136719 533.5625 825.34375 532.246094 825.34375 530.8125 L 825.34375 497.195312 C 825.34375 471.320312 846.398438 450.265625 872.273438 450.265625 L 928.707031 450.265625 C 930.847656 450.265625 932.582031 452 932.582031 454.140625 C 932.582031 456.839844 932.089844 459.652344 931.144531 462.441406 C 940.890625 467.121094 946.792969 477.226562 946.792969 489.699219 L 946.792969 530.816406 C 946.792969 532.953125 945.058594 534.6875 942.917969 534.6875 Z M 900.746094 526.941406 L 939.042969 526.941406 L 939.042969 489.699219 C 939.042969 479.292969 934.058594 471.433594 925.675781 468.558594 C 924.460938 468.457031 923.355469 467.785156 922.707031 466.734375 C 922.003906 465.589844 921.941406 464.160156 922.546875 462.960938 C 923.371094 461.316406 923.984375 459.648438 924.363281 458.015625 L 872.273438 458.015625 C 850.667969 458.015625 833.09375 475.59375 833.09375 497.199219 L 833.09375 523.523438 L 894.703125 481.917969 C 895.890625 481.117188 897.421875 481.035156 898.6875 481.710938 C 899.953125 482.382812 900.746094 483.699219 900.746094 485.128906 Z M 900.746094 526.941406 " fill-opacity="1" fill-rule="nonzero"/><path fill="#ffffff" d="M 926.164062 514.054688 L 926.164062 509.609375 C 926.164062 491.195312 911.238281 476.269531 892.828125 476.269531 L 879.074219 476.269531 C 860.664062 476.269531 845.738281 491.195312 845.738281 509.609375 L 845.738281 514.066406 C 836.59375 514.195312 829.21875 521.636719 829.21875 530.816406 C 829.21875 539.988281 836.59375 547.429688 845.738281 547.558594 C 845.738281 568.433594 862.660156 585.355469 883.535156 585.355469 L 888.378906 585.355469 C 909.246094 585.355469 926.164062 568.441406 926.164062 547.570312 C 935.417969 547.570312 942.917969 540.070312 942.917969 530.8125 C 942.917969 521.558594 935.417969 514.054688 926.164062 514.054688 Z M 926.164062 514.054688 " fill-opacity="1" fill-rule="nonzero"/><path fill="#253a5b" d="M 888.378906 589.230469 L 883.535156 589.230469 C 861.738281 589.230469 843.792969 572.402344 842.011719 551.054688 C 837.964844 550.273438 834.25 548.292969 831.292969 545.300781 C 827.457031 541.417969 825.34375 536.273438 825.34375 530.816406 C 825.34375 525.355469 827.457031 520.207031 831.292969 516.324219 C 834.210938 513.371094 837.875 511.402344 841.867188 510.601562 L 841.867188 509.609375 C 841.867188 489.089844 858.558594 472.394531 879.074219 472.394531 L 892.824219 472.394531 C 913.34375 472.394531 930.035156 489.089844 930.035156 509.609375 L 930.035156 510.546875 C 939.566406 512.363281 946.792969 520.761719 946.792969 530.8125 C 946.792969 540.917969 939.492188 549.347656 929.886719 551.105469 C 928.085938 572.429688 910.15625 589.230469 888.378906 589.230469 Z M 879.074219 480.144531 C 862.832031 480.144531 849.613281 493.359375 849.613281 509.609375 L 849.613281 514.066406 C 849.613281 516.1875 847.910156 517.914062 845.792969 517.941406 C 838.789062 518.039062 833.09375 523.8125 833.09375 530.8125 C 833.09375 537.8125 838.789062 543.585938 845.792969 543.683594 C 847.914062 543.714844 849.613281 545.441406 849.613281 547.558594 C 849.613281 566.261719 864.832031 581.480469 883.535156 581.480469 L 888.378906 581.480469 C 907.074219 581.480469 922.289062 566.269531 922.289062 547.570312 C 922.289062 545.429688 924.023438 543.695312 926.164062 543.695312 C 933.265625 543.695312 939.042969 537.917969 939.042969 530.8125 C 939.042969 523.710938 933.265625 517.929688 926.164062 517.929688 C 924.023438 517.929688 922.289062 516.195312 922.289062 514.054688 L 922.289062 509.609375 C 922.289062 493.363281 909.070312 480.144531 892.824219 480.144531 Z M 879.074219 480.144531 " fill-opacity="1" fill-rule="nonzero"/><path fill="#253a5b" d="M 722.804688 127.140625 L 692.464844 127.167969 C 687.023438 127.171875 682.617188 131 682.621094 135.714844 L 682.648438 166.710938 C 682.65625 171.425781 687.070312 175.246094 692.507812 175.242188 L 721.074219 175.214844 Z M 722.804688 127.140625 " fill-opacity="1" fill-rule="nonzero"/><path fill="#253a5b" d="M 692.496094 179.117188 C 684.9375 179.117188 678.78125 173.554688 678.777344 166.714844 L 678.75 135.71875 C 678.746094 132.296875 680.242188 129.113281 682.960938 126.75 C 685.523438 124.523438 688.898438 123.296875 692.460938 123.292969 L 722.800781 123.265625 L 722.808594 131.015625 L 692.46875 131.042969 C 690.769531 131.042969 689.199219 131.597656 688.042969 132.601562 C 687.046875 133.464844 686.496094 134.570312 686.496094 135.710938 L 686.523438 166.710938 C 686.527344 169.234375 689.261719 171.367188 692.496094 171.367188 C 692.5 171.367188 692.5 171.367188 692.503906 171.367188 L 721.074219 171.339844 L 721.078125 179.089844 L 692.511719 179.117188 C 692.507812 179.117188 692.5 179.117188 692.496094 179.117188 Z M 692.496094 179.117188 " fill-opacity="1" fill-rule="nonzero"/><path fill="#253a5b" d="M 865.320312 127.011719 L 894.5625 126.984375 C 900 126.980469 904.410156 130.800781 904.414062 135.515625 L 904.445312 166.511719 C 904.449219 171.226562 900.042969 175.054688 894.605469 175.058594 L 865.871094 175.085938 Z M 865.320312 127.011719 " fill-opacity="1" fill-rule="nonzero"/><path fill="#253a5b" d="M 865.875 178.957031 L 865.867188 171.210938 L 894.601562 171.183594 C 896.300781 171.183594 897.871094 170.628906 899.023438 169.625 C 900.023438 168.761719 900.570312 167.65625 900.570312 166.515625 L 900.542969 135.515625 C 900.539062 134.378906 899.988281 133.273438 898.992188 132.410156 C 897.835938 131.410156 896.269531 130.859375 894.574219 130.859375 C 894.570312 130.859375 894.570312 130.859375 894.566406 130.859375 L 865.324219 130.886719 L 865.316406 123.136719 L 894.558594 123.109375 C 894.5625 123.109375 894.570312 123.109375 894.574219 123.109375 C 898.128906 123.109375 901.5 124.332031 904.0625 126.550781 C 906.785156 128.90625 908.289062 132.089844 908.289062 135.511719 L 908.316406 166.507812 C 908.320312 169.929688 906.824219 173.113281 904.105469 175.476562 C 901.546875 177.703125 898.171875 178.929688 894.609375 178.933594 Z M 865.875 178.957031 " fill-opacity="1" fill-rule="nonzero"/><path fill="#e0e0e0" d="M 722.066406 247.316406 L 721.972656 141.136719 C 721.929688 93.027344 754.695312 59.902344 795.152344 59.867188 C 835.613281 59.832031 868.441406 92.894531 868.484375 141.003906 L 868.523438 181.949219 L 868.539062 199.117188 L 868.570312 236.886719 Z M 722.066406 247.316406 " fill-opacity="1" fill-rule="nonzero"/><path fill="#253a5b" d="M 718.191406 247.320312 L 718.097656 141.140625 C 718.074219 117.253906 726.042969 95.484375 740.53125 79.839844 C 754.757812 64.480469 774.15625 56.011719 795.148438 55.992188 C 795.171875 55.992188 795.195312 55.992188 795.21875 55.992188 C 816.1875 55.992188 835.574219 64.425781 849.8125 79.742188 C 864.332031 95.359375 872.335938 117.113281 872.359375 141 L 872.445312 236.882812 L 864.695312 236.890625 L 864.609375 141.007812 C 864.589844 119.082031 857.320312 99.199219 844.136719 85.019531 C 831.382812 71.296875 814.007812 63.742188 795.21875 63.742188 C 795.195312 63.742188 795.175781 63.742188 795.15625 63.742188 C 776.34375 63.757812 758.960938 71.347656 746.214844 85.105469 C 733.058594 99.3125 725.824219 119.207031 725.84375 141.132812 L 725.941406 247.316406 Z M 718.191406 247.320312 " fill-opacity="1" fill-rule="nonzero"/><path fill="#ffffff" d="M 842.984375 42.585938 C 850.070312 46.960938 856.605469 52.371094 862.4375 58.703125 Z M 842.984375 42.585938 " fill-opacity="1" fill-rule="nonzero"/><g clip-path="url(#b09d8df42e)"><path fill="#253a5b" d="M 699.871094 129.960938 C 699.730469 129.960938 699.589844 129.953125 699.449219 129.941406 C 697.320312 129.707031 695.785156 127.796875 696.015625 125.667969 C 697.59375 111.113281 701.332031 97.429688 707.128906 85.011719 C 712.75 72.957031 720.183594 62.339844 729.21875 53.457031 C 738.191406 44.628906 748.492188 37.761719 759.832031 33.039062 C 771.371094 28.234375 783.664062 25.792969 796.371094 25.78125 C 796.398438 25.78125 796.429688 25.78125 796.453125 25.78125 C 809.496094 25.78125 822.179688 28.53125 834.15625 33.957031 C 845.898438 39.277344 856.425781 46.914062 865.4375 56.660156 C 881.941406 74.511719 892.203125 98.347656 895.109375 125.589844 C 895.339844 127.71875 893.796875 129.628906 891.667969 129.855469 C 889.542969 130.085938 887.632812 128.539062 887.40625 126.414062 C 884.675781 100.839844 875.113281 78.539062 859.746094 61.921875 C 842.816406 43.613281 820.339844 33.53125 796.453125 33.53125 C 796.429688 33.53125 796.40625 33.53125 796.378906 33.53125 C 747.757812 33.574219 709.65625 71.808594 703.71875 126.503906 C 703.503906 128.492188 701.824219 129.960938 699.871094 129.960938 Z M 699.871094 129.960938 " fill-opacity="1" fill-rule="nonzero"/></g><path fill="#e0e0e0" d="M 688.070312 342.148438 L 688.042969 301.253906 C 688.015625 271.484375 711.941406 247.328125 741.480469 247.304688 L 749.324219 247.296875 L 766.390625 248.082031 L 766.464844 354.789062 Z M 688.070312 342.148438 " fill-opacity="1" fill-rule="nonzero"/><path fill="#253a5b" d="M 766.46875 358.664062 C 764.328125 358.664062 762.59375 356.929688 762.59375 354.792969 L 762.519531 251.78125 L 749.238281 251.167969 L 741.484375 251.175781 C 714.128906 251.203125 691.890625 273.664062 691.917969 301.25 L 691.945312 342.148438 C 691.949219 344.285156 690.214844 346.023438 688.074219 346.023438 C 688.074219 346.023438 688.074219 346.023438 688.070312 346.023438 C 685.933594 346.023438 684.199219 344.292969 684.199219 342.152344 L 684.167969 301.253906 C 684.140625 269.398438 709.847656 243.457031 741.480469 243.429688 L 749.324219 243.421875 C 749.382812 243.421875 749.445312 243.421875 749.503906 243.425781 L 766.570312 244.210938 C 768.636719 244.308594 770.265625 246.011719 770.265625 248.078125 L 770.34375 354.785156 C 770.34375 356.925781 768.609375 358.660156 766.46875 358.664062 Z M 766.46875 358.664062 " fill-opacity="1" fill-rule="nonzero"/><path fill="#ffffff" d="M 794.21875 107.570312 C 794.21875 107.570312 807.765625 135.210938 855.359375 137.324219 L 855.324219 137.148438 C 855.371094 138.335938 855.398438 139.539062 855.398438 140.753906 C 855.4375 181.097656 827.964844 213.824219 794.035156 213.855469 C 760.113281 213.886719 732.582031 181.207031 732.546875 140.867188 L 732.699219 141.375 C 783.011719 132.179688 801.304688 97.46875 801.304688 97.46875 Z M 794.21875 107.570312 " fill-opacity="1" fill-rule="nonzero"/><path fill="#253a5b" d="M 793.988281 217.730469 C 776.4375 217.730469 759.972656 209.65625 747.621094 194.996094 C 735.417969 180.515625 728.6875 161.292969 728.671875 140.871094 C 728.667969 138.945312 730.078125 137.3125 731.984375 137.03125 C 732.628906 136.9375 733.261719 137.007812 733.839844 137.214844 C 757.742188 132.460938 773.726562 121.667969 783 113.34375 C 793.339844 104.0625 797.835938 95.738281 797.878906 95.65625 C 798.886719 93.769531 801.226562 93.050781 803.117188 94.050781 C 805.003906 95.050781 805.726562 97.386719 804.730469 99.277344 C 804.609375 99.507812 802.796875 102.902344 798.890625 107.800781 C 800.515625 110.207031 803.90625 114.507812 809.691406 118.878906 C 817.605469 124.851562 831.742188 132.167969 854.359375 133.394531 C 854.519531 133.351562 854.683594 133.324219 854.851562 133.300781 C 856.855469 133.054688 858.710938 134.386719 859.117188 136.359375 L 859.15625 136.535156 C 859.234375 136.910156 859.253906 137.289062 859.222656 137.660156 C 859.253906 138.703125 859.273438 139.738281 859.273438 140.753906 C 859.292969 161.175781 852.597656 180.410156 840.421875 194.914062 C 828.085938 209.609375 811.613281 217.714844 794.039062 217.730469 C 794.023438 217.730469 794.007812 217.730469 793.988281 217.730469 Z M 736.503906 144.578125 C 738.152344 180.976562 763.316406 209.980469 793.988281 209.980469 C 794.003906 209.980469 794.019531 209.980469 794.035156 209.980469 C 825.710938 209.953125 851.460938 179.019531 851.527344 140.976562 C 828.050781 139.242188 813.105469 131.277344 804.582031 124.726562 C 799.34375 120.703125 795.828125 116.71875 793.648438 113.800781 C 792.101562 115.425781 790.378906 117.121094 788.46875 118.847656 C 778.585938 127.789062 761.667969 139.332031 736.503906 144.578125 Z M 736.503906 144.578125 " fill-opacity="1" fill-rule="nonzero"/><path fill="#253a5b" d="M 799.796875 196.171875 C 797.65625 196.171875 795.921875 194.441406 795.921875 192.300781 C 795.917969 190.160156 797.652344 188.425781 799.792969 188.425781 L 873.058594 188.371094 C 875.941406 188.367188 878.28125 185.988281 878.28125 183.066406 L 878.273438 174.78125 C 878.269531 172.640625 880.003906 170.902344 882.144531 170.902344 C 882.144531 170.902344 882.144531 170.902344 882.148438 170.902344 C 884.285156 170.902344 886.019531 172.632812 886.019531 174.773438 L 886.027344 183.0625 C 886.035156 190.253906 880.21875 196.113281 873.066406 196.121094 Z M 799.796875 196.171875 " fill-opacity="1" fill-rule="nonzero"/><path fill="#253a5b" d="M 749.460938 398.449219 L 749.320312 244.765625 C 749.316406 240.472656 752.769531 236.988281 757.027344 236.984375 L 902.648438 236.855469 L 916.277344 236.84375 L 946.941406 236.8125 L 963.980469 236.796875 L 1003.96875 236.761719 C 1008.226562 236.757812 1011.683594 240.234375 1011.6875 244.527344 L 1011.828125 398.066406 Z M 749.460938 398.449219 " fill-opacity="1" fill-rule="nonzero"/><path fill="#253a5b" d="M 745.585938 398.453125 L 745.449219 244.769531 C 745.441406 238.347656 750.632812 233.117188 757.023438 233.109375 L 1003.964844 232.886719 C 1003.96875 232.886719 1003.972656 232.886719 1003.976562 232.886719 C 1010.359375 232.886719 1015.554688 238.105469 1015.5625 244.523438 L 1015.699219 398.0625 L 1007.953125 398.070312 L 1007.8125 244.53125 C 1007.8125 242.382812 1006.089844 240.636719 1003.976562 240.636719 C 1003.972656 240.636719 1003.972656 240.636719 1003.972656 240.636719 L 757.03125 240.859375 C 754.914062 240.863281 753.195312 242.613281 753.195312 244.761719 L 753.335938 398.445312 Z M 745.585938 398.453125 " fill-opacity="1" fill-rule="nonzero"/><path fill="#e0e0e0" d="M 836.667969 292.40625 L 836.667969 342.964844 L 880.574219 364.917969 L 880.574219 314.199219 Z M 836.667969 292.40625 " fill-opacity="1" fill-rule="nonzero"/><path fill="#253a5b" d="M 880.574219 368.792969 C 879.980469 368.792969 879.386719 368.65625 878.839844 368.382812 L 834.933594 346.429688 C 833.621094 345.773438 832.792969 344.433594 832.792969 342.964844 L 832.792969 292.40625 C 832.792969 291.0625 833.484375 289.820312 834.625 289.113281 C 835.765625 288.40625 837.1875 288.339844 838.390625 288.933594 L 882.296875 310.730469 C 883.613281 311.386719 884.449219 312.730469 884.449219 314.203125 L 884.449219 364.917969 C 884.449219 366.261719 883.753906 367.507812 882.609375 368.214844 C 881.988281 368.597656 881.28125 368.792969 880.574219 368.792969 Z M 840.542969 340.570312 L 876.699219 358.648438 L 876.699219 316.601562 L 840.542969 298.652344 Z M 840.542969 340.570312 " fill-opacity="1" fill-rule="nonzero"/><path fill="#e0e0e0" d="M 836.667969 292.246094 L 836.667969 292.40625 L 880.574219 314.199219 L 836.824219 292.328125 Z M 836.667969 292.246094 " fill-opacity="1" fill-rule="nonzero"/><path fill="#253a5b" d="M 880.570312 318.078125 C 879.992188 318.078125 879.40625 317.945312 878.851562 317.671875 L 834.945312 295.875 C 833.625 295.222656 832.792969 293.875 832.792969 292.40625 L 832.792969 292.246094 C 832.792969 290.90625 833.488281 289.660156 834.628906 288.953125 C 835.769531 288.246094 837.195312 288.179688 838.398438 288.78125 L 838.554688 288.859375 L 882.308594 310.734375 C 884.21875 311.691406 884.996094 314.015625 884.042969 315.929688 C 883.363281 317.289062 881.996094 318.078125 880.570312 318.078125 Z M 880.570312 318.078125 " fill-opacity="1" fill-rule="nonzero"/><path fill="#e0e0e0" d="M 836.667969 292.40625 L 880.574219 314.199219 L 924.480469 292.246094 L 880.574219 270.292969 L 836.824219 292.328125 Z M 836.667969 292.40625 " fill-opacity="1" fill-rule="nonzero"/><path fill="#253a5b" d="M 880.574219 318.074219 C 879.984375 318.074219 879.394531 317.941406 878.851562 317.671875 L 834.945312 295.875 C 833.628906 295.222656 832.796875 293.878906 832.792969 292.410156 C 832.789062 290.941406 833.621094 289.597656 834.933594 288.941406 L 835.089844 288.859375 L 878.832031 266.832031 C 879.925781 266.285156 881.210938 266.28125 882.304688 266.828125 L 926.214844 288.78125 C 927.527344 289.4375 928.355469 290.78125 928.355469 292.246094 C 928.355469 293.714844 927.527344 295.058594 926.214844 295.710938 L 882.304688 317.667969 C 881.761719 317.9375 881.167969 318.074219 880.574219 318.074219 Z M 845.332031 292.378906 L 880.566406 309.871094 L 915.816406 292.246094 L 880.578125 274.628906 Z M 845.332031 292.378906 " fill-opacity="1" fill-rule="nonzero"/><path fill="#e0e0e0" d="M 880.574219 314.199219 L 880.574219 364.917969 L 924.480469 342.964844 L 924.480469 292.246094 Z M 880.574219 314.199219 " fill-opacity="1" fill-rule="nonzero"/><path fill="#253a5b" d="M 880.574219 368.792969 C 879.867188 368.792969 879.160156 368.597656 878.535156 368.214844 C 877.394531 367.507812 876.699219 366.261719 876.699219 364.917969 L 876.699219 314.203125 C 876.699219 312.734375 877.527344 311.390625 878.839844 310.734375 L 922.75 288.78125 C 923.949219 288.183594 925.375 288.246094 926.519531 288.953125 C 927.660156 289.65625 928.355469 290.90625 928.355469 292.25 L 928.355469 342.964844 C 928.355469 344.433594 927.527344 345.773438 926.214844 346.429688 L 882.308594 368.382812 C 881.761719 368.65625 881.167969 368.792969 880.574219 368.792969 Z M 884.449219 316.59375 L 884.449219 358.648438 L 920.605469 340.570312 L 920.605469 298.515625 Z M 884.449219 316.59375 " fill-opacity="1" fill-rule="nonzero"/><path fill="#ffffff" d="M 1018.640625 398.128906 L 742.644531 398.378906 C 742.660156 411.65625 753.351562 422.40625 766.519531 422.394531 L 994.8125 422.1875 C 1007.984375 422.175781 1018.652344 411.410156 1018.640625 398.128906 Z M 1018.640625 398.128906 " fill-opacity="1" fill-rule="nonzero"/><path fill="#253a5b" d="M 766.496094 426.269531 C 759.09375 426.269531 752.136719 423.367188 746.902344 418.101562 C 741.664062 412.835938 738.777344 405.832031 738.773438 398.382812 C 738.769531 396.242188 740.503906 394.507812 742.644531 394.503906 L 1018.636719 394.257812 C 1018.636719 394.257812 1018.640625 394.257812 1018.640625 394.257812 C 1020.777344 394.257812 1022.511719 395.988281 1022.515625 398.125 C 1022.523438 405.578125 1019.648438 412.585938 1014.421875 417.859375 C 1009.191406 423.144531 1002.226562 426.054688 994.816406 426.0625 L 766.523438 426.269531 C 766.515625 426.269531 766.503906 426.269531 766.496094 426.269531 Z M 746.890625 402.25 C 747.644531 406.164062 749.535156 409.761719 752.394531 412.636719 C 756.167969 416.429688 761.171875 418.519531 766.496094 418.519531 C 766.503906 418.519531 766.507812 418.519531 766.515625 418.519531 L 994.808594 418.3125 C 1000.140625 418.308594 1005.148438 416.210938 1008.917969 412.40625 C 1011.773438 409.523438 1013.65625 405.925781 1014.402344 402.007812 Z M 746.890625 402.25 " fill-opacity="1" fill-rule="nonzero"/></svg>